<?xml version="1.0" encoding="UTF-8" standalone="no"?>
<svg
   height="69.776581mm"
   viewBox="0 0 62.144792 69.776582"
   width="62.144794mm"
   version="1.1"
   id="svg30"
   sodipodi:docname="icg-gh.svg"
   inkscape:version="1.3.2 (091e20ef0f, 2023-11-25, custom)"
   xmlns:inkscape="http://www.inkscape.org/namespaces/inkscape"
   xmlns:sodipodi="http://sodipodi.sourceforge.net/DTD/sodipodi-0.dtd"
   xmlns:xlink="http://www.w3.org/1999/xlink"
   xmlns="http://www.w3.org/2000/svg"
   xmlns:svg="http://www.w3.org/2000/svg">
  <defs
     id="defs30" />
  <sodipodi:namedview
     id="namedview30"
     pagecolor="#ffffff"
     bordercolor="#000000"
     borderopacity="0.25"
     inkscape:showpageshadow="2"
     inkscape:pageopacity="0.0"
     inkscape:pagecheckerboard="0"
     inkscape:deskcolor="#d1d1d1"
     inkscape:document-units="mm"
     inkscape:zoom="0.93338092"
     inkscape:cx="166.59865"
     inkscape:cy="96.423655"
     inkscape:window-width="1920"
     inkscape:window-height="1024"
     inkscape:window-x="1920"
     inkscape:window-y="0"
     inkscape:window-maximized="1"
     inkscape:current-layer="g30" />
  <linearGradient
     id="a">
    <stop
       offset="0"
       stop-color="#b0bccf"
       id="stop1" />
    <stop
       offset="1"
       stop-color="#b0bccf"
       stop-opacity="0"
       id="stop2" />
  </linearGradient>
  <linearGradient
     id="b"
     gradientUnits="userSpaceOnUse"
     x1="230.54033"
     x2="369.06714"
     xlink:href="#a"
     y1="409.54837"
     y2="409.54837" />
  <linearGradient
     id="c"
     gradientUnits="userSpaceOnUse"
     x1="248.12666"
     x2="386.65347"
     xlink:href="#a"
     y1="367.26636"
     y2="367.26636" />
  <path
     d="m 155.10919,269.94146 h 51.14959 v 39.91076 c 0,33.58458 -51.84829,32.48924 -51.84829,0 z"
     fill="none"
     stroke="#b0bccf"
     stroke-width="8.39786"
     id="path2" />
  <g
     fill="#b0bccf"
     transform="translate(150.21155,265.74253)"
     id="g17">
    <g
       transform="matrix(2.000607,1.1550509,-1.1550509,2.000607,-114.54424,-361.12059)"
       id="g6">
      <rect
         height="6.6778841"
         ry="0.91743702"
         width="1.109652"
         x="133.26457"
         y="113.53527"
         id="rect2" />
      <rect
         height="6.6778841"
         ry="0.91743702"
         width="1.109652"
         x="145.20386"
         y="113.53527"
         id="rect3" />
      <rect
         height="14.584357"
         ry="1.550303"
         width="1.621357"
         x="135.81224"
         y="109.58203"
         id="rect4" />
      <rect
         height="14.584357"
         ry="1.550303"
         width="1.621357"
         x="142.14449"
         y="109.58203"
         id="rect5" />
      <rect
         height="20.411003"
         ry="2.1696701"
         width="1.834875"
         x="138.87161"
         y="106.66871"
         id="rect6" />
    </g>
    <g
       stroke-width="0.715877"
       id="g16">
      <g
         transform="matrix(1.3467588,0,0,1.3467588,-106.93441,30.218159)"
         id="g10">
        <path
           d="m 149.74457,0.19113632 q -2.17627,0 -4.03756,-0.801776 -1.83265,-0.83042902 -3.20713,-2.23354302 -1.34584,-1.431739 -2.11899,-3.37894 -0.74452,-1.947173 -0.74452,-4.2093413 0,-2.290823 0.74452,-4.180744 0.77315,-1.889893 2.11899,-3.207128 1.37448,-1.345835 3.20713,-2.061706 1.86129,-0.744523 4.03756,-0.744523 h 5.0684 q 2.26217,0 4.12346,0.744523 1.88989,0.744496 3.23576,2.090358 1.34583,1.345834 2.09036,3.235755 0.74449,1.861296 0.74449,4.123465 0,2.2621683 -0.77312,4.2093413 -0.74452,1.947201 -2.11901,3.37894 -1.34584,1.403114 -3.20713,2.23354302 -1.86127,0.801776 -4.09481,0.801776 z m 5.0684,-3.63665702 q 1.43176,0 2.63441,-0.515434 1.20268,-0.515432 2.06174,-1.403113 0.88768,-0.916334 1.37448,-2.176263 0.48681,-1.259957 0.48681,-2.7203223 0,-1.460394 -0.48681,-2.691697 -0.4868,-1.259956 -1.37448,-2.147638 -0.85906,-0.887681 -2.06174,-1.374488 -1.20265,-0.515432 -2.63441,-0.515432 h -5.0684 q -1.40314,0 -2.60579,0.515432 -1.17406,0.486807 -2.03311,1.374488 -0.85906,0.887682 -1.34584,2.118984 -0.4868,1.231304 -0.4868,2.720351 0,1.4603653 0.4868,2.7203223 0.48678,1.259929 1.34584,2.176263 0.85905,0.887681 2.03311,1.403113 1.20265,0.515434 2.60579,0.515434 z"
           id="path6" />
        <path
           d="M 167.95643,0.19113632 V -3.4455207 h 15.60612 q 1.46039,0 2.23351,-0.744497 0.80181,-0.744522 0.80181,-1.975826 0,-1.345861 -0.80181,-2.004452 -0.77312,-0.687243 -2.23351,-0.687243 h -9.56411 q -1.4604,0 -2.66307,-0.429529 -1.17405,-0.458153 -2.00445,-1.2313023 -0.80178,-0.801803 -1.25996,-1.889921 -0.42953,-1.088145 -0.42953,-2.376728 0,-1.259929 0.4009,-2.319421 0.42953,-1.088145 1.23131,-1.861295 0.83042,-0.773149 2.0331,-1.202676 1.20265,-0.458154 2.74895,-0.458154 h 14.9475 v 3.636657 h -14.9475 q -1.25993,0 -1.94717,0.687243 -0.68725,0.658618 -0.68725,1.861269 0,1.202675 0.68725,1.861294 0.71587,0.658591 1.91854,0.658591 h 9.53549 q 3.17847,0 4.81068,1.489047 1.66083,1.4890193 1.66083,4.5243373 0,1.317209 -0.40088,2.433981 -0.4009,1.11677 -1.20267,1.947173 -0.80178,0.80180302 -2.03311,1.25995502 -1.20265,0.458154 -2.83485,0.458154 z"
           id="path7" />
        <path
           d="M 193.35572,0.19113632 V -20.626565 h 3.63666 V 0.19113632 Z"
           id="path8" />
        <path
           d="M 204.17973,-15.042736 V 0.19113632 h -3.46485 V -18.708018 q 0,-1.002213 0.48678,-1.574925 0.51544,-0.601338 1.37449,-0.601338 0.4009,0 0.77315,0.171811 0.37225,0.171811 0.77315,0.572712 L 218.8123,-5.5645047 V -20.798376 h 3.46487 v 19.0709653 q 0,1.03086602 -0.51544,1.60357902 -0.48678,0.572685 -1.28859,0.572685 -0.88768,0 -1.66084,-0.77315 z"
           id="path9" />
        <path
           d="M 232.47127,0.19113632 V -16.989908 h -7.9033 v -3.636657 h 19.44324 v 3.636657 h -7.90327 V 0.19113632 Z"
           id="path10" />
      </g>
      <g
         transform="matrix(1.3467588,0,0,1.3467588,-108.04477,30.218159)"
         id="g15">
        <path
           d="M 140.46084,26.68477 V 5.867069 h 15.23379 q 1.51767,0 2.74897,0.3436219 1.25993,0.343622 2.14764,1.030866 0.88768,0.6585907 1.37448,1.6894568 0.48678,1.0022394 0.48678,2.3194473 0,1.002214 -0.22917,1.746736 -0.22917,0.744497 -0.62999,1.288583 -0.40087,0.515433 -0.94496,0.887682 -0.51542,0.343621 -1.08811,0.515432 1.43173,0.458153 2.34808,1.660831 0.91629,1.202676 0.91629,3.035319 0,1.431766 -0.48676,2.60579 -0.45817,1.145398 -1.34588,1.975828 -0.85904,0.830401 -2.11897,1.288581 -1.23131,0.429527 -2.74898,0.429527 z m 6.27104,-9.048703 v -3.063945 h 8.9914 q 1.54627,0 2.29079,-0.572711 0.74454,-0.572685 0.74454,-1.947174 0,-0.830428 -0.31501,-1.317208 -0.31499,-0.515432 -0.91633,-0.7731493 -0.57269,-0.2863435 -1.40311,-0.3722476 -0.80178,-0.086037 -1.80401,-0.086037 H 144.09748 V 23.076608 h 10.53765 q 0.9736,0 1.80402,-0.143134 0.8304,-0.143133 1.43174,-0.458151 0.60135,-0.343624 0.91633,-0.859057 0.34363,-0.515433 0.34363,-1.288581 0,-1.288556 -0.80177,-1.975801 -0.80181,-0.715897 -2.34809,-0.715897 z"
           id="path11" />
        <path
           d="m 184.61602,5.867069 h 3.55074 v 11.62584 q 0,2.405326 -0.62994,4.209343 -0.62997,1.775389 -1.97584,2.949412 -1.34584,1.174052 -3.49348,1.746737 -2.11897,0.572712 -5.15429,0.572712 -3.0067,0 -5.15433,-0.572712 -2.11898,-0.572685 -3.46485,-1.746737 -1.34583,-1.174023 -1.97582,-2.949412 -0.62997,-1.804017 -0.62997,-4.209343 V 5.867069 h 3.75119 v 11.62584 q 0,1.574925 0.37227,2.691697 0.40087,1.116772 1.25993,1.832641 0.88768,0.715871 2.34807,1.059492 1.4604,0.314996 3.60804,0.314996 2.14763,0 3.608,-0.314996 1.4604,-0.343621 2.31946,-1.059492 0.88767,-0.715869 1.25994,-1.832641 0.40088,-1.116772 0.40088,-2.691697 z"
           id="path12" />
        <path
           d="M 191.45981,26.68477 V 5.867069 h 12.05537 q 2.20488,0 4.06618,0.7444961 1.86126,0.7445236 3.20713,2.0903583 1.34584,1.3458616 2.09036,3.2357826 0.77315,1.861267 0.77315,4.123437 0,2.262169 -0.77315,4.209369 -0.74452,1.947172 -2.09036,3.37894 -1.34587,1.403114 -3.20713,2.233516 -1.8613,0.801802 -4.06618,0.801802 z m 12.05537,-3.636657 q 1.40312,0 2.57716,-0.515433 1.20267,-0.515433 2.06173,-1.403113 0.88768,-0.916334 1.37446,-2.176263 0.48681,-1.259957 0.48681,-2.720351 0,-1.460393 -0.48681,-2.691697 -0.48678,-1.259929 -1.37446,-2.147636 -0.85906,-0.887681 -2.06173,-1.374461 -1.17404,-0.5154326 -2.57716,-0.5154326 h -8.44734 V 23.048113 Z"
           id="path13" />
        <path
           d="M 216.63004,26.68477 V 5.867069 h 12.05537 q 2.20489,0 4.06618,0.7444961 1.86128,0.7445236 3.20713,2.0903583 1.34582,1.3458616 2.09036,3.2357826 0.77314,1.861267 0.77314,4.123437 0,2.262169 -0.77314,4.209369 -0.74454,1.947172 -2.09036,3.37894 -1.34585,1.403114 -3.20713,2.233516 -1.86129,0.801802 -4.06618,0.801802 z m 12.05537,-3.636657 q 1.4031,0 2.57712,-0.515433 1.2027,-0.515433 2.06175,-1.403113 0.88767,-0.916334 1.37448,-2.176263 0.48681,-1.259957 0.48681,-2.720351 0,-1.460393 -0.48681,-2.691697 -0.48681,-1.259929 -1.37448,-2.147636 -0.85905,-0.887681 -2.06175,-1.374461 -1.17402,-0.5154326 -2.57712,-0.5154326 h -8.44737 V 23.048113 Z"
           id="path14" />
        <path
           d="M 248.41493,26.68477 V 18.781491 L 237.36178,5.867069 h 4.89661 l 8.10371,9.592735 8.13238,-9.592735 h 4.63887 l -11.08179,12.914422 v 7.903279 z"
           id="path15" />
      </g>
    </g>
  </g>
  <path
     d="m 216.25711,396.16259 c 1.19733,0.32192 1.97921,1.53061 1.76391,2.72691 -0.0967,0.53749 -0.31684,0.94222 -0.73572,1.35272 l -0.36157,0.35439 0.60185,2.36734 c 0.33104,1.30207 0.60189,2.38306 0.60189,2.40228 0,0.0185 0.12077,0.0352 0.26843,0.0358 1.09307,0.005 2.31469,0.79757 2.8096,1.82649 0.35373,0.73545 0.44281,1.40894 0.28541,2.15841 -0.23476,1.11741 -1.09438,2.0875 -2.18548,2.46594 -0.74754,0.25916 -1.80496,0.19151 -2.50205,-0.16061 l -0.27799,-0.14024 -0.76785,0.80922 c -0.42237,0.44506 -1.66381,1.74812 -2.75879,2.89567 l -1.99092,2.08648 0.0877,0.16959 c 0.1529,0.29559 0.22734,0.80689 0.18379,1.26276 -0.10533,1.10229 -0.91509,1.9393 -2.05982,2.129 -0.67836,0.11247 -1.42364,-0.12265 -1.94988,-0.61482 -1.43298,-1.3404 -0.80486,-3.67401 1.10972,-4.12289 0.43849,-0.10292 0.81212,-0.0845 1.27881,0.0628 l 0.30487,0.0961 0.67993,-0.69922 c 0.73073,-0.75151 3.74385,-3.91076 4.41561,-4.62975 l 0.40828,-0.43701 -0.19583,-0.38861 c -0.1183,-0.23474 -0.23351,-0.58734 -0.29128,-0.8906 -0.16185,-0.8494 0.0247,-1.69565 0.53722,-2.45199 0.24834,-0.36555 0.64624,-0.74515 0.98441,-0.93885 0.11644,-0.0667 0.2122,-0.14671 0.21282,-0.17761 9.2e-4,-0.0311 -0.26935,-1.12825 -0.60047,-2.43816 l -0.60186,-2.38161 -0.28294,-0.0333 c -0.96418,-0.11429 -1.81011,-0.98551 -1.9728,-2.03204 -0.2607,-1.67638 1.35142,-3.10758 3.0007,-2.66415 z m -1.23618,1.1525 c -0.42796,0.2184 -0.69165,0.66813 -0.6961,1.18726 -0.009,1.1681 1.41302,1.7423 2.25596,0.91029 0.69023,-0.68131 0.41286,-1.8382 -0.52408,-2.18585 -0.27398,-0.10154 -0.74144,-0.0617 -1.03578,0.0883 z m 2.49362,9.67176 c -0.39528,0.17483 -0.70527,0.46369 -0.91726,0.85472 -0.1807,0.33321 -0.19398,0.39342 -0.19306,0.86691 10e-4,0.60302 0.12881,0.92389 0.52351,1.31892 0.36092,0.36114 0.78416,0.53611 1.31095,0.54197 0.3745,0.005 0.47454,-0.0185 0.80535,-0.181 0.45661,-0.22455 0.78479,-0.57647 0.95269,-1.0214 0.16742,-0.44376 0.13468,-1.05572 -0.0803,-1.49514 -0.42629,-0.87126 -1.52094,-1.27461 -2.40181,-0.88493 z m -8.98863,10.26085 c -0.58756,0.17452 -0.93798,0.64869 -0.93829,1.26964 -1.9e-4,0.39706 0.0939,0.64162 0.3558,0.92386 0.6093,0.65689 1.72076,0.49351 2.12212,-0.31192 0.39833,-0.79936 -0.0571,-1.74029 -0.92721,-1.91585 -0.2956,-0.0596 -0.29622,-0.0596 -0.61242,0.0342 z m -0.91658,-16.19663 c 0.54336,0.11091 1.04535,0.59268 1.19529,1.14691 0.0945,0.34981 0.0321,0.82901 -0.15228,1.16802 -0.28449,0.52263 -0.77487,0.8081 -1.3796,0.80306 -0.61906,-0.006 -1.09481,-0.28385 -1.38803,-0.81317 -0.14548,-0.26285 -0.1668,-0.35817 -0.1668,-0.75325 0,-0.39672 0.0216,-0.48994 0.16958,-0.75888 0.33861,-0.61206 1.03551,-0.93293 1.72178,-0.79269 z m 19.26734,1.91417 c 0.40507,0.18968 0.62428,0.39557 0.80352,0.75428 0.61165,1.224 -0.51975,2.60369 -1.8242,2.22448 -1.12115,-0.32594 -1.53008,-1.67829 -0.7689,-2.543 0.32544,-0.36975 0.60637,-0.50142 1.12492,-0.5273 0.33687,-0.0154 0.47346,0.003 0.66466,0.0917 z m -15.95747,0.93349 c 0.90716,0.52398 1.05221,0.71182 0.85069,1.10151 -0.0985,0.19088 -0.36855,0.31468 -0.57368,0.26317 -0.20912,-0.0526 -1.44332,-0.75804 -1.5632,-0.89364 -0.14301,-0.16184 -0.1288,-0.51107 0.0278,-0.69175 0.24865,-0.28633 0.43756,-0.25327 1.2579,0.22056 z m 12.92266,1.55461 c 0.21035,0.21035 0.22703,0.51401 0.038,0.70032 -0.22672,0.22363 -1.48218,0.887 -1.67878,0.887 -0.39015,0 -0.65144,-0.51066 -0.42598,-0.83254 0.12973,-0.18533 1.50426,-0.92004 1.72104,-0.92004 0.12416,0 0.23196,0.0516 0.34567,0.16526 z m -9.81811,0.22239 c 0.85277,0.48906 0.93771,0.56403 0.93771,0.82743 0,0.11333 -0.0278,0.25731 -0.0611,0.32001 -0.0883,0.16496 -0.39802,0.28078 -0.59651,0.22302 -0.17823,-0.0519 -1.41738,-0.75874 -1.53747,-0.87698 -0.0414,-0.0404 -0.089,-0.17792 -0.10595,-0.30487 -0.0278,-0.20326 -0.009,-0.25205 0.14115,-0.40353 0.26534,-0.26562 0.43652,-0.23537 1.22207,0.21528 z m 6.74571,6.69353 c 0.17328,0.1875 0.80665,1.37499 0.80665,1.5127 0,0.33734 -0.33981,0.61109 -0.66883,0.53884 -0.21931,-0.0482 -0.27552,-0.11831 -0.65851,-0.82191 -0.39978,-0.73452 -0.43725,-0.92751 -0.22826,-1.17585 0.12726,-0.15104 0.19181,-0.181 0.39182,-0.181 0.17575,0 0.27089,0.034 0.35716,0.12726 z m 1.40847,2.78008 c 0.14363,0.0636 0.24927,0.21344 0.55121,0.78257 0.41535,0.78288 0.45479,0.98288 0.23691,1.20074 -0.18409,0.1841 -0.40105,0.23135 -0.60952,0.1325 -0.23074,-0.10932 -0.91219,-1.33277 -0.9164,-1.64515 -0.006,-0.3818 0.38135,-0.62839 0.73777,-0.47072 z m 2.18267,2.48771 c 1.15377,0.41173 1.42086,1.91182 0.48327,2.71437 -0.62249,0.53282 -1.5209,0.48566 -2.11776,-0.11114 -0.6359,-0.63589 -0.63367,-1.56802 0.006,-2.20697 0.4396,-0.43963 1.07473,-0.59407 1.62917,-0.39621 z"
     fill="#b0bccf"
     stroke-width="0.213676"
     id="path17" />
  <path
     d="m 137.05192,400.96156 h 31.22083 v 31.22083 h -31.22083 z"
     fill="none"
     stroke="#b0bccf"
     stroke-width="2.427"
     id="path18" />
  <text
     style="font-size:25.4px;font-family:'Good Times';letter-spacing:-0.134937;word-spacing:-0.690562;fill:url(#b);stroke:#b0bccf;stroke-width:1.3"
     x="229.26233"
     y="418.78128"
     id="text21"><tspan
       fill="url(#b)"
       stroke-width="1.3"
       x="229.26233"
       y="418.78128"
       id="tspan21"
       style="fill:url(#b)"><tspan
         fill="url(#b)"
         stroke-width="1.3"
         id="tspan19"
         style="fill:url(#b)">i<tspan
   fill="url(#b)"
   stroke-width="1.3"
   id="tspan18"
   style="fill:url(#b)">c</tspan></tspan><tspan
         fill="url(#b)"
         stroke="none"
         stroke-width="1.3"
         id="tspan20"
         style="fill:url(#b)">GRAPH</tspan></tspan></text>
  <path
     d="m 233.84345,353.88056 c 1.19732,0.32192 1.9792,1.53061 1.76391,2.72691 -0.0967,0.53749 -0.31685,0.94222 -0.73573,1.35272 l -0.36158,0.35439 0.60186,2.36734 c 0.33103,1.30207 0.60189,2.38306 0.60189,2.40228 0,0.0185 0.12077,0.0352 0.26842,0.0358 1.09307,0.005 2.31471,0.79757 2.8096,1.82649 0.35373,0.73545 0.44282,1.40893 0.28541,2.1584 -0.23475,1.11741 -1.09437,2.0875 -2.18547,2.46594 -0.74753,0.25916 -1.80496,0.19151 -2.50205,-0.16061 l -0.278,-0.14024 -0.76785,0.80922 c -0.42237,0.44506 -1.6638,1.74812 -2.75879,2.89567 l -1.99091,2.08648 0.0877,0.16959 c 0.1529,0.29559 0.22734,0.80689 0.18379,1.26276 -0.10534,1.10229 -0.9151,1.9393 -2.05982,2.129 -0.67837,0.11247 -1.42364,-0.12265 -1.94989,-0.61482 -1.43297,-1.3404 -0.80485,-3.67401 1.10973,-4.12289 0.43849,-0.10292 0.81211,-0.0845 1.27881,0.0628 l 0.30486,0.0961 0.67995,-0.69922 c 0.73072,-0.75151 3.74385,-3.91076 4.41561,-4.62975 l 0.40828,-0.43701 -0.19583,-0.38861 c -0.11831,-0.23474 -0.23352,-0.58734 -0.29128,-0.8906 -0.16185,-0.8494 0.0247,-1.69564 0.53721,-2.45198 0.24834,-0.36555 0.64625,-0.74515 0.98441,-0.93885 0.11645,-0.0667 0.2122,-0.14671 0.21282,-0.17761 9.2e-4,-0.0311 -0.26934,-1.12825 -0.60047,-2.43816 l -0.60186,-2.38161 -0.28293,-0.0333 c -0.96418,-0.11429 -1.81012,-0.98551 -1.97281,-2.03204 -0.2607,-1.67638 1.35143,-3.10758 3.00071,-2.66415 z m -1.23618,1.1525 c -0.42796,0.2184 -0.69165,0.66813 -0.6961,1.18726 -0.009,1.1681 1.41301,1.7423 2.25596,0.91029 0.69023,-0.68131 0.41285,-1.8382 -0.52408,-2.18585 -0.27398,-0.10154 -0.74145,-0.0617 -1.03578,0.0883 z m 2.49361,9.67176 c -0.39528,0.17483 -0.70527,0.46369 -0.91726,0.85472 -0.1807,0.3332 -0.19398,0.39341 -0.19305,0.8669 0.001,0.60302 0.1288,0.92389 0.5235,1.31892 0.36093,0.36114 0.78416,0.53611 1.31096,0.54197 0.37449,0.005 0.47454,-0.0185 0.80535,-0.181 0.45659,-0.22455 0.78478,-0.57647 0.95269,-1.0214 0.16741,-0.44376 0.13467,-1.05572 -0.0803,-1.49513 -0.42629,-0.87126 -1.52094,-1.27461 -2.40181,-0.88493 z m -8.98863,10.26084 c -0.58755,0.17452 -0.93798,0.64869 -0.93829,1.26964 -1.8e-4,0.39706 0.0939,0.64162 0.3558,0.92386 0.60931,0.65689 1.72076,0.49351 2.12212,-0.31192 0.39834,-0.79936 -0.0571,-1.74029 -0.9272,-1.91585 -0.2956,-0.0596 -0.29622,-0.0596 -0.61243,0.0342 z m -0.91658,-16.19662 c 0.54336,0.11091 1.04536,0.59268 1.19529,1.14691 0.0945,0.34981 0.0321,0.82901 -0.15228,1.16802 -0.28448,0.52263 -0.77486,0.8081 -1.3796,0.80306 -0.61906,-0.006 -1.0948,-0.28385 -1.38802,-0.81317 -0.14549,-0.26285 -0.1668,-0.35817 -0.1668,-0.75325 0,-0.39672 0.0216,-0.48994 0.16958,-0.75888 0.33859,-0.61206 1.03549,-0.93293 1.72177,-0.79269 z m 19.26734,1.91417 c 0.40507,0.18968 0.62428,0.39557 0.80353,0.75428 0.61165,1.224 -0.51976,2.60369 -1.8242,2.22448 -1.12116,-0.32594 -1.53009,-1.67829 -0.76891,-2.543 0.32544,-0.36975 0.60637,-0.50142 1.12493,-0.5273 0.33686,-0.0154 0.47345,0.003 0.66465,0.0917 z m -15.95746,0.93349 c 0.90715,0.52398 1.05221,0.71182 0.85069,1.10151 -0.0985,0.19088 -0.36856,0.31468 -0.57369,0.26317 -0.20911,-0.0526 -1.44332,-0.75804 -1.56319,-0.89364 -0.14302,-0.16184 -0.12881,-0.51107 0.0278,-0.69175 0.24865,-0.28633 0.43756,-0.25327 1.25789,0.22056 z m 12.92265,1.55461 c 0.21035,0.21035 0.22703,0.51401 0.038,0.70032 -0.22672,0.22363 -1.48217,0.887 -1.67878,0.887 -0.39015,0 -0.65143,-0.51066 -0.42598,-0.83254 0.12973,-0.18533 1.50426,-0.92004 1.72104,-0.92004 0.12417,0 0.23197,0.0516 0.34567,0.16526 z m -9.8181,0.22239 c 0.85276,0.48906 0.93771,0.56403 0.93771,0.82743 0,0.11333 -0.0278,0.25731 -0.0611,0.32001 -0.0883,0.16496 -0.39803,0.28078 -0.59652,0.22302 -0.17822,-0.0519 -1.41737,-0.75874 -1.53746,-0.87698 -0.0414,-0.0404 -0.0889,-0.17792 -0.10596,-0.30487 -0.0278,-0.20326 -0.009,-0.25205 0.14116,-0.40353 0.26533,-0.26562 0.43651,-0.23537 1.22207,0.21528 z m 6.7457,6.69352 c 0.17329,0.1875 0.80665,1.37499 0.80665,1.5127 0,0.33734 -0.3398,0.61109 -0.66883,0.53884 -0.2193,-0.0482 -0.27552,-0.11831 -0.6585,-0.82191 -0.39979,-0.73452 -0.43726,-0.92751 -0.22827,-1.17585 0.12726,-0.15104 0.19182,-0.181 0.39182,-0.181 0.17575,0 0.27089,0.034 0.35716,0.12726 z m 1.40848,2.78008 c 0.14363,0.0636 0.24927,0.21344 0.5512,0.78257 0.41536,0.78288 0.4548,0.98288 0.23691,1.20074 -0.18409,0.1841 -0.40105,0.23135 -0.60952,0.1325 -0.23073,-0.10932 -0.91219,-1.33277 -0.91639,-1.64515 -0.006,-0.3818 0.38135,-0.62839 0.73777,-0.47072 z m 2.18266,2.48771 c 1.15377,0.41173 1.42086,1.91182 0.48328,2.71437 -0.62249,0.53282 -1.52091,0.48566 -2.11777,-0.11114 -0.63589,-0.63589 -0.63367,-1.56802 0.006,-2.20697 0.4396,-0.43963 1.07473,-0.59407 1.62917,-0.39621 z"
     fill="#b0bccf"
     stroke-width="0.213676"
     id="path21" />
  <text
     style="font-size:25.4px;font-family:'Good Times';letter-spacing:-0.134937;word-spacing:-0.690562;fill:url(#c);stroke:#b0bccf;stroke-width:1.3"
     x="246.84866"
     y="376.49924"
     id="text25"><tspan
       fill="url(#c)"
       stroke-width="1.3"
       x="246.84866"
       y="376.49924"
       id="tspan25"
       style="fill:url(#c)"><tspan
         fill="url(#c)"
         stroke-width="1.3"
         id="tspan23"
         style="fill:url(#c)">i<tspan
   fill="url(#c)"
   stroke-width="1.3"
   id="tspan22"
   style="fill:url(#c)">c</tspan></tspan><tspan
         fill="url(#c)"
         stroke="none"
         stroke-width="1.3"
         id="tspan24"
         style="fill:url(#c)">GRAPH</tspan></tspan></text>
  <path
     d="m 160.08378,-106.54659 c -1.65246,0 -3.18532,-0.3044 -4.59861,-0.91319 -1.39153,-0.63054 -2.60913,-1.47851 -3.65277,-2.54391 -1.02193,-1.08714 -1.8264,-2.36996 -2.41346,-3.84847 -0.56531,-1.47851 -0.84797,-3.0766 -0.84797,-4.79428 0,-1.73943 0.28266,-3.32665 0.84797,-4.76167 0.58706,-1.43502 1.39153,-2.65262 2.41346,-3.65279 1.04364,-1.02191 2.26124,-1.80465 3.65277,-2.34822 1.41329,-0.56531 2.94615,-0.84797 4.59861,-0.84797 h 12.84998 v 4.142 h -12.84998 c -1.06539,0 -2.0547,0.19569 -2.96789,0.58706 -0.89146,0.36963 -1.66333,0.89145 -2.31561,1.56548 -0.65227,0.67402 -1.16323,1.47851 -1.53287,2.41345 -0.36962,0.93494 -0.55443,1.96772 -0.55443,3.09835 0,1.10888 0.18481,2.14166 0.55443,3.09834 0.36964,0.95668 0.8806,1.78291 1.53287,2.47868 0.65228,0.67403 1.42415,1.20673 2.31561,1.59809 0.91319,0.39138 1.9025,0.58706 2.96789,0.58706 h 10.143 v -6.16408 h -10.69745 v -3.48971 h 14.87206 v 13.79579 z m 39.97478,0 -6.001,-6.58806 h -8.87106 v -3.65279 h 9.8821 c 1.50025,0 2.63087,-0.40224 3.39187,-1.20671 0.761,-0.82624 1.14149,-2.01122 1.14149,-3.55495 0,-1.54374 -0.40223,-2.68524 -1.2067,-3.42449 -0.78274,-0.761 -1.89162,-1.1415 -3.32665,-1.1415 H 182.1534 v 19.5685 h -4.10939 v -23.7105 h 17.0246 c 1.34805,0 2.55476,0.20656 3.62018,0.61966 1.06539,0.39137 1.96772,0.96756 2.70697,1.72856 0.73925,0.73925 1.30457,1.64158 1.69592,2.70697 0.39137,1.06541 0.58707,2.26126 0.58707,3.58756 0,1.9786 -0.43486,3.64192 -1.30457,4.98998 -0.84798,1.3263 -2.04382,2.28298 -3.58755,2.87004 l 7.1425,7.20773 z m 32.57136,0 -3.55494,-5.9684 h -15.54795 l 1.95684,-3.35925 h 11.60163 l -5.28349,-8.87106 -10.76267,18.19871 h -4.72905 l 13.63271,-22.69947 c 0.23918,-0.41311 0.52184,-0.73925 0.84798,-0.97842 0.32614,-0.23917 0.71751,-0.35876 1.1741,-0.35876 0.45661,0 0.8371,0.11959 1.14151,0.35876 0.32614,0.23917 0.60879,0.56531 0.84796,0.97842 l 13.66533,22.69947 z m 14.50312,-6.58806 v -4.01154 h 9.52333 c 1.45677,0 2.5874,-0.41312 3.39188,-1.23934 0.82622,-0.82622 1.23934,-1.91336 1.23934,-3.26141 0,-1.3698 -0.41311,-2.45694 -1.23934,-3.26142 -0.80448,-0.80449 -1.93511,-1.20673 -3.39188,-1.20673 h -12.55646 v 19.56851 h -4.10939 v -23.71051 h 16.66585 c 1.3698,0 2.5874,0.20656 3.6528,0.61967 1.08713,0.39137 2.00033,0.95669 2.73957,1.69594 0.73927,0.71751 1.30458,1.5981 1.69595,2.64175 0.39137,1.04365 0.58706,2.21776 0.58706,3.52233 0,1.28283 -0.19569,2.45693 -0.58706,3.52233 -0.39137,1.04365 -0.95668,1.94598 -1.69595,2.70698 -0.73924,0.76099 -1.65244,1.35892 -2.73957,1.79377 -1.0654,0.41312 -2.283,0.61967 -3.6528,0.61967 z m 40.04003,6.6859 v -10.30607 h -16.58472 v -3.6854 h 16.58472 v -9.81687 h 4.142 v 23.80835 z m -19.07929,0 v -23.80834 h 4.142 v 23.80834 z"
     fill="#b0bccf"
     stroke-width="0.571284"
     id="path25" />
  <g
     fill="#b0bccf"
     transform="translate(-4.697965,-3.4709701)"
     id="g30">
    <path
       d="m 15.247264,28.192064 c 0.876433,0.235641 1.448765,1.120397 1.291169,1.996079 -0.07077,0.393442 -0.231932,0.6897 -0.538548,0.990185 l -0.264671,0.25941 0.440556,1.73288 c 0.242313,0.953107 0.44058,1.744383 0.44058,1.758452 0,0.01353 0.0884,0.02575 0.196482,0.02621 0.800124,0.0037 1.694351,0.583816 2.056612,1.336982 0.25893,0.538343 0.324137,1.031335 0.208919,1.57994 -0.171839,0.817939 -0.80108,1.528039 -1.599756,1.805054 -0.547187,0.189702 -1.32122,0.140184 -1.831486,-0.117565 l -0.203488,-0.102654 -0.562064,0.592344 c -0.30917,0.325781 -1.217891,1.279612 -2.019417,2.119612 l -1.457332,1.527291 0.06421,0.124138 c 0.111918,0.216372 0.16641,0.590639 0.134529,0.924333 -0.07711,0.80687 -0.669845,1.419555 -1.507777,1.558413 -0.4965601,0.08233 -1.0420952,-0.08978 -1.427306,-0.450044 -1.0489236,-0.981163 -0.5891479,-2.689351 0.8123175,-3.017928 0.3209722,-0.07534 0.5944605,-0.06185 0.9360775,0.04597 l 0.22316,0.07034 0.497718,-0.511827 c 0.534884,-0.550093 2.740473,-2.862647 3.232197,-3.38894 l 0.298859,-0.31989 -0.14335,-0.284457 c -0.0866,-0.171833 -0.170929,-0.429932 -0.213213,-0.651917 -0.118477,-0.621755 0.01809,-1.241204 0.393237,-1.794839 0.181784,-0.267583 0.473045,-0.545446 0.720586,-0.687234 0.08524,-0.04883 0.155326,-0.107391 0.155781,-0.130008 5.99e-4,-0.02276 -0.197161,-0.825873 -0.439541,-1.784718 L 14.70175,31.65435 14.494638,31.62997 c -0.70577,-0.08366 -1.32499,-0.721387 -1.444079,-1.487443 -0.19083,-1.227099 0.989235,-2.274727 2.196499,-1.950144 z m -0.904878,0.843621 c -0.313261,0.159866 -0.506285,0.489069 -0.509539,0.869068 -0.0068,0.855041 1.034317,1.275353 1.651347,0.666325 0.505246,-0.498715 0.30221,-1.345549 -0.383623,-1.600029 -0.200554,-0.07433 -0.542733,-0.04517 -0.758185,0.06464 z m 1.825312,7.07967 c -0.289342,0.127973 -0.516257,0.339419 -0.671427,0.625648 -0.132272,0.243908 -0.14199,0.287983 -0.141315,0.634573 6e-4,0.441408 0.09428,0.676285 0.383197,0.965443 0.264198,0.264351 0.574,0.39243 0.959615,0.396717 0.274123,0.0037 0.34736,-0.01353 0.589514,-0.132489 0.33422,-0.164369 0.574453,-0.421974 0.697359,-0.74766 0.122548,-0.324828 0.09858,-0.77278 -0.05879,-1.094434 -0.312038,-0.637756 -1.113317,-0.933006 -1.758109,-0.647761 z m -6.5796208,7.51088 c -0.4300889,0.127747 -0.6865995,0.474838 -0.6868255,0.929368 -1.346e-4,0.290643 0.068742,0.469662 0.2604458,0.67626 0.4460062,0.480839 1.2595825,0.361246 1.5533785,-0.228323 0.291578,-0.585127 -0.04182,-1.273884 -0.678708,-1.402391 -0.2163809,-0.04363 -0.2168301,-0.04363 -0.4482908,0.02502 z M 8.9171447,31.770399 c 0.3977367,0.08119 0.7651942,0.433837 0.8749425,0.839533 0.069197,0.256059 0.023523,0.606829 -0.1114653,0.854983 C 9.472383,33.847477 9.1134255,34.056437 8.670762,34.05275 8.2176129,34.048349 7.8693731,33.844972 7.6547366,33.457516 7.5482447,33.265112 7.5326419,33.195338 7.5326419,32.906139 c 0,-0.290396 0.015824,-0.358634 0.1241296,-0.555495 0.2478522,-0.448022 0.7579778,-0.682899 1.2603302,-0.580245 z m 14.1035743,1.40116 c 0.296506,0.138846 0.456971,0.289556 0.588176,0.552128 0.447726,0.895963 -0.38046,1.905889 -1.335305,1.628307 -0.820676,-0.238586 -1.120012,-1.228498 -0.562831,-1.861461 0.238217,-0.270653 0.443859,-0.367036 0.823436,-0.385978 0.246584,-0.01127 0.346568,0.0021 0.486524,0.06712 z m -11.680767,0.683312 c 0.664037,0.383549 0.770214,0.521048 0.622703,0.806299 -0.07213,0.139722 -0.269783,0.230342 -0.419939,0.192638 -0.153069,-0.03851 -1.056502,-0.55488 -1.144249,-0.65414 -0.104684,-0.118466 -0.09428,-0.3741 0.02035,-0.506356 0.182009,-0.209592 0.320293,-0.185392 0.920774,0.161449 z m 9.459306,1.137964 c 0.153973,0.153975 0.166181,0.376249 0.0278,0.512627 -0.165957,0.163697 -1.084944,0.649283 -1.228859,0.649283 -0.285587,0 -0.476844,-0.373802 -0.311815,-0.609415 0.09496,-0.13566 1.101112,-0.673466 1.25979,-0.673466 0.09089,0 0.169798,0.03777 0.253028,0.120971 z m -7.186794,0.162786 c 0.624222,0.357989 0.686398,0.412867 0.686398,0.605677 0,0.08296 -0.02035,0.188346 -0.04476,0.234242 -0.06467,0.120753 -0.291352,0.205531 -0.436645,0.163251 -0.130463,-0.03799 -1.037509,-0.555391 -1.125416,-0.641945 -0.03031,-0.02957 -0.06511,-0.130237 -0.07756,-0.22316 -0.02034,-0.148788 -0.0068,-0.1845 0.103327,-0.295382 0.194221,-0.194433 0.319524,-0.172292 0.894544,0.15758 z m 4.937813,4.899623 c 0.126842,0.137252 0.590464,1.006484 0.590464,1.10729 0,0.24693 -0.248732,0.447311 -0.489575,0.394429 -0.160533,-0.03529 -0.201683,-0.0866 -0.482024,-0.601638 -0.292642,-0.537661 -0.320069,-0.678931 -0.167089,-0.860712 0.09315,-0.110561 0.140408,-0.132491 0.286806,-0.132491 0.128655,0 0.198292,0.02487 0.261442,0.09315 z m 1.030999,2.035002 c 0.105135,0.04655 0.182462,0.15624 0.403478,0.57284 0.304034,0.573062 0.332908,0.719461 0.173418,0.878932 -0.134758,0.134762 -0.29357,0.169347 -0.446165,0.09699 -0.168897,-0.08002 -0.667721,-0.975578 -0.670795,-1.204238 -0.0046,-0.279477 0.279144,-0.459977 0.540042,-0.344565 z m 1.597694,1.820989 c 0.844552,0.301386 1.04006,1.399443 0.353757,1.986904 -0.45566,0.39002 -1.113299,0.355499 -1.550192,-0.08135 -0.465474,-0.465468 -0.463845,-1.147784 0.0046,-1.615491 0.321789,-0.321806 0.786694,-0.434854 1.192543,-0.29002 z"
       stroke-width="0.15641"
       id="path26"
       style="fill:#2b3bff;fill-opacity:1" />
    <g
       transform="matrix(0.26070038,0,0,0.26070038,6.3078807,26.110715)"
       id="g29"
       style="stroke:none;stroke-opacity:1;fill:#2b3bff;fill-opacity:1">
      <g
         transform="matrix(1.8224234,0,0,1.8224234,-68.586524,-59.923346)"
         id="g28"
         style="stroke:none;stroke-opacity:1;fill:#2b3bff;fill-opacity:1">
        <path
           d="m 108.86906,44.633785 c -1.92434,0 -3.7096,0.329148 -5.35541,0.987459 -1.62051,0.633017 -3.0382,1.544208 -4.253571,2.734257 -1.19005,1.164725 -2.126862,2.583067 -2.810509,4.254205 -0.658325,1.671128 -0.987458,3.519147 -0.987458,5.544763 0,2.000305 0.329133,3.861107 0.987458,5.58289 0.683647,1.721765 1.620459,3.215674 2.810509,4.48169 1.215371,1.240693 2.633061,2.228732 4.253571,2.963011 1.64581,0.708975 3.43135,1.096336 5.35541,1.063075 l 5.6693,-0.09786 v -4.823551 l -5.6693,0.09786 c -1.2407,0 -2.39266,-0.227954 -3.45611,-0.683722 -1.03813,-0.455759 -1.93716,-1.075626 -2.69677,-1.86054 -0.75961,-0.810259 -1.35447,-1.77267 -1.78492,-2.886761 -0.43044,-1.114098 -0.64559,-2.316635 -0.64559,-3.607971 0,-1.316652 0.21515,-2.519843 0.64559,-3.608609 0.43045,-1.088777 1.02531,-2.025574 1.78492,-2.810509 0.75961,-0.784923 1.65864,-1.392603 2.69677,-1.823048 1.06345,-0.455769 2.21559,-0.704533 3.45611,-0.683088 l 5.6693,0.09786 v -4.823554 z m 10.72224,0.185546 v 4.823551 l 4.24214,0.07307 v -4.823551 z m 4.24214,22.343633 -4.24214,0.07308 v 4.823551 l 4.24214,-0.07308 z"
           fill="#b0bccf"
           stroke="#b0bccf"
           stroke-width="1.22963"
           id="path27"
           style="stroke:none;stroke-opacity:1;fill:#2b3bff;fill-opacity:1" />
        <path
           d="M 83.39564,72.86192 V 43.627886 h 5.106903 V 72.86192 Z"
           stroke-width="0.692748"
           id="path28"
           style="stroke:none;stroke-opacity:1;fill:#2b3bff;fill-opacity:1" />
      </g>
      <path
         d="m 192.22345,72.48702 c -3.58109,0 -6.90299,-0.659674 -9.96577,-1.979 -3.01563,-1.366462 -5.65432,-3.204121 -7.91602,-5.512979 -2.21466,-2.355972 -3.95805,-5.136007 -5.23028,-8.340127 -1.2251,-3.204122 -1.83766,-6.667387 -1.83766,-10.38982 0,-3.769567 0.61256,-7.209276 1.83766,-10.319148 1.27223,-3.109873 3.01562,-5.748567 5.23028,-7.916064 2.2617,-2.21461 4.90039,-3.910907 7.91602,-5.088893 3.06278,-1.2251 6.38468,-1.83766 9.96577,-1.83766 h 27.84756 v 8.976245 h -27.84756 c -2.30883,0 -4.4528,0.424085 -6.4318,1.272234 -1.9319,0.801035 -3.60465,1.931885 -5.01822,3.392596 -1.41354,1.460688 -2.52087,3.20412 -3.32192,5.230254 -0.80101,2.026135 -1.20152,4.264301 -1.20152,6.714522 0,2.403086 0.40051,4.641252 1.20152,6.7145 0.80105,2.073247 1.90838,3.863793 3.32192,5.371617 1.41357,1.460709 3.08632,2.615138 5.01822,3.463266 1.979,0.84817 4.12297,1.272233 6.4318,1.272233 h 21.98119 V 50.152445 h -23.18275 v -7.562648 h 32.22966 v 29.897244 z"
         stroke-width="1.23805"
         id="path29"
         style="stroke:none;stroke-opacity:1;fill:#2b3bff;fill-opacity:1" />
    </g>
  </g>
  <path
     d="m 48.054683,215.40426 h 51.14959 v 39.91076 c 0,33.58458 -51.84829,32.48924 -51.84829,0 z"
     fill="none"
     stroke="#b0bccf"
     stroke-width="8.39786"
     id="path30" />
</svg>
