<?xml version="1.0" encoding="UTF-8" standalone="no"?>
<svg
   height="69.776581mm"
   viewBox="0 0 218.55358 69.776582"
   width="218.55359mm"
   version="1.1"
   id="svg30"
   sodipodi:docname="OSINTBuddy.svg"
   inkscape:version="1.3.2 (091e20ef0f, 2023-11-25, custom)"
   xmlns:inkscape="http://www.inkscape.org/namespaces/inkscape"
   xmlns:sodipodi="http://sodipodi.sourceforge.net/DTD/sodipodi-0.dtd"
   xmlns:xlink="http://www.w3.org/1999/xlink"
   xmlns="http://www.w3.org/2000/svg"
   xmlns:svg="http://www.w3.org/2000/svg">
  <defs
     id="defs30" />
  <sodipodi:namedview
     id="namedview30"
     pagecolor="#ffffff"
     bordercolor="#000000"
     borderopacity="0.25"
     inkscape:showpageshadow="2"
     inkscape:pageopacity="0.0"
     inkscape:pagecheckerboard="0"
     inkscape:deskcolor="#d1d1d1"
     inkscape:document-units="mm"
     inkscape:zoom="0.93338092"
     inkscape:cx="413.01466"
     inkscape:cy="131.779"
     inkscape:window-width="1920"
     inkscape:window-height="1024"
     inkscape:window-x="1920"
     inkscape:window-y="0"
     inkscape:window-maximized="1"
     inkscape:current-layer="svg30" />
  <linearGradient
     id="a">
    <stop
       offset="0"
       stop-color="#b0bccf"
       id="stop1" />
    <stop
       offset="1"
       stop-color="#b0bccf"
       stop-opacity="0"
       id="stop2" />
  </linearGradient>
  <linearGradient
     id="b"
     gradientUnits="userSpaceOnUse"
     x1="230.540335"
     x2="369.067145"
     xlink:href="#a"
     y1="409.54838"
     y2="409.54838" />
  <linearGradient
     id="c"
     gradientUnits="userSpaceOnUse"
     x1="248.126665"
     x2="386.653475"
     xlink:href="#a"
     y1="367.26637"
     y2="367.26637" />
  <path
     d="m155.10919 269.94146h51.14959v39.91076c0 33.58458-51.84829 32.48924-51.84829 0z"
     fill="none"
     stroke="#b0bccf"
     stroke-width="8.39786"
     id="path2" />
  <g
     fill="#b0bccf"
     transform="translate(150.21155 265.74253)"
     id="g17">
    <g
       transform="matrix(2.000607 1.1550509 -1.1550509 2.000607 -114.54424 -361.12059)"
       id="g6">
      <rect
         height="6.677884"
         ry=".917437"
         width="1.109652"
         x="133.26457"
         y="113.53527"
         id="rect2" />
      <rect
         height="6.677884"
         ry=".917437"
         width="1.109652"
         x="145.20386"
         y="113.53527"
         id="rect3" />
      <rect
         height="14.584357"
         ry="1.550303"
         width="1.621357"
         x="135.81224"
         y="109.58203"
         id="rect4" />
      <rect
         height="14.584357"
         ry="1.550303"
         width="1.621357"
         x="142.14449"
         y="109.58203"
         id="rect5" />
      <rect
         height="20.411003"
         ry="2.16967"
         width="1.834875"
         x="138.87161"
         y="106.66871"
         id="rect6" />
    </g>
    <g
       stroke-width=".715877"
       id="g16">
      <g
         transform="matrix(1.3467588 0 0 1.3467588 -106.93441 30.218159)"
         id="g10">
        <path
           d="m149.74457.19113632q-2.17627 0-4.03756-.801776-1.83265-.83042902-3.20713-2.23354302-1.34584-1.431739-2.11899-3.37894-.74452-1.947173-.74452-4.2093413 0-2.290823.74452-4.180744.77315-1.889893 2.11899-3.207128 1.37448-1.345835 3.20713-2.061706 1.86129-.744523 4.03756-.744523h5.0684q2.26217 0 4.12346.744523 1.88989.744496 3.23576 2.090358 1.34583 1.345834 2.09036 3.235755.74449 1.861296.74449 4.123465 0 2.2621683-.77312 4.2093413-.74452 1.947201-2.11901 3.37894-1.34584 1.403114-3.20713 2.23354302-1.86127.801776-4.09481.801776zm5.0684-3.63665702q1.43176 0 2.63441-.515434 1.20268-.515432 2.06174-1.403113.88768-.916334 1.37448-2.176263.48681-1.259957.48681-2.7203223 0-1.460394-.48681-2.691697-.4868-1.259956-1.37448-2.147638-.85906-.887681-2.06174-1.374488-1.20265-.515432-2.63441-.515432h-5.0684q-1.40314 0-2.60579.515432-1.17406.486807-2.03311 1.374488-.85906.887682-1.34584 2.118984-.4868 1.231304-.4868 2.720351 0 1.4603653.4868 2.7203223.48678 1.259929 1.34584 2.176263.85905.887681 2.03311 1.403113 1.20265.515434 2.60579.515434z"
           id="path6" />
        <path
           d="m167.95643.19113632v-3.63665702h15.60612q1.46039 0 2.23351-.744497.80181-.744522.80181-1.975826 0-1.345861-.80181-2.004452-.77312-.687243-2.23351-.687243h-9.56411q-1.4604 0-2.66307-.429529-1.17405-.458153-2.00445-1.2313023-.80178-.801803-1.25996-1.889921-.42953-1.088145-.42953-2.376728 0-1.259929.4009-2.319421.42953-1.088145 1.23131-1.861295.83042-.773149 2.0331-1.202676 1.20265-.458154 2.74895-.458154h14.9475v3.636657h-14.9475q-1.25993 0-1.94717.687243-.68725.658618-.68725 1.861269 0 1.202675.68725 1.861294.71587.658591 1.91854.658591h9.53549q3.17847 0 4.81068 1.489047 1.66083 1.4890193 1.66083 4.5243373 0 1.317209-.40088 2.433981-.4009 1.11677-1.20267 1.947173-.80178.80180302-2.03311 1.25995502-1.20265.458154-2.83485.458154z"
           id="path7" />
        <path
           d="m193.35572.19113632v-20.81770132h3.63666v20.81770132z"
           id="path8" />
        <path
           d="m204.17973-15.042736v15.23387232h-3.46485v-18.89915432q0-1.002213.48678-1.574925.51544-.601338 1.37449-.601338.4009 0 .77315.171811.37225.171811.77315.572712l14.68985 14.5752533v-15.2338713h3.46487v19.0709653q0 1.03086602-.51544 1.60357902-.48678.572685-1.28859.572685-.88768 0-1.66084-.77315z"
           id="path9" />
        <path
           d="m232.47127.19113632v-17.18104432h-7.9033v-3.636657h19.44324v3.636657h-7.90327v17.18104432z"
           id="path10" />
      </g>
      <g
         transform="matrix(1.3467588 0 0 1.3467588 -108.04477 30.218159)"
         id="g15">
        <path
           d="m140.46084 26.68477v-20.817701h15.23379q1.51767 0 2.74897.3436219 1.25993.343622 2.14764 1.030866.88768.6585907 1.37448 1.6894568.48678 1.0022394.48678 2.3194473 0 1.002214-.22917 1.746736-.22917.744497-.62999 1.288583-.40087.515433-.94496.887682-.51542.343621-1.08811.515432 1.43173.458153 2.34808 1.660831.91629 1.202676.91629 3.035319 0 1.431766-.48676 2.60579-.45817 1.145398-1.34588 1.975828-.85904.830401-2.11897 1.288581-1.23131.429527-2.74898.429527zm6.27104-9.048703v-3.063945h8.9914q1.54627 0 2.29079-.572711.74454-.572685.74454-1.947174 0-.830428-.31501-1.317208-.31499-.515432-.91633-.7731493-.57269-.2863435-1.40311-.3722476-.80178-.086037-1.80401-.086037h-10.22267v13.5730129h10.53765q.9736 0 1.80402-.143134.8304-.143133 1.43174-.458151.60135-.343624.91633-.859057.34363-.515433.34363-1.288581 0-1.288556-.80177-1.975801-.80181-.715897-2.34809-.715897z"
           id="path11" />
        <path
           d="m184.61602 5.867069h3.55074v11.62584q0 2.405326-.62994 4.209343-.62997 1.775389-1.97584 2.949412-1.34584 1.174052-3.49348 1.746737-2.11897.572712-5.15429.572712-3.0067 0-5.15433-.572712-2.11898-.572685-3.46485-1.746737-1.34583-1.174023-1.97582-2.949412-.62997-1.804017-.62997-4.209343v-11.62584h3.75119v11.62584q0 1.574925.37227 2.691697.40087 1.116772 1.25993 1.832641.88768.715871 2.34807 1.059492 1.4604.314996 3.60804.314996 2.14763 0 3.608-.314996 1.4604-.343621 2.31946-1.059492.88767-.715869 1.25994-1.832641.40088-1.116772.40088-2.691697z"
           id="path12" />
        <path
           d="m191.45981 26.68477v-20.817701h12.05537q2.20488 0 4.06618.7444961 1.86126.7445236 3.20713 2.0903583 1.34584 1.3458616 2.09036 3.2357826.77315 1.861267.77315 4.123437 0 2.262169-.77315 4.209369-.74452 1.947172-2.09036 3.37894-1.34587 1.403114-3.20713 2.233516-1.8613.801802-4.06618.801802zm12.05537-3.636657q1.40312 0 2.57716-.515433 1.20267-.515433 2.06173-1.403113.88768-.916334 1.37446-2.176263.48681-1.259957.48681-2.720351 0-1.460393-.48681-2.691697-.48678-1.259929-1.37446-2.147636-.85906-.887681-2.06173-1.374461-1.17404-.5154326-2.57716-.5154326h-8.44734v13.5443866z"
           id="path13" />
        <path
           d="m216.63004 26.68477v-20.817701h12.05537q2.20489 0 4.06618.7444961 1.86128.7445236 3.20713 2.0903583 1.34582 1.3458616 2.09036 3.2357826.77314 1.861267.77314 4.123437 0 2.262169-.77314 4.209369-.74454 1.947172-2.09036 3.37894-1.34585 1.403114-3.20713 2.233516-1.86129.801802-4.06618.801802zm12.05537-3.636657q1.4031 0 2.57712-.515433 1.2027-.515433 2.06175-1.403113.88767-.916334 1.37448-2.176263.48681-1.259957.48681-2.720351 0-1.460393-.48681-2.691697-.48681-1.259929-1.37448-2.147636-.85905-.887681-2.06175-1.374461-1.17402-.5154326-2.57712-.5154326h-8.44737v13.5443866z"
           id="path14" />
        <path
           d="m248.41493 26.68477v-7.903279l-11.05315-12.914422h4.89661l8.10371 9.592735 8.13238-9.592735h4.63887l-11.08179 12.914422v7.903279z"
           id="path15" />
      </g>
    </g>
  </g>
  <path
     d="m216.25711 396.16259c1.19733.32192 1.97921 1.53061 1.76391 2.72691-.0967.53749-.31684.94222-.73572 1.35272l-.36157.35439.60185 2.36734c.33104 1.30207.60189 2.38306.60189 2.40228 0 .0185.12077.0352.26843.0358 1.09307.005 2.31469.79757 2.8096 1.82649.35373.73545.44281 1.40894.28541 2.15841-.23476 1.11741-1.09438 2.0875-2.18548 2.46594-.74754.25916-1.80496.19151-2.50205-.16061l-.27799-.14024-.76785.80922c-.42237.44506-1.66381 1.74812-2.75879 2.89567l-1.99092 2.08648.0877.16959c.1529.29559.22734.80689.18379 1.26276-.10533 1.10229-.91509 1.9393-2.05982 2.129-.67836.11247-1.42364-.12265-1.94988-.61482-1.43298-1.3404-.80486-3.67401 1.10972-4.12289.43849-.10292.81212-.0845 1.27881.0628l.30487.0961.67993-.69922c.73073-.75151 3.74385-3.91076 4.41561-4.62975l.40828-.43701-.19583-.38861c-.1183-.23474-.23351-.58734-.29128-.8906-.16185-.8494.0247-1.69565.53722-2.45199.24834-.36555.64624-.74515.98441-.93885.11644-.0667.2122-.14671.21282-.17761.00092-.0311-.26935-1.12825-.60047-2.43816l-.60186-2.38161-.28294-.0333c-.96418-.11429-1.81011-.98551-1.9728-2.03204-.2607-1.67638 1.35142-3.10758 3.0007-2.66415zm-1.23618 1.1525c-.42796.2184-.69165.66813-.6961 1.18726-.009 1.1681 1.41302 1.7423 2.25596.91029.69023-.68131.41286-1.8382-.52408-2.18585-.27398-.10154-.74144-.0617-1.03578.0883zm2.49362 9.67176c-.39528.17483-.70527.46369-.91726.85472-.1807.33321-.19398.39342-.19306.86691.001.60302.12881.92389.52351 1.31892.36092.36114.78416.53611 1.31095.54197.3745.005.47454-.0185.80535-.181.45661-.22455.78479-.57647.95269-1.0214.16742-.44376.13468-1.05572-.0803-1.49514-.42629-.87126-1.52094-1.27461-2.40181-.88493zm-8.98863 10.26085c-.58756.17452-.93798.64869-.93829 1.26964-.00019.39706.0939.64162.3558.92386.6093.65689 1.72076.49351 2.12212-.31192.39833-.79936-.0571-1.74029-.92721-1.91585-.2956-.0596-.29622-.0596-.61242.0342zm-.91658-16.19663c.54336.11091 1.04535.59268 1.19529 1.14691.0945.34981.0321.82901-.15228 1.16802-.28449.52263-.77487.8081-1.3796.80306-.61906-.006-1.09481-.28385-1.38803-.81317-.14548-.26285-.1668-.35817-.1668-.75325 0-.39672.0216-.48994.16958-.75888.33861-.61206 1.03551-.93293 1.72178-.79269zm19.26734 1.91417c.40507.18968.62428.39557.80352.75428.61165 1.224-.51975 2.60369-1.8242 2.22448-1.12115-.32594-1.53008-1.67829-.7689-2.543.32544-.36975.60637-.50142 1.12492-.5273.33687-.0154.47346.003.66466.0917zm-15.95747.93349c.90716.52398 1.05221.71182.85069 1.10151-.0985.19088-.36855.31468-.57368.26317-.20912-.0526-1.44332-.75804-1.5632-.89364-.14301-.16184-.1288-.51107.0278-.69175.24865-.28633.43756-.25327 1.2579.22056zm12.92266 1.55461c.21035.21035.22703.51401.038.70032-.22672.22363-1.48218.887-1.67878.887-.39015 0-.65144-.51066-.42598-.83254.12973-.18533 1.50426-.92004 1.72104-.92004.12416 0 .23196.0516.34567.16526zm-9.81811.22239c.85277.48906.93771.56403.93771.82743 0 .11333-.0278.25731-.0611.32001-.0883.16496-.39802.28078-.59651.22302-.17823-.0519-1.41738-.75874-1.53747-.87698-.0414-.0404-.089-.17792-.10595-.30487-.0278-.20326-.009-.25205.14115-.40353.26534-.26562.43652-.23537 1.22207.21528zm6.74571 6.69353c.17328.1875.80665 1.37499.80665 1.5127 0 .33734-.33981.61109-.66883.53884-.21931-.0482-.27552-.11831-.65851-.82191-.39978-.73452-.43725-.92751-.22826-1.17585.12726-.15104.19181-.181.39182-.181.17575 0 .27089.034.35716.12726zm1.40847 2.78008c.14363.0636.24927.21344.55121.78257.41535.78288.45479.98288.23691 1.20074-.18409.1841-.40105.23135-.60952.1325-.23074-.10932-.91219-1.33277-.9164-1.64515-.006-.3818.38135-.62839.73777-.47072zm2.18267 2.48771c1.15377.41173 1.42086 1.91182.48327 2.71437-.62249.53282-1.5209.48566-2.11776-.11114-.6359-.63589-.63367-1.56802.006-2.20697.4396-.43963 1.07473-.59407 1.62917-.39621z"
     fill="#b0bccf"
     stroke-width=".213676"
     id="path17" />
  <path
     d="m137.05192 400.96156h31.22083v31.22083h-31.22083z"
     fill="none"
     stroke="#b0bccf"
     stroke-width="2.427"
     id="path18" />
  <text
     style="font-size:25.4;font-family:Good Times;letter-spacing:-.134937;word-spacing:-.690562;stroke:#b0bccf;stroke-width:1.3;fill:url(#b)"
     x="229.26233"
     y="418.78128"
     id="text21"><tspan
       fill="url(#b)"
       stroke-width="1.3"
       x="229.26233"
       y="418.78128"
       id="tspan21"><tspan
         fill="url(#b)"
         stroke-width="1.3"
         id="tspan19">i<tspan
   fill="url(#b)"
   stroke-width="1.3"
   id="tspan18">c</tspan></tspan><tspan
         fill="url(#b)"
         stroke="none"
         stroke-width="1.3"
         id="tspan20">GRAPH</tspan></tspan></text>
  <path
     d="m233.84345 353.88056c1.19732.32192 1.9792 1.53061 1.76391 2.72691-.0967.53749-.31685.94222-.73573 1.35272l-.36158.35439.60186 2.36734c.33103 1.30207.60189 2.38306.60189 2.40228 0 .0185.12077.0352.26842.0358 1.09307.005 2.31471.79757 2.8096 1.82649.35373.73545.44282 1.40893.28541 2.1584-.23475 1.11741-1.09437 2.0875-2.18547 2.46594-.74753.25916-1.80496.19151-2.50205-.16061l-.278-.14024-.76785.80922c-.42237.44506-1.6638 1.74812-2.75879 2.89567l-1.99091 2.08648.0877.16959c.1529.29559.22734.80689.18379 1.26276-.10534 1.10229-.9151 1.9393-2.05982 2.129-.67837.11247-1.42364-.12265-1.94989-.61482-1.43297-1.3404-.80485-3.67401 1.10973-4.12289.43849-.10292.81211-.0845 1.27881.0628l.30486.0961.67995-.69922c.73072-.75151 3.74385-3.91076 4.41561-4.62975l.40828-.43701-.19583-.38861c-.11831-.23474-.23352-.58734-.29128-.8906-.16185-.8494.0247-1.69564.53721-2.45198.24834-.36555.64625-.74515.98441-.93885.11645-.0667.2122-.14671.21282-.17761.00092-.0311-.26934-1.12825-.60047-2.43816l-.60186-2.38161-.28293-.0333c-.96418-.11429-1.81012-.98551-1.97281-2.03204-.2607-1.67638 1.35143-3.10758 3.00071-2.66415zm-1.23618 1.1525c-.42796.2184-.69165.66813-.6961 1.18726-.009 1.1681 1.41301 1.7423 2.25596.91029.69023-.68131.41285-1.8382-.52408-2.18585-.27398-.10154-.74145-.0617-1.03578.0883zm2.49361 9.67176c-.39528.17483-.70527.46369-.91726.85472-.1807.3332-.19398.39341-.19305.8669.001.60302.1288.92389.5235 1.31892.36093.36114.78416.53611 1.31096.54197.37449.005.47454-.0185.80535-.181.45659-.22455.78478-.57647.95269-1.0214.16741-.44376.13467-1.05572-.0803-1.49513-.42629-.87126-1.52094-1.27461-2.40181-.88493zm-8.98863 10.26084c-.58755.17452-.93798.64869-.93829 1.26964-.00018.39706.0939.64162.3558.92386.60931.65689 1.72076.49351 2.12212-.31192.39834-.79936-.0571-1.74029-.9272-1.91585-.2956-.0596-.29622-.0596-.61243.0342zm-.91658-16.19662c.54336.11091 1.04536.59268 1.19529 1.14691.0945.34981.0321.82901-.15228 1.16802-.28448.52263-.77486.8081-1.3796.80306-.61906-.006-1.0948-.28385-1.38802-.81317-.14549-.26285-.1668-.35817-.1668-.75325 0-.39672.0216-.48994.16958-.75888.33859-.61206 1.03549-.93293 1.72177-.79269zm19.26734 1.91417c.40507.18968.62428.39557.80353.75428.61165 1.224-.51976 2.60369-1.8242 2.22448-1.12116-.32594-1.53009-1.67829-.76891-2.543.32544-.36975.60637-.50142 1.12493-.5273.33686-.0154.47345.003.66465.0917zm-15.95746.93349c.90715.52398 1.05221.71182.85069 1.10151-.0985.19088-.36856.31468-.57369.26317-.20911-.0526-1.44332-.75804-1.56319-.89364-.14302-.16184-.12881-.51107.0278-.69175.24865-.28633.43756-.25327 1.25789.22056zm12.92265 1.55461c.21035.21035.22703.51401.038.70032-.22672.22363-1.48217.887-1.67878.887-.39015 0-.65143-.51066-.42598-.83254.12973-.18533 1.50426-.92004 1.72104-.92004.12417 0 .23197.0516.34567.16526zm-9.8181.22239c.85276.48906.93771.56403.93771.82743 0 .11333-.0278.25731-.0611.32001-.0883.16496-.39803.28078-.59652.22302-.17822-.0519-1.41737-.75874-1.53746-.87698-.0414-.0404-.0889-.17792-.10596-.30487-.0278-.20326-.009-.25205.14116-.40353.26533-.26562.43651-.23537 1.22207.21528zm6.7457 6.69352c.17329.1875.80665 1.37499.80665 1.5127 0 .33734-.3398.61109-.66883.53884-.2193-.0482-.27552-.11831-.6585-.82191-.39979-.73452-.43726-.92751-.22827-1.17585.12726-.15104.19182-.181.39182-.181.17575 0 .27089.034.35716.12726zm1.40848 2.78008c.14363.0636.24927.21344.5512.78257.41536.78288.4548.98288.23691 1.20074-.18409.1841-.40105.23135-.60952.1325-.23073-.10932-.91219-1.33277-.91639-1.64515-.006-.3818.38135-.62839.73777-.47072zm2.18266 2.48771c1.15377.41173 1.42086 1.91182.48328 2.71437-.62249.53282-1.52091.48566-2.11777-.11114-.63589-.63589-.63367-1.56802.006-2.20697.4396-.43963 1.07473-.59407 1.62917-.39621z"
     fill="#b0bccf"
     stroke-width=".213676"
     id="path21" />
  <text
     style="font-size:25.4;font-family:Good Times;letter-spacing:-.134937;word-spacing:-.690562;stroke:#b0bccf;stroke-width:1.3;fill:url(#c)"
     x="246.84866"
     y="376.49924"
     id="text25"><tspan
       fill="url(#c)"
       stroke-width="1.3"
       x="246.84866"
       y="376.49924"
       id="tspan25"><tspan
         fill="url(#c)"
         stroke-width="1.3"
         id="tspan23">i<tspan
   fill="url(#c)"
   stroke-width="1.3"
   id="tspan22">c</tspan></tspan><tspan
         fill="url(#c)"
         stroke="none"
         stroke-width="1.3"
         id="tspan24">GRAPH</tspan></tspan></text>
  <path
     d="m160.08378-106.54659c-1.65246 0-3.18532-.3044-4.59861-.91319-1.39153-.63054-2.60913-1.47851-3.65277-2.54391-1.02193-1.08714-1.8264-2.36996-2.41346-3.84847-.56531-1.47851-.84797-3.0766-.84797-4.79428 0-1.73943.28266-3.32665.84797-4.76167.58706-1.43502 1.39153-2.65262 2.41346-3.65279 1.04364-1.02191 2.26124-1.80465 3.65277-2.34822 1.41329-.56531 2.94615-.84797 4.59861-.84797h12.84998v4.142h-12.84998c-1.06539 0-2.0547.19569-2.96789.58706-.89146.36963-1.66333.89145-2.31561 1.56548-.65227.67402-1.16323 1.47851-1.53287 2.41345-.36962.93494-.55443 1.96772-.55443 3.09835 0 1.10888.18481 2.14166.55443 3.09834.36964.95668.8806 1.78291 1.53287 2.47868.65228.67403 1.42415 1.20673 2.31561 1.59809.91319.39138 1.9025.58706 2.96789.58706h10.143v-6.16408h-10.69745v-3.48971h14.87206v13.79579zm39.97478 0-6.001-6.58806h-8.87106v-3.65279h9.8821c1.50025 0 2.63087-.40224 3.39187-1.20671.761-.82624 1.14149-2.01122 1.14149-3.55495 0-1.54374-.40223-2.68524-1.2067-3.42449-.78274-.761-1.89162-1.1415-3.32665-1.1415h-12.91521v19.5685h-4.10939v-23.7105h17.0246c1.34805 0 2.55476.20656 3.62018.61966 1.06539.39137 1.96772.96756 2.70697 1.72856.73925.73925 1.30457 1.64158 1.69592 2.70697.39137 1.06541.58707 2.26126.58707 3.58756 0 1.9786-.43486 3.64192-1.30457 4.98998-.84798 1.3263-2.04382 2.28298-3.58755 2.87004l7.1425 7.20773zm32.57136 0-3.55494-5.9684h-15.54795l1.95684-3.35925h11.60163l-5.28349-8.87106-10.76267 18.19871h-4.72905l13.63271-22.69947c.23918-.41311.52184-.73925.84798-.97842s.71751-.35876 1.1741-.35876c.45661 0 .8371.11959 1.14151.35876.32614.23917.60879.56531.84796.97842l13.66533 22.69947zm14.50312-6.58806v-4.01154h9.52333c1.45677 0 2.5874-.41312 3.39188-1.23934.82622-.82622 1.23934-1.91336 1.23934-3.26141 0-1.3698-.41311-2.45694-1.23934-3.26142-.80448-.80449-1.93511-1.20673-3.39188-1.20673h-12.55646v19.56851h-4.10939v-23.71051h16.66585c1.3698 0 2.5874.20656 3.6528.61967 1.08713.39137 2.00033.95669 2.73957 1.69594.73927.71751 1.30458 1.5981 1.69595 2.64175s.58706 2.21776.58706 3.52233c0 1.28283-.19569 2.45693-.58706 3.52233-.39137 1.04365-.95668 1.94598-1.69595 2.70698-.73924.76099-1.65244 1.35892-2.73957 1.79377-1.0654.41312-2.283.61967-3.6528.61967zm40.04003 6.6859v-10.30607h-16.58472v-3.6854h16.58472v-9.81687h4.142v23.80835zm-19.07929 0v-23.80834h4.142v23.80834z"
     fill="#b0bccf"
     stroke-width=".571284"
     id="path25" />
  <g
     fill="#b0bccf"
     transform="translate(-4.697965 -3.47097)"
     id="g30">
    <path
       d="m34.289873 3.6988367c3.361842.9038753 5.557206 4.2976421 4.952696 7.6566013-.271451 1.509171-.889649 2.645567-2.065774 3.798171l-1.015231.995051 1.689893 6.647017c.92947 3.655948 1.689986 6.691143 1.689986 6.745109 0 .05191.339083.09879.75367.100544 3.069134.01417 6.499228 2.239415 7.888795 5.128425.993211 2.064987 1.243333 3.956016.801379 6.060368-.659145 3.137467-3.0728 5.861284-6.136378 6.923862-2.098914.727665-5.067966.537721-7.025256-.450956l-.780543-.393762-2.155975 2.272123c-1.185921 1.249639-4.671613 4.908362-7.746124 8.130455l-5.590066 5.858412.2463.476172c.429297.829965.638321 2.265586.516031 3.545575-.295768 3.09501-2.569405 5.44516-5.783562 5.977797-1.904716.315796-3.997291-.344367-5.4748908-1.726292-4.0234831-3.763564-2.259866-10.315868 3.1159048-11.576229 1.231192-.288984 2.280245-.237267 3.590625.176327l.856002.269833 1.909158-1.963278c2.051721-2.110081 10.511966-10.980623 12.398129-12.999392l1.146371-1.22704-.549864-1.091124c-.332168-.659121-.655653-1.649145-.817846-2.500637-.454457-2.384943.06938-4.76104 1.508386-6.884683.697291-1.0264 1.814514-2.092234 2.764037-2.636108.326953-.187285.595803-.41193.597548-.498687.0023-.0873-.756272-3.167902-1.686001-6.845858l-1.689893-6.687086-.794443-.09351c-2.707209-.320913-5.082427-2.767113-5.539228-5.705565-.731992-4.7069341 3.794526-8.7254482 8.425377-7.4804036zm-3.470949 3.2359784c-1.201612.6132164-1.942018 1.8759804-1.9545 3.3335879-.02613 3.279784 3.967455 4.892026 6.334271 2.555905 1.938034-1.91298 1.159224-5.1612872-1.471507-6.1374239-.769292-.2851037-2.081828-.1732435-2.908264.247931zm7.001571 27.1563489c-1.109865.490881-1.980271 1.301951-2.575475 2.399875-.507369.935587-.544648 1.104648-.542058 2.434105.0023 1.693162.361653 2.594109 1.469876 3.70327 1.013415 1.014001 2.201761 1.50529 3.68091 1.521733 1.051489.01418 1.332411-.05191 2.261271-.508202 1.282007-.630491 2.203497-1.618617 2.674946-2.867892.47007-1.24598.378132-2.964245-.225524-4.198051-1.196924-2.446319-4.270487-3.578846-6.743794-2.484698zm-25.238248 28.81039c-1.649744.490015-2.6336728 1.821394-2.6345398 3.564889-.000516 1.114856.2636818 1.801541.9990238 2.594015 1.7108 1.84441 4.831532 1.385673 5.958482-.875808 1.118442-2.244443-.160423-4.88639-2.603401-5.379321-.83-.16735-.831723-.16735-1.719565.09597zm-2.573577-45.476866c1.525647.311415 2.935148 1.664123 3.356123 3.2203.265428.982195.09023 2.327685-.427561 3.279562-.798767 1.467439-2.175664 2.268971-3.8736418 2.254827-1.738199-.01688-3.0739845-.796997-3.8972918-2.283211-.408484-.738025-.4683334-1.005668-.4683334-2.114982 0-1.113907.0607-1.375654.4761389-2.130778.9507168-1.718534 2.9074673-2.619481 4.8344011-2.225718zm54.098787 5.374599c1.137345.532589 1.752859 1.110685 2.256138 2.117865 1.717397 3.436752-1.459377 7.310651-5.121991 6.245895-3.147967-.915173-4.296166-4.712301-2.158918-7.140231.913757-1.038179 1.702562-1.407884 3.158551-1.480542.945855-.04324 1.329376.0082 1.86622.25747zm-44.805333 2.621064c2.547126 1.471223 2.954402 1.998645 2.388577 3.092817-.276679.535951-1.034839.883554-1.610812.738928-.587142-.147709-4.052548-2.128424-4.389133-2.509167-.401546-.454412-.361654-1.434978.07804-1.94229.698157-.803958 1.228589-.711129 3.531924.619289zm36.284207 4.365026c.590612.590622.637442 1.443226.106641 1.966347-.636585.627913-4.161652 2.490534-4.713684 2.490534-1.09546 0-1.829091-1.43384-1.196069-2.33761.364266-.520367 4.22367-2.583292 4.832329-2.583292.348633 0 .651316.144883.97057.464021zm-27.567256.62442c2.394402 1.373182 2.632898 1.583682 2.632898 2.323266 0 .3182-.07804.722464-.171696.89851-.248048.463188-1.117575.788383-1.674893.626202-.500432-.145717-3.979701-2.130381-4.316896-2.462385-.116252-.113436-.249747-.499565-.297492-.856003-.07804-.570724-.02601-.707709.396343-1.133033.745-.745809 1.225638-.66088 3.431313.604451zm18.940566 18.794077c.486545.526472 2.264916 3.860693 2.264916 4.247367 0 .947178-.954093 1.715804-1.877924 1.512956-.615774-.135345-.773619-.332191-1.848957-2.307774-1.122521-2.062373-1.227726-2.604257-.640922-3.301536.357316-.424093.538578-.508212 1.100136-.508212.493495 0 .76061.0954 1.002845.357317zm3.954727 7.805904c.40328.178576.699892.599307 1.54767 2.197309 1.16622 2.198164 1.276978 2.759724.665203 3.371428-.516911.516922-1.126084.649582-1.71141.372026-.647858-.306936-2.56126-3.742142-2.573049-4.619239-.01758-1.072023 1.070746-1.764391 2.071505-1.321689zm6.12847 6.984987c3.239552 1.156062 3.989484 5.368012 1.356949 7.621408-1.747831 1.496047-4.270417 1.363632-5.946259-.312057-1.785474-1.785451-1.779227-4.402692.01758-6.196733 1.234322-1.234391 3.017615-1.668024 4.574379-1.112466z"
       stroke-width=".599959"
       id="path26" />
    <g
       transform="translate(0 -4.284847)"
       id="g29">
      <g
         transform="matrix(1.8224234 0 0 1.8224234 -68.586524 -59.923346)"
         id="g28">
        <path
           d="m108.86906 44.633785c-1.92434 0-3.7096.329148-5.35541.987459-1.62051.633017-3.0382 1.544208-4.253571 2.734257-1.19005 1.164725-2.126862 2.583067-2.810509 4.254205-.658325 1.671128-.987458 3.519147-.987458 5.544763 0 2.000305.329133 3.861107.987458 5.58289.683647 1.721765 1.620459 3.215674 2.810509 4.48169 1.215371 1.240693 2.633061 2.228732 4.253571 2.963011 1.64581.708975 3.43135 1.096336 5.35541 1.063075l5.6693-.09786v-4.823551l-5.6693.09786c-1.2407 0-2.39266-.227954-3.45611-.683722-1.03813-.455759-1.93716-1.075626-2.69677-1.86054-.75961-.810259-1.35447-1.77267-1.78492-2.886761-.43044-1.114098-.64559-2.316635-.64559-3.607971 0-1.316652.21515-2.519843.64559-3.608609.43045-1.088777 1.02531-2.025574 1.78492-2.810509.75961-.784923 1.65864-1.392603 2.69677-1.823048 1.06345-.455769 2.21559-.704533 3.45611-.683088l5.6693.09786v-4.823554zm10.72224.185546v4.823551l4.24214.07307v-4.823551zm4.24214 22.343633-4.24214.07308v4.823551l4.24214-.07308z"
           fill="#b0bccf"
           stroke="#b0bccf"
           stroke-width="1.22963"
           id="path27" />
        <path
           d="m83.39564 72.86192v-29.234034h5.106903v29.234034z"
           stroke-width=".692748"
           id="path28" />
      </g>
      <path
         d="m192.22345 72.48702c-3.58109 0-6.90299-.659674-9.96577-1.979-3.01563-1.366462-5.65432-3.204121-7.91602-5.512979-2.21466-2.355972-3.95805-5.136007-5.23028-8.340127-1.2251-3.204122-1.83766-6.667387-1.83766-10.38982 0-3.769567.61256-7.209276 1.83766-10.319148 1.27223-3.109873 3.01562-5.748567 5.23028-7.916064 2.2617-2.21461 4.90039-3.910907 7.91602-5.088893 3.06278-1.2251 6.38468-1.83766 9.96577-1.83766h27.84756v8.976245h-27.84756c-2.30883 0-4.4528.424085-6.4318 1.272234-1.9319.801035-3.60465 1.931885-5.01822 3.392596-1.41354 1.460688-2.52087 3.20412-3.32192 5.230254-.80101 2.026135-1.20152 4.264301-1.20152 6.714522 0 2.403086.40051 4.641252 1.20152 6.7145.80105 2.073247 1.90838 3.863793 3.32192 5.371617 1.41357 1.460709 3.08632 2.615138 5.01822 3.463266 1.979.84817 4.12297 1.272233 6.4318 1.272233h21.98119v-13.358351h-23.18275v-7.562648h32.22966v29.897244z"
         stroke-width="1.23805"
         id="path29" />
    </g>
  </g>
  <path
     d="m48.054683 215.40426h51.14959v39.91076c0 33.58458-51.84829 32.48924-51.84829 0z"
     fill="none"
     stroke="#b0bccf"
     stroke-width="8.39786"
     id="path30" />
</svg>
