<?xml version="1.0" encoding="UTF-8" standalone="no"?>
<svg
   height="73.08802mm"
   viewBox="0 0 246.33237 73.088022"
   width="246.33238mm"
   version="1.1"
   id="svg15"
   sodipodi:docname="logo.svg"
   inkscape:version="1.3.2 (091e20ef0f, 2023-11-25, custom)"
   xml:space="preserve"
   xmlns:inkscape="http://www.inkscape.org/namespaces/inkscape"
   xmlns:sodipodi="http://sodipodi.sourceforge.net/DTD/sodipodi-0.dtd"
   xmlns:xlink="http://www.w3.org/1999/xlink"
   xmlns="http://www.w3.org/2000/svg"
   xmlns:svg="http://www.w3.org/2000/svg"><defs
     id="defs15"><linearGradient
       id="linearGradient17"
       inkscape:collect="always"><stop
         style="stop-color:#b0bccf;stop-opacity:1;"
         offset="0"
         id="stop17" /><stop
         style="stop-color:#b0bccf;stop-opacity:0;"
         offset="1"
         id="stop18" /></linearGradient><inkscape:path-effect
       effect="fill_between_many"
       method="originald"
       linkedpaths="#g2,0,1|"
       id="path-effect16" /><linearGradient
       inkscape:collect="always"
       xlink:href="#linearGradient17"
       id="linearGradient18"
       x1="80.328774"
       y1="143.80586"
       x2="218.85559"
       y2="143.80586"
       gradientUnits="userSpaceOnUse" /></defs><sodipodi:namedview
     id="namedview15"
     pagecolor="#ffffff"
     bordercolor="#000000"
     borderopacity="0.25"
     inkscape:showpageshadow="2"
     inkscape:pageopacity="0.0"
     inkscape:pagecheckerboard="0"
     inkscape:deskcolor="#d1d1d1"
     inkscape:document-units="mm"
     inkscape:zoom="0.70710678"
     inkscape:cx="575.58492"
     inkscape:cy="345.06811"
     inkscape:window-width="1920"
     inkscape:window-height="1024"
     inkscape:window-x="1920"
     inkscape:window-y="0"
     inkscape:window-maximized="1"
     inkscape:current-layer="svg15" /><path
     d="m4.8976388 4.1989298h51.1495772v39.9107582c0 33.584574-51.8482862 32.489238-51.8482862 0z"
     fill="none"
     stroke="#b0bccf"
     stroke-width="8.39786"
     id="path1" /><g
     fill="#b0bccf"
     id="g15"><g
       transform="matrix(2.000607 1.1550509 -1.1550509 2.000607 -114.54424 -361.12059)"
       id="g5"><rect
         height="6.677884"
         ry=".917437"
         width="1.109652"
         x="133.26457"
         y="113.53527"
         id="rect1" /><rect
         height="6.677884"
         ry=".917437"
         width="1.109652"
         x="145.20386"
         y="113.53527"
         id="rect2" /><rect
         height="14.584357"
         ry="1.550303"
         width="1.621357"
         x="135.81224"
         y="109.58203"
         id="rect3" /><rect
         height="14.584357"
         ry="1.550303"
         width="1.621357"
         x="142.14449"
         y="109.58203"
         id="rect4" /><rect
         height="20.411003"
         ry="2.16967"
         width="1.834875"
         x="138.87161"
         y="106.66871"
         id="rect5" /></g><g
       stroke-width=".715877"
       transform="matrix(1.3467588 0 0 1.3467588 -106.93441 30.218159)"
       id="g9"><path
         d="m149.74457.19113632q-2.17627 0-4.03756-.801776-1.83265-.83042902-3.20713-2.23354302-1.34584-1.431739-2.11899-3.37894-.74452-1.947173-.74452-4.2093413 0-2.290823.74452-4.180744.77315-1.889893 2.11899-3.207128 1.37448-1.345835 3.20713-2.061706 1.86129-.744523 4.03756-.744523h5.0684q2.26217 0 4.12346.744523 1.88989.744496 3.23576 2.090358 1.34583 1.345834 2.09036 3.235755.74449 1.861296.74449 4.123465 0 2.2621683-.77312 4.2093413-.74452 1.947201-2.11901 3.37894-1.34584 1.403114-3.20713 2.23354302-1.86127.801776-4.09481.801776zm5.0684-3.63665702q1.43176 0 2.63441-.515434 1.20268-.515432 2.06174-1.403113.88768-.916334 1.37448-2.176263.48681-1.259957.48681-2.7203223 0-1.460394-.48681-2.691697-.4868-1.259956-1.37448-2.147638-.85906-.887681-2.06174-1.374488-1.20265-.515432-2.63441-.515432h-5.0684q-1.40314 0-2.60579.515432-1.17406.486807-2.03311 1.374488-.85906.887682-1.34584 2.118984-.4868 1.231304-.4868 2.720351 0 1.4603653.4868 2.7203223.48678 1.259929 1.34584 2.176263.85905.887681 2.03311 1.403113 1.20265.515434 2.60579.515434z"
         id="path5" /><path
         d="m167.95643.19113632v-3.63665702h15.60612q1.46039 0 2.23351-.744497.80181-.744522.80181-1.975826 0-1.345861-.80181-2.004452-.77312-.687243-2.23351-.687243h-9.56411q-1.4604 0-2.66307-.429529-1.17405-.458153-2.00445-1.2313023-.80178-.801803-1.25996-1.889921-.42953-1.088145-.42953-2.376728 0-1.259929.4009-2.319421.42953-1.088145 1.23131-1.861295.83042-.773149 2.0331-1.202676 1.20265-.458154 2.74895-.458154h14.9475v3.636657h-14.9475q-1.25993 0-1.94717.687243-.68725.658618-.68725 1.861269 0 1.202675.68725 1.861294.71587.658591 1.91854.658591h9.53549q3.17847 0 4.81068 1.489047 1.66083 1.4890193 1.66083 4.5243373 0 1.317209-.40088 2.433981-.4009 1.11677-1.20267 1.947173-.80178.80180302-2.03311 1.25995502-1.20265.458154-2.83485.458154z"
         id="path6" /><path
         d="m193.35572.19113632v-20.81770132h3.63666v20.81770132z"
         id="path7" /><path
         d="m204.17973-15.042736v15.23387232h-3.46485v-18.89915432q0-1.002213.48678-1.574925.51544-.601338 1.37449-.601338.4009 0 .77315.171811.37225.171811.77315.572712l14.68985 14.5752533v-15.2338713h3.46487v19.0709653q0 1.03086602-.51544 1.60357902-.48678.572685-1.28859.572685-.88768 0-1.66084-.77315z"
         id="path8" /><path
         d="m232.47127.19113632v-17.18104432h-7.9033v-3.636657h19.44324v3.636657h-7.90327v17.18104432z"
         id="path9" /></g><g
       stroke-width=".715877"
       transform="matrix(1.3467588 0 0 1.3467588 -108.04477 30.218159)"
       id="g14"><path
         d="m140.46084 26.68477v-20.817701h15.23379q1.51767 0 2.74897.3436219 1.25993.343622 2.14764 1.030866.88768.6585907 1.37448 1.6894568.48678 1.0022394.48678 2.3194473 0 1.002214-.22917 1.746736-.22917.744497-.62999 1.288583-.40087.515433-.94496.887682-.51542.343621-1.08811.515432 1.43173.458153 2.34808 1.660831.91629 1.202676.91629 3.035319 0 1.431766-.48676 2.60579-.45817 1.145398-1.34588 1.975828-.85904.830401-2.11897 1.288581-1.23131.429527-2.74898.429527zm6.27104-9.048703v-3.063945h8.9914q1.54627 0 2.29079-.572711.74454-.572685.74454-1.947174 0-.830428-.31501-1.317208-.31499-.515432-.91633-.7731493-.57269-.2863435-1.40311-.3722476-.80178-.086037-1.80401-.086037h-10.22267v13.5730129h10.53765q.9736 0 1.80402-.143134.8304-.143133 1.43174-.458151.60135-.343624.91633-.859057.34363-.515433.34363-1.288581 0-1.288556-.80177-1.975801-.80181-.715897-2.34809-.715897z"
         id="path10" /><path
         d="m184.61602 5.867069h3.55074v11.62584q0 2.405326-.62994 4.209343-.62997 1.775389-1.97584 2.949412-1.34584 1.174052-3.49348 1.746737-2.11897.572712-5.15429.572712-3.0067 0-5.15433-.572712-2.11898-.572685-3.46485-1.746737-1.34583-1.174023-1.97582-2.949412-.62997-1.804017-.62997-4.209343v-11.62584h3.75119v11.62584q0 1.574925.37227 2.691697.40087 1.116772 1.25993 1.832641.88768.715871 2.34807 1.059492 1.4604.314996 3.60804.314996 2.14763 0 3.608-.314996 1.4604-.343621 2.31946-1.059492.88767-.715869 1.25994-1.832641.40088-1.116772.40088-2.691697z"
         id="path11" /><path
         d="m191.45981 26.68477v-20.817701h12.05537q2.20488 0 4.06618.7444961 1.86126.7445236 3.20713 2.0903583 1.34584 1.3458616 2.09036 3.2357826.77315 1.861267.77315 4.123437 0 2.262169-.77315 4.209369-.74452 1.947172-2.09036 3.37894-1.34587 1.403114-3.20713 2.233516-1.8613.801802-4.06618.801802zm12.05537-3.636657q1.40312 0 2.57716-.515433 1.20267-.515433 2.06173-1.403113.88768-.916334 1.37446-2.176263.48681-1.259957.48681-2.720351 0-1.460393-.48681-2.691697-.48678-1.259929-1.37446-2.147636-.85906-.887681-2.06173-1.374461-1.17404-.5154326-2.57716-.5154326h-8.44734v13.5443866z"
         id="path12" /><path
         d="m216.63004 26.68477v-20.817701h12.05537q2.20489 0 4.06618.7444961 1.86128.7445236 3.20713 2.0903583 1.34582 1.3458616 2.09036 3.2357826.77314 1.861267.77314 4.123437 0 2.262169-.77314 4.209369-.74454 1.947172-2.09036 3.37894-1.34585 1.403114-3.20713 2.233516-1.86129.801802-4.06618.801802zm12.05537-3.636657q1.4031 0 2.57712-.515433 1.2027-.515433 2.06175-1.403113.88767-.916334 1.37448-2.176263.48681-1.259957.48681-2.720351 0-1.460393-.48681-2.691697-.48681-1.259929-1.37448-2.147636-.85905-.887681-2.06175-1.374461-1.17402-.5154326-2.57712-.5154326h-8.44737v13.5443866z"
         id="path13" /><path
         d="m248.41493 26.68477v-7.903279l-11.05315-12.914422h4.89661l8.10371 9.592735 8.13238-9.592735h4.63887l-11.08179 12.914422v7.903279z"
         id="path14" /></g></g><g
     id="g1" /><path
     inkscape:original-d="M 0,0"
     inkscape:path-effect="#path-effect16"
     d="M 0,0"
     id="path16" /><rect
     style="fill:none;fill-opacity:1;stroke:#b0bccf;stroke-width:2.427;stroke-opacity:1"
     id="rect16"
     width="31.220833"
     height="31.220833"
     x="-13.159626"
     y="135.21901" /><g
     id="g19"><path
       style="fill:#b0bccf;fill-opacity:1;stroke-width:0.213676"
       d="m 66.04556,130.42006 c 1.197323,0.32192 1.979201,1.53061 1.763908,2.72691 -0.09668,0.53749 -0.316852,0.94222 -0.735729,1.35272 l -0.361577,0.35439 0.601858,2.36734 c 0.331031,1.30207 0.60189,2.38306 0.60189,2.40228 0,0.0185 0.120768,0.0352 0.268421,0.0358 1.093074,0.005 2.314707,0.79757 2.809602,1.82649 0.353732,0.73545 0.442813,1.40894 0.285409,2.15841 -0.234753,1.11741 -1.094376,2.0875 -2.185475,2.46594 -0.747529,0.25916 -1.80496,0.19151 -2.502048,-0.16061 l -0.277995,-0.14024 -0.767852,0.80922 c -0.422368,0.44506 -1.6638,1.74812 -2.758791,2.89567 l -1.990908,2.08648 0.08772,0.16959 c 0.152898,0.29559 0.227338,0.80689 0.183786,1.26276 -0.105338,1.10229 -0.915097,1.9393 -2.05982,2.129 -0.678368,0.11247 -1.423641,-0.12265 -1.949887,-0.61482 -1.43297,-1.3404 -0.804856,-3.67401 1.109727,-4.12289 0.438491,-0.10292 0.812115,-0.0845 1.278807,0.0628 l 0.304866,0.0961 0.679947,-0.69922 c 0.730724,-0.75151 3.74385,-3.91076 4.415609,-4.62975 l 0.408282,-0.43701 -0.195832,-0.38861 c -0.118305,-0.23474 -0.233515,-0.58734 -0.291278,-0.8906 -0.161854,-0.8494 0.02471,-1.69565 0.537211,-2.45199 0.248341,-0.36555 0.646245,-0.74515 0.984412,-0.93885 0.116447,-0.0667 0.212201,-0.14671 0.21282,-0.17761 9.2e-4,-0.0311 -0.269347,-1.12825 -0.60047,-2.43816 l -0.601858,-2.38161 -0.282938,-0.0333 c -0.964179,-0.11429 -1.810116,-0.98551 -1.972806,-2.03204 -0.260698,-1.67638 1.351426,-3.10758 3.000708,-2.66415 z m -1.236182,1.1525 c -0.427959,0.2184 -0.691652,0.66813 -0.696099,1.18726 -0.0093,1.1681 1.413016,1.7423 2.25596,0.91029 0.69023,-0.68131 0.412853,-1.8382 -0.524082,-2.18585 -0.273981,-0.10154 -0.741444,-0.0617 -1.035779,0.0883 z m 2.493616,9.67176 c -0.395279,0.17483 -0.705274,0.46369 -0.917262,0.85472 -0.180697,0.33321 -0.193977,0.39342 -0.193052,0.86691 0.001,0.60302 0.128805,0.92389 0.523496,1.31892 0.36093,0.36114 0.784162,0.53611 1.310963,0.54197 0.374489,0.005 0.474538,-0.0185 0.805351,-0.181 0.456593,-0.22455 0.78478,-0.57647 0.952689,-1.0214 0.167413,-0.44376 0.134672,-1.05572 -0.08032,-1.49514 -0.426289,-0.87126 -1.520941,-1.27461 -2.401813,-0.88493 z m -8.988629,10.26085 c -0.587556,0.17452 -0.937984,0.64869 -0.938294,1.26964 -1.85e-4,0.39706 0.09391,0.64162 0.355803,0.92386 0.609302,0.65689 1.720757,0.49351 2.122121,-0.31192 0.398335,-0.79936 -0.05714,-1.74029 -0.927205,-1.91585 -0.295603,-0.0596 -0.29622,-0.0596 -0.612425,0.0342 z m -0.91658,-16.19663 c 0.543357,0.11091 1.045353,0.59268 1.195286,1.14691 0.09453,0.34981 0.03213,0.82901 -0.152279,1.16802 -0.284482,0.52263 -0.774866,0.8081 -1.379598,0.80306 -0.619063,-0.006 -1.094804,-0.28385 -1.388027,-0.81317 -0.145484,-0.26285 -0.166797,-0.35817 -0.166797,-0.75325 0,-0.39672 0.02161,-0.48994 0.169578,-0.75888 0.338596,-0.61206 1.035497,-0.93293 1.721776,-0.79269 z m 19.267337,1.91417 c 0.405069,0.18968 0.624283,0.39557 0.803528,0.75428 0.61165,1.224 -0.519759,2.60369 -1.824203,2.22448 -1.121153,-0.32594 -1.530084,-1.67829 -0.768902,-2.543 0.325437,-0.36975 0.606368,-0.50142 1.124921,-0.5273 0.336867,-0.0154 0.473457,0.003 0.664656,0.0917 z m -15.957466,0.93349 c 0.907158,0.52398 1.052211,0.71182 0.850694,1.10151 -0.09854,0.19088 -0.368559,0.31468 -0.573689,0.26317 -0.209114,-0.0526 -1.443319,-0.75804 -1.563195,-0.89364 -0.143014,-0.16184 -0.128805,-0.51107 0.0278,-0.69175 0.248651,-0.28633 0.437563,-0.25327 1.257896,0.22056 z m 12.922656,1.55461 c 0.21035,0.21035 0.227029,0.51401 0.038,0.70032 -0.226719,0.22363 -1.482176,0.887 -1.67878,0.887 -0.39015,0 -0.651435,-0.51066 -0.425981,-0.83254 0.129732,-0.18533 1.504261,-0.92004 1.721037,-0.92004 0.124169,0 0.23197,0.0516 0.345669,0.16526 z m -9.818103,0.22239 c 0.852766,0.48906 0.937709,0.56403 0.937709,0.82743 0,0.11333 -0.0278,0.25731 -0.06115,0.32001 -0.08834,0.16496 -0.398027,0.28078 -0.596515,0.22302 -0.178227,-0.0519 -1.417373,-0.75874 -1.537467,-0.87698 -0.04139,-0.0404 -0.08895,-0.17792 -0.105954,-0.30487 -0.0278,-0.20326 -0.0093,-0.25205 0.141158,-0.40353 0.265332,-0.26562 0.436515,-0.23537 1.222067,0.21528 z m 6.745703,6.69353 c 0.173284,0.1875 0.80665,1.37499 0.80665,1.5127 0,0.33734 -0.339804,0.61109 -0.668827,0.53884 -0.219307,-0.0482 -0.275523,-0.11831 -0.658507,-0.82191 -0.399787,-0.73452 -0.437255,-0.92751 -0.228265,-1.17585 0.12726,-0.15104 0.191815,-0.181 0.391819,-0.181 0.175753,0 0.27089,0.034 0.357161,0.12726 z m 1.408476,2.78008 c 0.143631,0.0636 0.249269,0.21344 0.551203,0.78257 0.415355,0.78288 0.454799,0.98288 0.236914,1.20074 -0.184094,0.1841 -0.401054,0.23135 -0.60952,0.1325 -0.230735,-0.10932 -0.912194,-1.33277 -0.916395,-1.64515 -0.0062,-0.3818 0.381347,-0.62839 0.737768,-0.47072 z m 2.182663,2.48771 c 1.153771,0.41173 1.420862,1.91182 0.483278,2.71437 -0.622492,0.53282 -1.52091,0.48566 -2.117765,-0.11114 -0.635897,-0.63589 -0.633673,-1.56802 0.0062,-2.20697 0.439601,-0.43963 1.074727,-0.59407 1.629171,-0.39621 z"
       id="path1-5" /><text
       xml:space="preserve"
       style="font-style:normal;font-variant:normal;font-weight:normal;font-stretch:normal;font-size:25.4px;font-family:'Good Times';-inkscape-font-specification:'Good Times';letter-spacing:-0.134937px;word-spacing:-0.690562px;fill:url(#linearGradient18);stroke:#b0bccf;stroke-width:1.3;stroke-dasharray:none;stroke-opacity:1"
       x="79.050774"
       y="153.03876"
       id="text16"><tspan
         sodipodi:role="line"
         id="tspan16"
         style="fill:url(#linearGradient18);stroke-width:1.3;stroke-dasharray:none"
         x="79.050774"
         y="153.03876"><tspan
           style="fill:#b0bccf;fill-opacity:1;stroke-width:1.3;stroke-dasharray:none"
           id="tspan18">i<tspan
   style="fill:none;stroke-width:1.3;stroke-dasharray:none"
   id="tspan19">c</tspan></tspan><tspan
           style="fill:#b0bccf;fill-opacity:1;stroke:none;stroke-width:1.3;stroke-dasharray:none"
           id="tspan17">GRAPH</tspan></tspan></text></g></svg>
