<svg height="73.08802mm" viewBox="0 0 60.246144 73.088022" width="60.246147mm" xmlns="http://www.w3.org/2000/svg" xmlns:xlink="http://www.w3.org/1999/xlink"><linearGradient id="a"><stop offset="0" stop-color="#b0bccf"/><stop offset="1" stop-color="#b0bccf" stop-opacity="0"/></linearGradient><linearGradient id="b" gradientUnits="userSpaceOnUse" x1="245.790386" x2="384.317196" xlink:href="#a" y1="496.946496" y2="496.946496"/><linearGradient id="c" gradientUnits="userSpaceOnUse" x1="263.376716" x2="401.903526" xlink:href="#a" y1="454.664486" y2="454.664486"/><path d="m170.35925 357.33959h51.14959v39.91076c0 33.58458-51.84829 32.48924-51.84829 0z" fill="none" stroke="#b0bccf" stroke-width="8.39786"/><g fill="#b0bccf" transform="translate(165.46161 353.14066)"><g transform="matrix(2.000607 1.1550509 -1.1550509 2.000607 -114.54424 -361.12059)"><rect height="6.677884" ry=".917437" width="1.109652" x="133.26457" y="113.53527"/><rect height="6.677884" ry=".917437" width="1.109652" x="145.20386" y="113.53527"/><rect height="14.584357" ry="1.550303" width="1.621357" x="135.81224" y="109.58203"/><rect height="14.584357" ry="1.550303" width="1.621357" x="142.14449" y="109.58203"/><rect height="20.411003" ry="2.16967" width="1.834875" x="138.87161" y="106.66871"/></g><g stroke-width=".715877"><g transform="matrix(1.3467588 0 0 1.3467588 -106.93441 30.218159)"><path d="m149.74457.19113632q-2.17627 0-4.03756-.801776-1.83265-.83042902-3.20713-2.23354302-1.34584-1.431739-2.11899-3.37894-.74452-1.947173-.74452-4.2093413 0-2.290823.74452-4.180744.77315-1.889893 2.11899-3.207128 1.37448-1.345835 3.20713-2.061706 1.86129-.744523 4.03756-.744523h5.0684q2.26217 0 4.12346.744523 1.88989.744496 3.23576 2.090358 1.34583 1.345834 2.09036 3.235755.74449 1.861296.74449 4.123465 0 2.2621683-.77312 4.2093413-.74452 1.947201-2.11901 3.37894-1.34584 1.403114-3.20713 2.23354302-1.86127.801776-4.09481.801776zm5.0684-3.63665702q1.43176 0 2.63441-.515434 1.20268-.515432 2.06174-1.403113.88768-.916334 1.37448-2.176263.48681-1.259957.48681-2.7203223 0-1.460394-.48681-2.691697-.4868-1.259956-1.37448-2.147638-.85906-.887681-2.06174-1.374488-1.20265-.515432-2.63441-.515432h-5.0684q-1.40314 0-2.60579.515432-1.17406.486807-2.03311 1.374488-.85906.887682-1.34584 2.118984-.4868 1.231304-.4868 2.720351 0 1.4603653.4868 2.7203223.48678 1.259929 1.34584 2.176263.85905.887681 2.03311 1.403113 1.20265.515434 2.60579.515434z"/><path d="m167.95643.19113632v-3.63665702h15.60612q1.46039 0 2.23351-.744497.80181-.744522.80181-1.975826 0-1.345861-.80181-2.004452-.77312-.687243-2.23351-.687243h-9.56411q-1.4604 0-2.66307-.429529-1.17405-.458153-2.00445-1.2313023-.80178-.801803-1.25996-1.889921-.42953-1.088145-.42953-2.376728 0-1.259929.4009-2.319421.42953-1.088145 1.23131-1.861295.83042-.773149 2.0331-1.202676 1.20265-.458154 2.74895-.458154h14.9475v3.636657h-14.9475q-1.25993 0-1.94717.687243-.68725.658618-.68725 1.861269 0 1.202675.68725 1.861294.71587.658591 1.91854.658591h9.53549q3.17847 0 4.81068 1.489047 1.66083 1.4890193 1.66083 4.5243373 0 1.317209-.40088 2.433981-.4009 1.11677-1.20267 1.947173-.80178.80180302-2.03311 1.25995502-1.20265.458154-2.83485.458154z"/><path d="m193.35572.19113632v-20.81770132h3.63666v20.81770132z"/><path d="m204.17973-15.042736v15.23387232h-3.46485v-18.89915432q0-1.002213.48678-1.574925.51544-.601338 1.37449-.601338.4009 0 .77315.171811.37225.171811.77315.572712l14.68985 14.5752533v-15.2338713h3.46487v19.0709653q0 1.03086602-.51544 1.60357902-.48678.572685-1.28859.572685-.88768 0-1.66084-.77315z"/><path d="m232.47127.19113632v-17.18104432h-7.9033v-3.636657h19.44324v3.636657h-7.90327v17.18104432z"/></g><g transform="matrix(1.3467588 0 0 1.3467588 -108.04477 30.218159)"><path d="m140.46084 26.68477v-20.817701h15.23379q1.51767 0 2.74897.3436219 1.25993.343622 2.14764 1.030866.88768.6585907 1.37448 1.6894568.48678 1.0022394.48678 2.3194473 0 1.002214-.22917 1.746736-.22917.744497-.62999 1.288583-.40087.515433-.94496.887682-.51542.343621-1.08811.515432 1.43173.458153 2.34808 1.660831.91629 1.202676.91629 3.035319 0 1.431766-.48676 2.60579-.45817 1.145398-1.34588 1.975828-.85904.830401-2.11897 1.288581-1.23131.429527-2.74898.429527zm6.27104-9.048703v-3.063945h8.9914q1.54627 0 2.29079-.572711.74454-.572685.74454-1.947174 0-.830428-.31501-1.317208-.31499-.515432-.91633-.7731493-.57269-.2863435-1.40311-.3722476-.80178-.086037-1.80401-.086037h-10.22267v13.5730129h10.53765q.9736 0 1.80402-.143134.8304-.143133 1.43174-.458151.60135-.343624.91633-.859057.34363-.515433.34363-1.288581 0-1.288556-.80177-1.975801-.80181-.715897-2.34809-.715897z"/><path d="m184.61602 5.867069h3.55074v11.62584q0 2.405326-.62994 4.209343-.62997 1.775389-1.97584 2.949412-1.34584 1.174052-3.49348 1.746737-2.11897.572712-5.15429.572712-3.0067 0-5.15433-.572712-2.11898-.572685-3.46485-1.746737-1.34583-1.174023-1.97582-2.949412-.62997-1.804017-.62997-4.209343v-11.62584h3.75119v11.62584q0 1.574925.37227 2.691697.40087 1.116772 1.25993 1.832641.88768.715871 2.34807 1.059492 1.4604.314996 3.60804.314996 2.14763 0 3.608-.314996 1.4604-.343621 2.31946-1.059492.88767-.715869 1.25994-1.832641.40088-1.116772.40088-2.691697z"/><path d="m191.45981 26.68477v-20.817701h12.05537q2.20488 0 4.06618.7444961 1.86126.7445236 3.20713 2.0903583 1.34584 1.3458616 2.09036 3.2357826.77315 1.861267.77315 4.123437 0 2.262169-.77315 4.209369-.74452 1.947172-2.09036 3.37894-1.34587 1.403114-3.20713 2.233516-1.8613.801802-4.06618.801802zm12.05537-3.636657q1.40312 0 2.57716-.515433 1.20267-.515433 2.06173-1.403113.88768-.916334 1.37446-2.176263.48681-1.259957.48681-2.720351 0-1.460393-.48681-2.691697-.48678-1.259929-1.37446-2.147636-.85906-.887681-2.06173-1.374461-1.17404-.5154326-2.57716-.5154326h-8.44734v13.5443866z"/><path d="m216.63004 26.68477v-20.817701h12.05537q2.20489 0 4.06618.7444961 1.86128.7445236 3.20713 2.0903583 1.34582 1.3458616 2.09036 3.2357826.77314 1.861267.77314 4.123437 0 2.262169-.77314 4.209369-.74454 1.947172-2.09036 3.37894-1.34585 1.403114-3.20713 2.233516-1.86129.801802-4.06618.801802zm12.05537-3.636657q1.4031 0 2.57712-.515433 1.2027-.515433 2.06175-1.403113.88767-.916334 1.37448-2.176263.48681-1.259957.48681-2.720351 0-1.460393-.48681-2.691697-.48681-1.259929-1.37448-2.147636-.85905-.887681-2.06175-1.374461-1.17402-.5154326-2.57712-.5154326h-8.44737v13.5443866z"/><path d="m248.41493 26.68477v-7.903279l-11.05315-12.914422h4.89661l8.10371 9.592735 8.13238-9.592735h4.63887l-11.08179 12.914422v7.903279z"/></g></g></g><path d="m231.50717 483.56072c1.19733.32192 1.97921 1.53061 1.76391 2.72691-.0967.53749-.31684.94222-.73572 1.35272l-.36157.35439.60185 2.36734c.33104 1.30207.60189 2.38306.60189 2.40228 0 .0185.12077.0352.26843.0358 1.09307.005 2.31469.79757 2.8096 1.82649.35373.73545.44281 1.40894.28541 2.15841-.23476 1.11741-1.09438 2.0875-2.18548 2.46594-.74754.25916-1.80496.19151-2.50205-.16061l-.27799-.14024-.76785.80922c-.42237.44506-1.66381 1.74812-2.75879 2.89567l-1.99092 2.08648.0877.16959c.1529.29559.22734.80689.18379 1.26276-.10533 1.10229-.91509 1.9393-2.05982 2.129-.67836.11247-1.42364-.12265-1.94988-.61482-1.43298-1.3404-.80486-3.67401 1.10972-4.12289.43849-.10292.81212-.0845 1.27881.0628l.30487.0961.67993-.69922c.73073-.75151 3.74385-3.91076 4.41561-4.62975l.40828-.43701-.19583-.38861c-.1183-.23474-.23351-.58734-.29128-.8906-.16185-.8494.0247-1.69565.53722-2.45199.24834-.36555.64624-.74515.98441-.93885.11644-.0667.2122-.14671.21282-.17761.00092-.0311-.26935-1.12825-.60047-2.43816l-.60186-2.38161-.28294-.0333c-.96418-.11429-1.81011-.98551-1.9728-2.03204-.2607-1.67638 1.35142-3.10758 3.0007-2.66415zm-1.23618 1.1525c-.42796.2184-.69165.66813-.6961 1.18726-.009 1.1681 1.41302 1.7423 2.25596.91029.69023-.68131.41286-1.8382-.52408-2.18585-.27398-.10154-.74144-.0617-1.03578.0883zm2.49362 9.67176c-.39528.17483-.70527.46369-.91726.85472-.1807.33321-.19398.39342-.19306.86691.001.60302.12881.92389.52351 1.31892.36092.36114.78416.53611 1.31095.54197.3745.005.47454-.0185.80535-.181.45661-.22455.78479-.57647.95269-1.0214.16742-.44376.13468-1.05572-.0803-1.49514-.42629-.87126-1.52094-1.27461-2.40181-.88493zm-8.98863 10.26085c-.58756.17452-.93798.64869-.93829 1.26964-.00019.39706.0939.64162.3558.92386.6093.65689 1.72076.49351 2.12212-.31192.39833-.79936-.0571-1.74029-.92721-1.91585-.2956-.0596-.29622-.0596-.61242.0342zm-.91658-16.19663c.54336.11091 1.04535.59268 1.19529 1.14691.0945.34981.0321.82901-.15228 1.16802-.28449.52263-.77487.8081-1.3796.80306-.61906-.006-1.09481-.28385-1.38803-.81317-.14548-.26285-.1668-.35817-.1668-.75325 0-.39672.0216-.48994.16958-.75888.33861-.61206 1.03551-.93293 1.72178-.79269zm19.26734 1.91417c.40507.18968.62428.39557.80352.75428.61165 1.224-.51975 2.60369-1.8242 2.22448-1.12115-.32594-1.53008-1.67829-.7689-2.543.32544-.36975.60637-.50142 1.12492-.5273.33687-.0154.47346.003.66466.0917zm-15.95747.93349c.90716.52398 1.05221.71182.85069 1.10151-.0985.19088-.36855.31468-.57368.26317-.20912-.0526-1.44332-.75804-1.5632-.89364-.14301-.16184-.1288-.51107.0278-.69175.24865-.28633.43756-.25327 1.2579.22056zm12.92266 1.55461c.21035.21035.22703.51401.038.70032-.22672.22363-1.48218.887-1.67878.887-.39015 0-.65144-.51066-.42598-.83254.12973-.18533 1.50426-.92004 1.72104-.92004.12416 0 .23196.0516.34567.16526zm-9.81811.22239c.85277.48906.93771.56403.93771.82743 0 .11333-.0278.25731-.0611.32001-.0883.16496-.39802.28078-.59651.22302-.17823-.0519-1.41738-.75874-1.53747-.87698-.0414-.0404-.089-.17792-.10595-.30487-.0278-.20326-.009-.25205.14115-.40353.26534-.26562.43652-.23537 1.22207.21528zm6.74571 6.69353c.17328.1875.80665 1.37499.80665 1.5127 0 .33734-.33981.61109-.66883.53884-.21931-.0482-.27552-.11831-.65851-.82191-.39978-.73452-.43725-.92751-.22826-1.17585.12726-.15104.19181-.181.39182-.181.17575 0 .27089.034.35716.12726zm1.40847 2.78008c.14363.0636.24927.21344.55121.78257.41535.78288.45479.98288.23691 1.20074-.18409.1841-.40105.23135-.60952.1325-.23074-.10932-.91219-1.33277-.9164-1.64515-.006-.3818.38135-.62839.73777-.47072zm2.18267 2.48771c1.15377.41173 1.42086 1.91182.48327 2.71437-.62249.53282-1.5209.48566-2.11776-.11114-.6359-.63589-.63367-1.56802.006-2.20697.4396-.43963 1.07473-.59407 1.62917-.39621z" fill="#b0bccf" stroke-width=".213676"/><path d="m152.30198 488.35969h31.22083v31.22083h-31.22083z" fill="none" stroke="#b0bccf" stroke-width="2.427"/><text style="font-size:25.4;font-family:Good Times;letter-spacing:-.134937;word-spacing:-.690562;stroke:#b0bccf;stroke-width:1.3;fill:url(#b)" x="244.51239" y="506.17941"><tspan fill="url(#b)" stroke-width="1.3" x="244.51239" y="506.17941"><tspan fill="url(#b)" stroke-width="1.3">i<tspan fill="url(#b)" stroke-width="1.3">c</tspan></tspan><tspan fill="url(#b)" stroke="none" stroke-width="1.3">GRAPH</tspan></tspan></text><path d="m249.09351 441.27869c1.19732.32192 1.9792 1.53061 1.76391 2.72691-.0967.53749-.31685.94222-.73573 1.35272l-.36158.35439.60186 2.36734c.33103 1.30207.60189 2.38306.60189 2.40228 0 .0185.12077.0352.26842.0358 1.09307.005 2.31471.79757 2.8096 1.82649.35373.73545.44282 1.40893.28541 2.1584-.23475 1.11741-1.09437 2.0875-2.18547 2.46594-.74753.25916-1.80496.19151-2.50205-.16061l-.278-.14024-.76785.80922c-.42237.44506-1.6638 1.74812-2.75879 2.89567l-1.99091 2.08648.0877.16959c.1529.29559.22734.80689.18379 1.26276-.10534 1.10229-.9151 1.9393-2.05982 2.129-.67837.11247-1.42364-.12265-1.94989-.61482-1.43297-1.3404-.80485-3.67401 1.10973-4.12289.43849-.10292.81211-.0845 1.27881.0628l.30486.0961.67995-.69922c.73072-.75151 3.74385-3.91076 4.41561-4.62975l.40828-.43701-.19583-.38861c-.11831-.23474-.23352-.58734-.29128-.8906-.16185-.8494.0247-1.69564.53721-2.45198.24834-.36555.64625-.74515.98441-.93885.11645-.0667.2122-.14671.21282-.17761.00092-.0311-.26934-1.12825-.60047-2.43816l-.60186-2.38161-.28293-.0333c-.96418-.11429-1.81012-.98551-1.97281-2.03204-.2607-1.67638 1.35143-3.10758 3.00071-2.66415zm-1.23618 1.1525c-.42796.2184-.69165.66813-.6961 1.18726-.009 1.1681 1.41301 1.7423 2.25596.91029.69023-.68131.41285-1.8382-.52408-2.18585-.27398-.10154-.74145-.0617-1.03578.0883zm2.49361 9.67176c-.39528.17483-.70527.46369-.91726.85472-.1807.3332-.19398.39341-.19305.8669.001.60302.1288.92389.5235 1.31892.36093.36114.78416.53611 1.31096.54197.37449.005.47454-.0185.80535-.181.45659-.22455.78478-.57647.95269-1.0214.16741-.44376.13467-1.05572-.0803-1.49513-.42629-.87126-1.52094-1.27461-2.40181-.88493zm-8.98863 10.26084c-.58755.17452-.93798.64869-.93829 1.26964-.00018.39706.0939.64162.3558.92386.60931.65689 1.72076.49351 2.12212-.31192.39834-.79936-.0571-1.74029-.9272-1.91585-.2956-.0596-.29622-.0596-.61243.0342zm-.91658-16.19662c.54336.11091 1.04536.59268 1.19529 1.14691.0945.34981.0321.82901-.15228 1.16802-.28448.52263-.77486.8081-1.3796.80306-.61906-.006-1.0948-.28385-1.38802-.81317-.14549-.26285-.1668-.35817-.1668-.75325 0-.39672.0216-.48994.16958-.75888.33859-.61206 1.03549-.93293 1.72177-.79269zm19.26734 1.91417c.40507.18968.62428.39557.80353.75428.61165 1.224-.51976 2.60369-1.8242 2.22448-1.12116-.32594-1.53009-1.67829-.76891-2.543.32544-.36975.60637-.50142 1.12493-.5273.33686-.0154.47345.003.66465.0917zm-15.95746.93349c.90715.52398 1.05221.71182.85069 1.10151-.0985.19088-.36856.31468-.57369.26317-.20911-.0526-1.44332-.75804-1.56319-.89364-.14302-.16184-.12881-.51107.0278-.69175.24865-.28633.43756-.25327 1.25789.22056zm12.92265 1.55461c.21035.21035.22703.51401.038.70032-.22672.22363-1.48217.887-1.67878.887-.39015 0-.65143-.51066-.42598-.83254.12973-.18533 1.50426-.92004 1.72104-.92004.12417 0 .23197.0516.34567.16526zm-9.8181.22239c.85276.48906.93771.56403.93771.82743 0 .11333-.0278.25731-.0611.32001-.0883.16496-.39803.28078-.59652.22302-.17822-.0519-1.41737-.75874-1.53746-.87698-.0414-.0404-.0889-.17792-.10596-.30487-.0278-.20326-.009-.25205.14116-.40353.26533-.26562.43651-.23537 1.22207.21528zm6.7457 6.69352c.17329.1875.80665 1.37499.80665 1.5127 0 .33734-.3398.61109-.66883.53884-.2193-.0482-.27552-.11831-.6585-.82191-.39979-.73452-.43726-.92751-.22827-1.17585.12726-.15104.19182-.181.39182-.181.17575 0 .27089.034.35716.12726zm1.40848 2.78008c.14363.0636.24927.21344.5512.78257.41536.78288.4548.98288.23691 1.20074-.18409.1841-.40105.23135-.60952.1325-.23073-.10932-.91219-1.33277-.91639-1.64515-.006-.3818.38135-.62839.73777-.47072zm2.18266 2.48771c1.15377.41173 1.42086 1.91182.48328 2.71437-.62249.53282-1.52091.48566-2.11777-.11114-.63589-.63589-.63367-1.56802.006-2.20697.4396-.43963 1.07473-.59407 1.62917-.39621z" fill="#b0bccf" stroke-width=".213676"/><text style="font-size:25.4;font-family:Good Times;letter-spacing:-.134937;word-spacing:-.690562;stroke:#b0bccf;stroke-width:1.3;fill:url(#c)" x="262.09872" y="463.89737"><tspan fill="url(#c)" stroke-width="1.3" x="262.09872" y="463.89737"><tspan fill="url(#c)" stroke-width="1.3">i<tspan fill="url(#c)" stroke-width="1.3">c</tspan></tspan><tspan fill="url(#c)" stroke="none" stroke-width="1.3">GRAPH</tspan></tspan></text><g fill="#b0bccf"><path d="m175.33384-19.148464c-1.65246 0-3.18532-.3044-4.59861-.91319-1.39153-.63054-2.60913-1.47851-3.65277-2.54391-1.02193-1.08714-1.8264-2.36996-2.41346-3.84847-.56531-1.47851-.84797-3.0766-.84797-4.79428 0-1.73943.28266-3.32665.84797-4.76167.58706-1.43502 1.39153-2.65262 2.41346-3.65279 1.04364-1.02191 2.26124-1.80465 3.65277-2.34822 1.41329-.56531 2.94615-.84797 4.59861-.84797h12.84998v4.142h-12.84998c-1.06539 0-2.0547.19569-2.96789.58706-.89146.36963-1.66333.89145-2.31561 1.56548-.65227.67402-1.16323 1.47851-1.53287 2.41345-.36962.93494-.55443 1.96772-.55443 3.09835 0 1.10888.18481 2.14166.55443 3.09834.36964.95668.8806 1.78291 1.53287 2.47868.65228.67403 1.42415 1.20673 2.31561 1.59809.91319.39138 1.9025.58706 2.96789.58706h10.143v-6.16408h-10.69745v-3.48971h14.87206v13.79579zm39.97478 0-6.001-6.58806h-8.87106v-3.65279h9.8821c1.50025 0 2.63087-.40224 3.39187-1.20671.761-.82624 1.14149-2.01122 1.14149-3.55495 0-1.54374-.40223-2.68524-1.2067-3.42449-.78274-.761-1.89162-1.1415-3.32665-1.1415h-12.91521v19.5685h-4.10939v-23.7105h17.0246c1.34805 0 2.55476.20656 3.62018.61966 1.06539.39137 1.96772.96756 2.70697 1.72856.73925.73925 1.30457 1.64158 1.69592 2.70697.39137 1.06541.58707 2.26126.58707 3.58756 0 1.9786-.43486 3.64192-1.30457 4.98998-.84798 1.3263-2.04382 2.28298-3.58755 2.87004l7.1425 7.20773zm32.57136 0-3.55494-5.9684h-15.54795l1.95684-3.35925h11.60163l-5.28349-8.87106-10.76267 18.19871h-4.72905l13.63271-22.69947c.23918-.41311.52184-.73925.84798-.97842s.71751-.35876 1.1741-.35876c.45661 0 .8371.11959 1.14151.35876.32614.23917.60879.56531.84796.97842l13.66533 22.69947zm14.50312-6.58806v-4.01154h9.52333c1.45677 0 2.5874-.41312 3.39188-1.23934.82622-.82622 1.23934-1.91336 1.23934-3.26141 0-1.3698-.41311-2.45694-1.23934-3.26142-.80448-.80449-1.93511-1.20673-3.39188-1.20673h-12.55646v19.56851h-4.10939v-23.71051h16.66585c1.3698 0 2.5874.20656 3.6528.61967 1.08713.39137 2.00033.95669 2.73957 1.69594.73927.71751 1.30458 1.5981 1.69595 2.64175s.58706 2.21776.58706 3.52233c0 1.28283-.19569 2.45693-.58706 3.52233-.39137 1.04365-.95668 1.94598-1.69595 2.70698-.73924.76099-1.65244 1.35892-2.73957 1.79377-1.0654.41312-2.283.61967-3.6528.61967zm40.04003 6.6859v-10.30607h-16.58472v-3.6854h16.58472v-9.81687h4.142v23.80835zm-19.07929 0v-23.80834h4.142v23.80834z" stroke-width=".571284"/><path d="m-151.431 27.012376c3.36184.90387 5.55721 4.29764 4.9527 7.6566-.27146 1.50917-.88965 2.64556-2.06578 3.79817l-1.01523.99505 1.68989 6.64702c.92947 3.65594 1.68999 6.69114 1.68999 6.74511 0 .0519.33908.0988.75367.10054 3.06913.0142 6.49923 2.23941 7.88879 5.12842.99322 2.06499 1.24334 3.95602.80138 6.06037-.65914 3.13747-3.0728 5.86129-6.13637 6.92386-2.09892.72767-5.06797.53773-7.02526-.45095l-.78054-.39376-2.15598 2.27212c-1.18592 1.24964-4.67161 4.90836-7.74612 8.13045l-5.59007 5.85842.2463.47617c.4293.82996.63832 2.26558.51603 3.54557-.29577 3.09501-2.5694 5.44516-5.78356 5.9778-1.90472.3158-3.99729-.34437-5.47489-1.72629-4.02348-3.76357-2.25987-10.31587 3.1159-11.57623 1.2312-.28898 2.28025-.23727 3.59063.17633l.856.26983 1.90916-1.96328c2.05172-2.11008 10.51197-10.98062 12.39813-12.99939l1.14637-1.22704-.54986-1.09112c-.33217-.65913-.65566-1.64915-.81785-2.50064-.45446-2.38494.0694-4.76104 1.50839-6.88468.69729-1.0264 1.81451-2.09224 2.76403-2.63611.32696-.18729.59581-.41193.59755-.49869.002-.0873-.75627-3.1679-1.686-6.84586l-1.68989-6.68708-.79445-.0935c-2.70721-.32092-5.08242-2.76712-5.53922-5.70557-.732-4.70693 3.79452-8.72545 8.42537-7.4804zm-3.47095 3.23598c-1.20161.61321-1.94202 1.87598-1.9545 3.33358-.0261 3.27979 3.96746 4.89203 6.33427 2.55591 1.93804-1.91298 1.15923-5.16129-1.47151-6.13743-.76929-.2851-2.08182-.17324-2.90826.24794zm7.00157 27.15634c-1.10986.49088-1.98027 1.30195-2.57547 2.39988-.50737.93559-.54465 1.10465-.54206 2.4341.002 1.69317.36165 2.59411 1.46987 3.70327 1.01342 1.014 2.20177 1.50529 3.68091 1.52174 1.05149.0142 1.33242-.0519 2.26128-.50821 1.282-.63049 2.20349-1.61861 2.67494-2.86789.47007-1.24598.37813-2.96424-.22552-4.19805-1.19693-2.44632-4.27049-3.57884-6.7438-2.4847zm-25.23825 28.81039c-1.64974.49002-2.63367 1.8214-2.63454 3.56489-.00051 1.11486.26369 1.80154.99903 2.59402 1.7108 1.84441 4.83153 1.38567 5.95848-.87581 1.11844-2.24444-.16042-4.88639-2.6034-5.37932-.83-.16735-.83172-.16735-1.71957.096zm-2.57357-45.47686c1.52564.31141 2.93514 1.66412 3.35612 3.2203.26543.98219.0902 2.32768-.42756 3.27956-.79877 1.46744-2.17567 2.26897-3.87364 2.25483-1.7382-.0169-3.07399-.797-3.8973-2.28321-.40848-.73803-.46833-1.00567-.46833-2.11499 0-1.1139.0607-1.37565.47614-2.13077.95072-1.71854 2.90747-2.61949 4.8344-2.22572zm54.09878 5.3746c1.13735.53259 1.75286 1.11068 2.25614 2.11786 1.7174 3.43675-1.45938 7.31065-5.12199 6.2459-3.14797-.91518-4.29617-4.7123-2.15892-7.14023.91376-1.03818 1.70256-1.40789 3.15855-1.48055.94586-.0432 1.32938.008 1.86622.25747zm-44.80533 2.62106c2.54713 1.47122 2.9544 1.99865 2.38858 3.09282-.27668.53595-1.03484.88355-1.61081.73893-.58715-.14771-4.05255-2.12843-4.38914-2.50917-.40154-.45441-.36165-1.43498.078-1.94229.69816-.80396 1.22859-.71113 3.53193.61929zm36.28421 4.36503c.59061.59062.63744 1.44322.10664 1.96634-.63659.62792-4.16165 2.49054-4.71369 2.49054-1.09546 0-1.82909-1.43384-1.19606-2.33761.36426-.52037 4.22367-2.58329 4.83232-2.58329.34864 0 .65132.14488.97057.46402zm-27.56726.62442c2.3944 1.37318 2.6329 1.58368 2.6329 2.32326 0 .3182-.078.72247-.1717.89851-.24804.46319-1.11757.78839-1.67489.6262-.50043-.14571-3.9797-2.13038-4.3169-2.46238-.11625-.11344-.24974-.49957-.29749-.856-.078-.57073-.026-.70771.39635-1.13304.745-.74581 1.22563-.66088 3.43131.60445zm18.94057 18.79407c.48654.52648 2.26491 3.8607 2.26491 4.24737 0 .94718-.95409 1.7158-1.87792 1.51296-.61577-.13535-.77362-.33219-1.84896-2.30778-1.12252-2.06237-1.22772-2.60425-.64092-3.30153.35732-.4241.53858-.50822 1.10014-.50822.49349 0 .76061.0954 1.00284.35732zm3.95472 7.80591c.40328.17857.6999.5993 1.54767 2.19731 1.16622 2.19816 1.27698 2.75972.66521 3.37142-.51691.51693-1.12609.64959-1.71141.37203-.64786-.30694-2.56126-3.74214-2.57305-4.61924-.0176-1.07202 1.07074-1.76439 2.0715-1.32169zm6.12847 6.98498c3.23956 1.15607 3.98949 5.36802 1.35695 7.62141-1.74783 1.49605-4.27041 1.36363-5.94626-.31205-1.78547-1.78545-1.77922-4.4027.0176-6.19674 1.23433-1.23439 3.01762-1.66802 4.57438-1.11246z" stroke-width=".599959"/><g transform="translate(-29.857119 197.02112)"><g transform="matrix(1.8224234 0 0 1.8224234 -68.586524 -59.923346)"><path d="m108.86906 44.633785c-1.92434 0-3.7096.329148-5.35541.987459-1.62051.633017-3.0382 1.544208-4.253571 2.734257-1.19005 1.164725-2.126862 2.583067-2.810509 4.254205-.658325 1.671128-.987458 3.519147-.987458 5.544763 0 2.000305.329133 3.861107.987458 5.58289.683647 1.721765 1.620459 3.215674 2.810509 4.48169 1.215371 1.240693 2.633061 2.228732 4.253571 2.963011 1.64581.708975 3.43135 1.096336 5.35541 1.063075l5.6693-.09786v-4.823551l-5.6693.09786c-1.2407 0-2.39266-.227954-3.45611-.683722-1.03813-.455759-1.93716-1.075626-2.69677-1.86054-.75961-.810259-1.35447-1.77267-1.78492-2.886761-.43044-1.114098-.64559-2.316635-.64559-3.607971 0-1.316652.21515-2.519843.64559-3.608609.43045-1.088777 1.02531-2.025574 1.78492-2.810509.75961-.784923 1.65864-1.392603 2.69677-1.823048 1.06345-.455769 2.21559-.704533 3.45611-.683088l5.6693.09786v-4.823554zm10.72224.185546v4.823551l4.24214.07307v-4.823551zm4.24214 22.343633-4.24214.07308v4.823551l4.24214-.07308z" fill="#b0bccf" stroke="#b0bccf" stroke-width="1.22963"/><path d="m83.39564 72.86192v-29.234034h5.106903v29.234034z" stroke-width=".692748"/></g><path d="m192.22345 72.48702c-3.58109 0-6.90299-.659674-9.96577-1.979-3.01563-1.366462-5.65432-3.204121-7.91602-5.512979-2.21466-2.355972-3.95805-5.136007-5.23028-8.340127-1.2251-3.204122-1.83766-6.667387-1.83766-10.38982 0-3.769567.61256-7.209276 1.83766-10.319148 1.27223-3.109873 3.01562-5.748567 5.23028-7.916064 2.2617-2.21461 4.90039-3.910907 7.91602-5.088893 3.06278-1.2251 6.38468-1.83766 9.96577-1.83766h27.84756v8.976245h-27.84756c-2.30883 0-4.4528.424085-6.4318 1.272234-1.9319.801035-3.60465 1.931885-5.01822 3.392596-1.41354 1.460688-2.52087 3.20412-3.32192 5.230254-.80101 2.026135-1.20152 4.264301-1.20152 6.714522 0 2.403086.40051 4.641252 1.20152 6.7145.80105 2.073247 1.90838 3.863793 3.32192 5.371617 1.41357 1.460709 3.08632 2.615138 5.01822 3.463266 1.979.84817 4.12297 1.272233 6.4318 1.272233h21.98119v-13.358351h-23.18275v-7.562648h32.22966v29.897244z" stroke-width="1.23805"/></g></g><path d="m63.304739 302.80239h51.149591v39.91076c0 33.58458-51.848291 32.48924-51.848291 0z" fill="none" stroke="#b0bccf" stroke-width="8.39786"/><path d="m4.8976388 4.1989298h51.1495772v39.9107582c0 33.584574-51.8482862 32.489238-51.8482862 0z" fill="none" stroke="#b0bccf" stroke-width="8.39786"/><g fill="#b0bccf" transform="matrix(2.000607 1.1550509 -1.1550509 2.000607 -114.54424 -361.12059)"><rect height="6.677884" ry=".917437" width="1.109652" x="133.26457" y="113.53527"/><rect height="6.677884" ry=".917437" width="1.109652" x="145.20386" y="113.53527"/><rect height="14.584357" ry="1.550303" width="1.621357" x="135.81224" y="109.58203"/><rect height="14.584357" ry="1.550303" width="1.621357" x="142.14449" y="109.58203"/><rect height="20.411003" ry="2.16967" width="1.834875" x="138.87161" y="106.66871"/></g><g fill="#b0bccf" stroke-width=".715877" transform="matrix(1.3467588 0 0 1.3467588 -106.93441 30.218159)"><path d="m149.74457.19113632q-2.17627 0-4.03756-.801776-1.83265-.83042902-3.20713-2.23354302-1.34584-1.431739-2.11899-3.37894-.74452-1.947173-.74452-4.2093413 0-2.290823.74452-4.180744.77315-1.889893 2.11899-3.207128 1.37448-1.345835 3.20713-2.061706 1.86129-.744523 4.03756-.744523h5.0684q2.26217 0 4.12346.744523 1.88989.744496 3.23576 2.090358 1.34583 1.345834 2.09036 3.235755.74449 1.861296.74449 4.123465 0 2.2621683-.77312 4.2093413-.74452 1.947201-2.11901 3.37894-1.34584 1.403114-3.20713 2.23354302-1.86127.801776-4.09481.801776zm5.0684-3.63665702q1.43176 0 2.63441-.515434 1.20268-.515432 2.06174-1.403113.88768-.916334 1.37448-2.176263.48681-1.259957.48681-2.7203223 0-1.460394-.48681-2.691697-.4868-1.259956-1.37448-2.147638-.85906-.887681-2.06174-1.374488-1.20265-.515432-2.63441-.515432h-5.0684q-1.40314 0-2.60579.515432-1.17406.486807-2.03311 1.374488-.85906.887682-1.34584 2.118984-.4868 1.231304-.4868 2.720351 0 1.4603653.4868 2.7203223.48678 1.259929 1.34584 2.176263.85905.887681 2.03311 1.403113 1.20265.515434 2.60579.515434z"/><path d="m167.95643.19113632v-3.63665702h15.60612q1.46039 0 2.23351-.744497.80181-.744522.80181-1.975826 0-1.345861-.80181-2.004452-.77312-.687243-2.23351-.687243h-9.56411q-1.4604 0-2.66307-.429529-1.17405-.458153-2.00445-1.2313023-.80178-.801803-1.25996-1.889921-.42953-1.088145-.42953-2.376728 0-1.259929.4009-2.319421.42953-1.088145 1.23131-1.861295.83042-.773149 2.0331-1.202676 1.20265-.458154 2.74895-.458154h14.9475v3.636657h-14.9475q-1.25993 0-1.94717.687243-.68725.658618-.68725 1.861269 0 1.202675.68725 1.861294.71587.658591 1.91854.658591h9.53549q3.17847 0 4.81068 1.489047 1.66083 1.4890193 1.66083 4.5243373 0 1.317209-.40088 2.433981-.4009 1.11677-1.20267 1.947173-.80178.80180302-2.03311 1.25995502-1.20265.458154-2.83485.458154z"/><path d="m193.35572.19113632v-20.81770132h3.63666v20.81770132z"/><path d="m204.17973-15.042736v15.23387232h-3.46485v-18.89915432q0-1.002213.48678-1.574925.51544-.601338 1.37449-.601338.4009 0 .77315.171811.37225.171811.77315.572712l14.68985 14.5752533v-15.2338713h3.46487v19.0709653q0 1.03086602-.51544 1.60357902-.48678.572685-1.28859.572685-.88768 0-1.66084-.77315z"/><path d="m232.47127.19113632v-17.18104432h-7.9033v-3.636657h19.44324v3.636657h-7.90327v17.18104432z"/></g><g fill="#b0bccf" stroke-width=".715877" transform="matrix(1.3467588 0 0 1.3467588 -108.04477 30.218159)"><path d="m140.46084 26.68477v-20.817701h15.23379q1.51767 0 2.74897.3436219 1.25993.343622 2.14764 1.030866.88768.6585907 1.37448 1.6894568.48678 1.0022394.48678 2.3194473 0 1.002214-.22917 1.746736-.22917.744497-.62999 1.288583-.40087.515433-.94496.887682-.51542.343621-1.08811.515432 1.43173.458153 2.34808 1.660831.91629 1.202676.91629 3.035319 0 1.431766-.48676 2.60579-.45817 1.145398-1.34588 1.975828-.85904.830401-2.11897 1.288581-1.23131.429527-2.74898.429527zm6.27104-9.048703v-3.063945h8.9914q1.54627 0 2.29079-.572711.74454-.572685.74454-1.947174 0-.830428-.31501-1.317208-.31499-.515432-.91633-.7731493-.57269-.2863435-1.40311-.3722476-.80178-.086037-1.80401-.086037h-10.22267v13.5730129h10.53765q.9736 0 1.80402-.143134.8304-.143133 1.43174-.458151.60135-.343624.91633-.859057.34363-.515433.34363-1.288581 0-1.288556-.80177-1.975801-.80181-.715897-2.34809-.715897z"/><path d="m184.61602 5.867069h3.55074v11.62584q0 2.405326-.62994 4.209343-.62997 1.775389-1.97584 2.949412-1.34584 1.174052-3.49348 1.746737-2.11897.572712-5.15429.572712-3.0067 0-5.15433-.572712-2.11898-.572685-3.46485-1.746737-1.34583-1.174023-1.97582-2.949412-.62997-1.804017-.62997-4.209343v-11.62584h3.75119v11.62584q0 1.574925.37227 2.691697.40087 1.116772 1.25993 1.832641.88768.715871 2.34807 1.059492 1.4604.314996 3.60804.314996 2.14763 0 3.608-.314996 1.4604-.343621 2.31946-1.059492.88767-.715869 1.25994-1.832641.40088-1.116772.40088-2.691697z"/><path d="m191.45981 26.68477v-20.817701h12.05537q2.20488 0 4.06618.7444961 1.86126.7445236 3.20713 2.0903583 1.34584 1.3458616 2.09036 3.2357826.77315 1.861267.77315 4.123437 0 2.262169-.77315 4.209369-.74452 1.947172-2.09036 3.37894-1.34587 1.403114-3.20713 2.233516-1.8613.801802-4.06618.801802zm12.05537-3.636657q1.40312 0 2.57716-.515433 1.20267-.515433 2.06173-1.403113.88768-.916334 1.37446-2.176263.48681-1.259957.48681-2.720351 0-1.460393-.48681-2.691697-.48678-1.259929-1.37446-2.147636-.85906-.887681-2.06173-1.374461-1.17404-.5154326-2.57716-.5154326h-8.44734v13.5443866z"/><path d="m216.63004 26.68477v-20.817701h12.05537q2.20489 0 4.06618.7444961 1.86128.7445236 3.20713 2.0903583 1.34582 1.3458616 2.09036 3.2357826.77314 1.861267.77314 4.123437 0 2.262169-.77314 4.209369-.74454 1.947172-2.09036 3.37894-1.34585 1.403114-3.20713 2.233516-1.86129.801802-4.06618.801802zm12.05537-3.636657q1.4031 0 2.57712-.515433 1.2027-.515433 2.06175-1.403113.88767-.916334 1.37448-2.176263.48681-1.259957.48681-2.720351 0-1.460393-.48681-2.691697-.48681-1.259929-1.37448-2.147636-.85905-.887681-2.06175-1.374461-1.17402-.5154326-2.57712-.5154326h-8.44737v13.5443866z"/><path d="m248.41493 26.68477v-7.903279l-11.05315-12.914422h4.89661l8.10371 9.592735 8.13238-9.592735h4.63887l-11.08179 12.914422v7.903279z"/></g></svg>