<svg height="76.004349mm" viewBox="0 0 499.58765 76.00435" width="499.58768mm" xmlns="http://www.w3.org/2000/svg" xmlns:xlink="http://www.w3.org/1999/xlink"><linearGradient id="a"><stop offset="0" stop-color="#b0bccf"/><stop offset="1" stop-color="#b0bccf" stop-opacity="0"/></linearGradient><linearGradient id="b" gradientUnits="userSpaceOnUse" x1="235.238293" x2="373.76511" xlink:href="#a" y1="413.01936" y2="413.01936"/><linearGradient id="c" gradientUnits="userSpaceOnUse" x1="252.824633" x2="391.35145" xlink:href="#a" y1="370.73733" y2="370.73733"/><path d="m159.80716 273.41243h51.14958v39.91076c0 33.58458-51.84829 32.48924-51.84829 0z" fill="none" stroke="#b0bccf" stroke-width="8.39786"/><g fill="#b0bccf" transform="translate(154.90952 269.2135)"><g transform="matrix(2.000607 1.1550509 -1.1550509 2.000607 -114.54424 -361.12059)"><rect height="6.677884" ry=".917437" width="1.109652" x="133.26457" y="113.53527"/><rect height="6.677884" ry=".917437" width="1.109652" x="145.20386" y="113.53527"/><rect height="14.584357" ry="1.550303" width="1.621357" x="135.81224" y="109.58203"/><rect height="14.584357" ry="1.550303" width="1.621357" x="142.14449" y="109.58203"/><rect height="20.411003" ry="2.16967" width="1.834875" x="138.87161" y="106.66871"/></g><g stroke-width=".715877"><g transform="matrix(1.3467588 0 0 1.3467588 -106.93441 30.218159)"><path d="m149.74457.19113632q-2.17627 0-4.03756-.801776-1.83265-.83042902-3.20713-2.23354302-1.34584-1.431739-2.11899-3.37894-.74452-1.947173-.74452-4.2093413 0-2.290823.74452-4.180744.77315-1.889893 2.11899-3.207128 1.37448-1.345835 3.20713-2.061706 1.86129-.744523 4.03756-.744523h5.0684q2.26217 0 4.12346.744523 1.88989.744496 3.23576 2.090358 1.34583 1.345834 2.09036 3.235755.74449 1.861296.74449 4.123465 0 2.2621683-.77312 4.2093413-.74452 1.947201-2.11901 3.37894-1.34584 1.403114-3.20713 2.23354302-1.86127.801776-4.09481.801776zm5.0684-3.63665702q1.43176 0 2.63441-.515434 1.20268-.515432 2.06174-1.403113.88768-.916334 1.37448-2.176263.48681-1.259957.48681-2.7203223 0-1.460394-.48681-2.691697-.4868-1.259956-1.37448-2.147638-.85906-.887681-2.06174-1.374488-1.20265-.515432-2.63441-.515432h-5.0684q-1.40314 0-2.60579.515432-1.17406.486807-2.03311 1.374488-.85906.887682-1.34584 2.118984-.4868 1.231304-.4868 2.720351 0 1.4603653.4868 2.7203223.48678 1.259929 1.34584 2.176263.85905.887681 2.03311 1.403113 1.20265.515434 2.60579.515434z"/><path d="m167.95643.19113632v-3.63665702h15.60612q1.46039 0 2.23351-.744497.80181-.744522.80181-1.975826 0-1.345861-.80181-2.004452-.77312-.687243-2.23351-.687243h-9.56411q-1.4604 0-2.66307-.429529-1.17405-.458153-2.00445-1.2313023-.80178-.801803-1.25996-1.889921-.42953-1.088145-.42953-2.376728 0-1.259929.4009-2.319421.42953-1.088145 1.23131-1.861295.83042-.773149 2.0331-1.202676 1.20265-.458154 2.74895-.458154h14.9475v3.636657h-14.9475q-1.25993 0-1.94717.687243-.68725.658618-.68725 1.861269 0 1.202675.68725 1.861294.71587.658591 1.91854.658591h9.53549q3.17847 0 4.81068 1.489047 1.66083 1.4890193 1.66083 4.5243373 0 1.317209-.40088 2.433981-.4009 1.11677-1.20267 1.947173-.80178.80180302-2.03311 1.25995502-1.20265.458154-2.83485.458154z"/><path d="m193.35572.19113632v-20.81770132h3.63666v20.81770132z"/><path d="m204.17973-15.042736v15.23387232h-3.46485v-18.89915432q0-1.002213.48678-1.574925.51544-.601338 1.37449-.601338.4009 0 .77315.171811.37225.171811.77315.572712l14.68985 14.5752533v-15.2338713h3.46487v19.0709653q0 1.03086602-.51544 1.60357902-.48678.572685-1.28859.572685-.88768 0-1.66084-.77315z"/><path d="m232.47127.19113632v-17.18104432h-7.9033v-3.636657h19.44324v3.636657h-7.90327v17.18104432z"/></g><g transform="matrix(1.3467588 0 0 1.3467588 -108.04477 30.218159)"><path d="m140.46084 26.68477v-20.817701h15.23379q1.51767 0 2.74897.3436219 1.25993.343622 2.14764 1.030866.88768.6585907 1.37448 1.6894568.48678 1.0022394.48678 2.3194473 0 1.002214-.22917 1.746736-.22917.744497-.62999 1.288583-.40087.515433-.94496.887682-.51542.343621-1.08811.515432 1.43173.458153 2.34808 1.660831.91629 1.202676.91629 3.035319 0 1.431766-.48676 2.60579-.45817 1.145398-1.34588 1.975828-.85904.830401-2.11897 1.288581-1.23131.429527-2.74898.429527zm6.27104-9.048703v-3.063945h8.9914q1.54627 0 2.29079-.572711.74454-.572685.74454-1.947174 0-.830428-.31501-1.317208-.31499-.515432-.91633-.7731493-.57269-.2863435-1.40311-.3722476-.80178-.086037-1.80401-.086037h-10.22267v13.5730129h10.53765q.9736 0 1.80402-.143134.8304-.143133 1.43174-.458151.60135-.343624.91633-.859057.34363-.515433.34363-1.288581 0-1.288556-.80177-1.975801-.80181-.715897-2.34809-.715897z"/><path d="m184.61602 5.867069h3.55074v11.62584q0 2.405326-.62994 4.209343-.62997 1.775389-1.97584 2.949412-1.34584 1.174052-3.49348 1.746737-2.11897.572712-5.15429.572712-3.0067 0-5.15433-.572712-2.11898-.572685-3.46485-1.746737-1.34583-1.174023-1.97582-2.949412-.62997-1.804017-.62997-4.209343v-11.62584h3.75119v11.62584q0 1.574925.37227 2.691697.40087 1.116772 1.25993 1.832641.88768.715871 2.34807 1.059492 1.4604.314996 3.60804.314996 2.14763 0 3.608-.314996 1.4604-.343621 2.31946-1.059492.88767-.715869 1.25994-1.832641.40088-1.116772.40088-2.691697z"/><path d="m191.45981 26.68477v-20.817701h12.05537q2.20488 0 4.06618.7444961 1.86126.7445236 3.20713 2.0903583 1.34584 1.3458616 2.09036 3.2357826.77315 1.861267.77315 4.123437 0 2.262169-.77315 4.209369-.74452 1.947172-2.09036 3.37894-1.34587 1.403114-3.20713 2.233516-1.8613.801802-4.06618.801802zm12.05537-3.636657q1.40312 0 2.57716-.515433 1.20267-.515433 2.06173-1.403113.88768-.916334 1.37446-2.176263.48681-1.259957.48681-2.720351 0-1.460393-.48681-2.691697-.48678-1.259929-1.37446-2.147636-.85906-.887681-2.06173-1.374461-1.17404-.5154326-2.57716-.5154326h-8.44734v13.5443866z"/><path d="m216.63004 26.68477v-20.817701h12.05537q2.20489 0 4.06618.7444961 1.86128.7445236 3.20713 2.0903583 1.34582 1.3458616 2.09036 3.2357826.77314 1.861267.77314 4.123437 0 2.262169-.77314 4.209369-.74454 1.947172-2.09036 3.37894-1.34585 1.403114-3.20713 2.233516-1.86129.801802-4.06618.801802zm12.05537-3.636657q1.4031 0 2.57712-.515433 1.2027-.515433 2.06175-1.403113.88767-.916334 1.37448-2.176263.48681-1.259957.48681-2.720351 0-1.460393-.48681-2.691697-.48681-1.259929-1.37448-2.147636-.85905-.887681-2.06175-1.374461-1.17402-.5154326-2.57712-.5154326h-8.44737v13.5443866z"/><path d="m248.41493 26.68477v-7.903279l-11.05315-12.914422h4.89661l8.10371 9.592735 8.13238-9.592735h4.63887l-11.08179 12.914422v7.903279z"/></g></g></g><path d="m220.95508 399.63356c1.19733.32192 1.97921 1.53061 1.76391 2.72691-.0967.53749-.31685.94222-.73573 1.35272l-.36157.35439.60185 2.36734c.33104 1.30207.60189 2.38306.60189 2.40228 0 .0185.12077.0352.26843.0358 1.09307.005 2.3147.79757 2.8096 1.82649.35373.73545.44281 1.40894.28541 2.15841-.23476 1.11741-1.09438 2.0875-2.18548 2.46594-.74753.25916-1.80496.19151-2.50205-.16061l-.27799-.14024-.76785.80922c-.42237.44506-1.6638 1.74812-2.75879 2.89567l-1.99091 2.08648.0877.16959c.1529.29559.22734.80689.18378 1.26276-.10533 1.10229-.91509 1.9393-2.05982 2.129-.67836.11247-1.42364-.12265-1.94988-.61482-1.43297-1.3404-.80486-3.67401 1.10972-4.12289.43849-.10292.81212-.0845 1.27881.0628l.30487.0961.67994-.69922c.73073-.75151 3.74385-3.91076 4.41561-4.62975l.40828-.43701-.19583-.38861c-.1183-.23474-.23351-.58734-.29128-.8906-.16185-.8494.0247-1.69565.53722-2.45199.24834-.36555.64624-.74515.98441-.93885.11644-.0667.2122-.14671.21282-.17761.00092-.0311-.26935-1.12825-.60047-2.43816l-.60186-2.38161-.28294-.0333c-.96418-.11429-1.81011-.98551-1.9728-2.03204-.2607-1.67638 1.35142-3.10758 3.0007-2.66415zm-1.23618 1.1525c-.42796.2184-.69165.66813-.6961 1.18726-.009 1.1681 1.41302 1.7423 2.25596.91029.69023-.68131.41286-1.8382-.52408-2.18585-.27398-.10154-.74144-.0617-1.03578.0883zm2.49362 9.67176c-.39528.17483-.70528.46369-.91726.85472-.1807.33321-.19398.39342-.19306.86691.001.60302.12881.92389.5235 1.31892.36093.36114.78416.53611 1.31096.54197.37449.005.47454-.0185.80535-.181.4566-.22455.78478-.57647.95269-1.0214.16742-.44376.13468-1.05572-.0803-1.49514-.42629-.87126-1.52094-1.27461-2.40181-.88493zm-8.98863 10.26085c-.58756.17452-.93798.64869-.93829 1.26964-.00019.39706.0939.64162.3558.92386.6093.65689 1.72076.49351 2.12212-.31192.39833-.79936-.0571-1.74029-.92721-1.91585-.2956-.0596-.29622-.0596-.61242.0342zm-.91658-16.19663c.54336.11091 1.04535.59268 1.19529 1.14691.0945.34981.0321.82901-.15228 1.16802-.28449.52263-.77487.8081-1.3796.80306-.61906-.006-1.09481-.28385-1.38803-.81317-.14548-.26285-.1668-.35817-.1668-.75325 0-.39672.0216-.48994.16958-.75888.3386-.61206 1.0355-.93293 1.72178-.79269zm19.26734 1.91417c.40507.18968.62428.39557.80352.75428.61165 1.224-.51975 2.60369-1.8242 2.22448-1.12115-.32594-1.53008-1.67829-.7689-2.543.32544-.36975.60637-.50142 1.12492-.5273.33687-.0154.47346.003.66466.0917zm-15.95747.93349c.90716.52398 1.05221.71182.85069 1.10151-.0985.19088-.36855.31468-.57368.26317-.20912-.0526-1.44332-.75804-1.5632-.89364-.14301-.16184-.1288-.51107.0278-.69175.24865-.28633.43756-.25327 1.2579.22056zm12.92266 1.55461c.21035.21035.22703.51401.038.70032-.22672.22363-1.48218.887-1.67878.887-.39015 0-.65144-.51066-.42598-.83254.12973-.18533 1.50426-.92004 1.72103-.92004.12417 0 .23197.0516.34567.16526zm-9.81811.22239c.85277.48906.93771.56403.93771.82743 0 .11333-.0278.25731-.0611.32001-.0883.16496-.39802.28078-.59651.22302-.17823-.0519-1.41738-.75874-1.53747-.87698-.0414-.0404-.089-.17792-.10595-.30487-.0278-.20326-.009-.25205.14115-.40353.26534-.26562.43652-.23537 1.22207.21528zm6.74571 6.69353c.17328.1875.80665 1.37499.80665 1.5127 0 .33734-.33981.61109-.66883.53884-.21931-.0482-.27552-.11831-.65851-.82191-.39978-.73452-.43725-.92751-.22826-1.17585.12726-.15104.19181-.181.39182-.181.17575 0 .27089.034.35716.12726zm1.40847 2.78008c.14363.0636.24927.21344.55121.78257.41535.78288.45479.98288.23691 1.20074-.18409.1841-.40105.23135-.60952.1325-.23074-.10932-.91219-1.33277-.9164-1.64515-.006-.3818.38135-.62839.73777-.47072zm2.18267 2.48771c1.15377.41173 1.42086 1.91182.48327 2.71437-.62249.53282-1.52091.48566-2.11776-.11114-.6359-.63589-.63367-1.56802.006-2.20697.4396-.43963 1.07473-.59407 1.62917-.39621z" fill="#b0bccf" stroke-width=".213676"/><path d="m141.74989 404.43253h31.220833v31.220833h-31.220833z" fill="none" stroke="#b0bccf" stroke-width="2.427"/><text style="font-size:25.4;font-family:Good Times;letter-spacing:-.134937;word-spacing:-.690562;stroke:#b0bccf;stroke-width:1.3;fill:url(#b)" x="233.9603" y="422.25226"><tspan fill="url(#b)" stroke-width="1.3" x="233.9603" y="422.25226"><tspan fill="url(#b)" stroke-width="1.3">i<tspan fill="url(#b)" stroke-width="1.3">c</tspan></tspan><tspan fill="url(#b)" stroke="none" stroke-width="1.3">GRAPH</tspan></tspan></text><path d="m238.54142 357.35153c1.19732.32192 1.9792 1.53061 1.76391 2.72691-.0967.53749-.31685.94222-.73573 1.35272l-.36158.35439.60186 2.36734c.33103 1.30207.60189 2.38306.60189 2.40228 0 .0185.12077.0352.26842.0358 1.09307.005 2.31471.79757 2.8096 1.82649.35373.73545.44282 1.40893.28541 2.1584-.23475 1.11741-1.09437 2.0875-2.18547 2.46594-.74753.25916-1.80496.19151-2.50205-.16061l-.278-.14024-.76785.80922c-.42237.44506-1.6638 1.74812-2.75879 2.89567l-1.99091 2.08648.0877.16959c.1529.29559.22734.80689.18379 1.26276-.10534 1.10229-.9151 1.9393-2.05982 2.129-.67837.11247-1.42364-.12265-1.94989-.61482-1.43297-1.3404-.80485-3.67401 1.10973-4.12289.43849-.10292.81211-.0845 1.27881.0628l.30486.0961.67995-.69922c.73072-.75151 3.74385-3.91076 4.41561-4.62975l.40828-.43701-.19583-.38861c-.11831-.23474-.23352-.58734-.29128-.8906-.16185-.8494.0247-1.69564.53721-2.45198.24834-.36555.64625-.74515.98441-.93885.11645-.0667.2122-.14671.21282-.17761.00092-.0311-.26934-1.12825-.60047-2.43816l-.60186-2.38161-.28293-.0333c-.96418-.11429-1.81012-.98551-1.97281-2.03204-.2607-1.67638 1.35143-3.10758 3.00071-2.66415zm-1.23618 1.1525c-.42796.2184-.69165.66813-.6961 1.18726-.009 1.1681 1.41301 1.7423 2.25596.91029.69023-.68131.41285-1.8382-.52408-2.18585-.27398-.10154-.74145-.0617-1.03578.0883zm2.49361 9.67176c-.39528.17483-.70527.46369-.91726.85472-.1807.3332-.19398.39341-.19305.8669.001.60302.1288.92389.5235 1.31892.36093.36114.78416.53611 1.31096.54197.37449.005.47454-.0185.80535-.181.45659-.22455.78478-.57647.95269-1.0214.16741-.44376.13467-1.05572-.0803-1.49513-.42629-.87126-1.52094-1.27461-2.40181-.88493zm-8.98863 10.26084c-.58755.17452-.93798.64869-.93829 1.26964-.00018.39706.0939.64162.3558.92386.60931.65689 1.72076.49351 2.12212-.31192.39834-.79936-.0571-1.74029-.9272-1.91585-.2956-.0596-.29622-.0596-.61243.0342zm-.91658-16.19662c.54336.11091 1.04536.59268 1.19529 1.14691.0945.34981.0321.82901-.15228 1.16802-.28448.52263-.77486.8081-1.3796.80306-.61906-.006-1.0948-.28385-1.38802-.81317-.14549-.26285-.1668-.35817-.1668-.75325 0-.39672.0216-.48994.16958-.75888.33859-.61206 1.03549-.93293 1.72177-.79269zm19.26734 1.91417c.40507.18968.62428.39557.80353.75428.61165 1.224-.51976 2.60369-1.8242 2.22448-1.12116-.32594-1.53009-1.67829-.76891-2.543.32544-.36975.60637-.50142 1.12493-.5273.33686-.0154.47345.003.66465.0917zm-15.95746.93349c.90715.52398 1.05221.71182.85069 1.10151-.0985.19088-.36856.31468-.57369.26317-.20911-.0526-1.44332-.75804-1.56319-.89364-.14302-.16184-.12881-.51107.0278-.69175.24865-.28633.43756-.25327 1.25789.22056zm12.92265 1.55461c.21035.21035.22703.51401.038.70032-.22672.22363-1.48217.887-1.67878.887-.39015 0-.65143-.51066-.42598-.83254.12973-.18533 1.50426-.92004 1.72104-.92004.12417 0 .23197.0516.34567.16526zm-9.8181.22239c.85276.48906.93771.56403.93771.82743 0 .11333-.0278.25731-.0611.32001-.0883.16496-.39803.28078-.59652.22302-.17822-.0519-1.41737-.75874-1.53746-.87698-.0414-.0404-.0889-.17792-.10596-.30487-.0278-.20326-.009-.25205.14116-.40353.26533-.26562.43651-.23537 1.22207.21528zm6.7457 6.69352c.17329.1875.80665 1.37499.80665 1.5127 0 .33734-.3398.61109-.66883.53884-.2193-.0482-.27552-.11831-.6585-.82191-.39979-.73452-.43726-.92751-.22827-1.17585.12726-.15104.19182-.181.39182-.181.17575 0 .27089.034.35716.12726zm1.40848 2.78008c.14363.0636.24927.21344.5512.78257.41536.78288.4548.98288.23691 1.20074-.18409.1841-.40105.23135-.60952.1325-.23073-.10932-.91219-1.33277-.91639-1.64515-.006-.3818.38135-.62839.73777-.47072zm2.18266 2.48771c1.15377.41173 1.42086 1.91182.48328 2.71437-.62249.53282-1.52091.48566-2.11777-.11114-.63589-.63589-.63367-1.56802.006-2.20697.4396-.43963 1.07473-.59407 1.62917-.39621z" fill="#b0bccf" stroke-width=".213676"/><text style="font-size:25.4;font-family:Good Times;letter-spacing:-.134937;word-spacing:-.690562;stroke:#b0bccf;stroke-width:1.3;fill:url(#c)" x="251.54663" y="379.97021"><tspan fill="url(#c)" stroke-width="1.3" x="251.54663" y="379.97021"><tspan fill="url(#c)" stroke-width="1.3">i<tspan fill="url(#c)" stroke-width="1.3">c</tspan></tspan><tspan fill="url(#c)" stroke="none" stroke-width="1.3">GRAPH</tspan></tspan></text><g fill="#b0bccf"><path d="m27.47537 8.42635c2.86867.77128 4.74198 3.66719 4.22615 6.5334-.23163 1.28778-.75914 2.25747-1.76273 3.24099l-.8663.84908 1.44199 5.67192c.79312 3.11963 1.44207 5.70957 1.44207 5.75562 0 .0443.28934.0843.64311.0858 2.6189.0121 5.54581 1.9109 6.73153 4.3761.84751 1.76206 1.06094 3.37568.68382 5.17133-.56245 2.67721-2.62203 5.00145-5.23619 5.90815-1.79101.62092-4.32451.45884-5.99467-.3848l-.66604-.336-1.8397 1.93881c-1.01195 1.06632-3.9863 4.18832-6.60979 6.93774l-4.77002 4.999.21017.40632c.36632.70821.54468 1.93323.44033 3.02545-.25238 2.64098-2.19248 4.64637-4.93513 5.10087-1.6253.26947-3.4109-.29385-4.67174-1.47305-3.43325-3.21146-1.92835-8.80256 2.65881-9.87803 1.05058-.24659 1.94574-.20246 3.06389.15046l.73043.23025 1.62909-1.67527c1.75074-1.80054 8.96989-9.3698 10.57936-11.09242l.9782-1.04704-.4692-.93106c-.28344-.56243-.55947-1.40722-.69787-2.1338-.38779-2.03508.0592-4.06261 1.28711-5.87472.595-.87583 1.54833-1.78531 2.35856-2.2494.27899-.15981.5084-.3515.50989-.42553.002-.0745-.64533-2.70318-1.43867-5.84159l-1.44199-5.70611-.6779-.0798c-2.31007-.27383-4.33685-2.36118-4.72664-4.86857-.62461-4.01644 3.23788-7.44545 7.1894-6.38305zm-2.96177 2.76127c-1.02534.52326-1.65713 1.60078-1.66778 2.84456-.0223 2.79865 3.38544 4.17438 5.40505 2.18096 1.65373-1.63235.98917-4.40414-1.25564-5.23708-.65644-.24328-1.77643-.14783-2.48163.21156zm5.97446 23.17259c-.94705.41887-1.68977 1.11096-2.19766 2.04782-.43294.79834-.46475.9426-.46254 2.07703.002 1.44478.3086 2.21356 1.25425 3.16001.86475.86525 1.87877 1.28447 3.14093 1.2985.89724.0121 1.13695-.0443 1.92955-.43365 1.09394-.538 1.88025-1.38117 2.28254-2.44718.40111-1.0632.32266-2.5294-.19244-3.58221-1.02134-2.08745-3.64402-3.05384-5.7545-2.1202zm-21.53587 24.58399c-1.40773.41813-2.24732 1.5542-2.24806 3.04193-.00044.95131.225 1.53726.85247 2.21348 1.45983 1.57384 4.12276 1.1824 5.08439-.74733.95437-1.91519-.13689-4.16957-2.22149-4.59019-.70824-.1428-.70971-.1428-1.46731.0819zm-2.19604-38.80554c1.30184.26573 2.50457 1.42 2.86379 2.74789.22649.83811.077 1.98622-.36484 2.79846-.68159 1.25217-1.8565 1.93612-3.30539 1.92405-1.48321-.0144-2.62304-.68008-3.32557-1.94827-.34856-.62976-.39963-.85814-.39963-1.80472 0-.9505.0518-1.17385.40629-1.8182.81125-1.46643 2.48095-2.23521 4.12521-1.89921zm46.16265 4.58616c.9705.45446 1.49572.94775 1.92517 1.80718 1.46546 2.93259-1.24529 6.2382-4.37061 5.32964-2.68617-.78092-3.66593-4.02102-1.84221-6.09278.77971-.88588 1.4528-1.20135 2.6952-1.26335.8071-.0369 1.13436.007 1.59245.2197zm-38.23252 2.23656c2.17347 1.2554 2.521 1.70545 2.03818 2.63911-.23609.45733-.88303.75394-1.37451.63053-.50101-.12604-3.45805-1.81619-3.74526-2.14108-.34264-.38775-.3086-1.22447.0666-1.65736.59574-.68602 1.04836-.60681 3.0138.52844zm30.96142 3.72469c.50397.50398.54393 1.23151.091 1.67789-.5432.5358-3.55115 2.12518-4.0222 2.12518-.93476 0-1.56077-1.2235-1.02061-1.99469.31083-.44403 3.60407-2.20433 4.12344-2.20433.29749 0 .55577.12363.82819.39595zm-23.52322.53282c2.04315 1.17174 2.24666 1.35136 2.24666 1.98245 0 .27152-.0666.61648-.14651.7667-.21166.39524-.95363.67273-1.42919.53434-.42702-.12434-3.39589-1.81786-3.68362-2.10116-.0992-.0968-.21311-.42628-.25385-.73043-.0666-.487-.0222-.60389.3382-.96682.63571-.6364 1.04584-.56393 2.92795.51578zm16.16204 16.03704c.41517.44924 1.93266 3.29434 1.93266 3.62429 0 .80823-.81413 1.4641-1.60244 1.29101-.52544-.11549-.66013-.28346-1.57772-1.96923-.95785-1.75983-1.04762-2.22222-.5469-2.81721.3049-.36188.45957-.43366.93875-.43366.4211 0 .64903.0814.85573.3049zm3.37458 6.6608c.34412.15238.59722.51139 1.32063 1.87497.99514 1.8757 1.08965 2.35488.56762 2.87685-.44108.44109-.96089.55429-1.46035.31745-.55282-.26191-2.18553-3.19318-2.19559-3.94161-.015-.91476.91367-1.50556 1.76762-1.1278zm5.22944 5.96031c2.76432.98647 3.40424 4.58054 1.15789 6.50337-1.49143 1.27658-3.64396 1.16359-5.07396-.26628-1.52355-1.52353-1.51822-3.75683.015-5.28769 1.05325-1.05331 2.57494-1.42333 3.90333-.94927z" stroke-width=".511947"/><path d="m150.91548 65.072281c-2.89253 0-5.57572-.53283-8.04959-1.59849-2.4358-1.10373-4.56713-2.58805-6.39399-4.45297-1.78879-1.90297-3.19699-4.14848-4.2246-6.73652-.98955-2.58804-1.48432-5.38541-1.48432-8.39211 0-3.04476.49477-5.8231 1.48432-8.33502 1.02761-2.51193 2.43581-4.64327 4.2246-6.39401 1.82686-1.78879 3.95819-3.15893 6.39399-4.11042 2.47387-.98954 5.15706-1.48431 8.04959-1.48431h22.49315v7.25033h-22.49315c-1.86492 0-3.59663.34254-5.19512 1.02761-1.56044.64701-2.91155 1.56043-4.05334 2.74028-1.14178 1.17984-2.03618 2.58804-2.68319 4.2246s-.97052 3.44439-.97052 5.42348c0 1.94103.32351 3.74886.97052 5.42347.64701 1.67462 1.54141 3.12088 2.68319 4.33879 1.14179 1.17984 2.4929 2.1123 4.05334 2.79737 1.59849.68507 3.3302 1.0276 5.19512 1.0276h17.75474v-10.78986h-18.72526v-6.10854h26.03268v24.14873zm69.97355 0-10.50441-11.53202h-15.52827v-6.39399h17.29803c2.62611 0 4.6052-.7041 5.93728-2.11229 1.33208-1.44627 1.99812-3.52051 1.99812-6.22273 0-2.70223-.7041-4.70035-2.1123-5.99437-1.37014-1.33208-3.31117-1.99812-5.8231-1.99812h-22.60733v34.25352h-7.19324v-41.50385h29.80057c2.35969 0 4.47199.36156 6.33691 1.08468 1.86491.68507 3.44438 1.69365 4.7384 3.02574 1.29403 1.29402 2.28358 2.87349 2.96864 4.7384.68507 1.86492 1.0276 3.95819 1.0276 6.27981 0 3.46342-.76118 6.37497-2.28356 8.73466-1.48432 2.32162-3.57759 3.99623-6.27982 5.02384l12.50254 12.61672zm57.01427 0-6.22273-10.44733h-27.21579l3.42536-5.88018h20.30798l-9.24845-15.52827-18.83944 31.85578h-8.27794l23.8633-39.7341c.41866-.72313.91343-1.29402 1.48432-1.71268.5709-.41865 1.25597-.62798 2.05521-.62798.79925 0 1.46529.20933 1.99812.62798.5709.41866 1.06567.98955 1.48432 1.71268l23.92037 39.7341zm25.38686-11.53202v-7.02197h16.67005c2.54999 0 4.52908-.72313 5.93729-2.16938 1.44625-1.44626 2.16938-3.34923 2.16938-5.70892 0-2.39775-.72313-4.30073-2.16938-5.70893-1.40821-1.4082-3.3873-2.1123-5.93729-2.1123h-21.97935v34.25353h-7.19324v-41.50386h29.17259c2.39775 0 4.52908.36156 6.394 1.08469 1.90297.68507 3.50147 1.67462 4.79549 2.96864 1.29403 1.25597 2.28357 2.79738 2.96864 4.62423s1.02761 3.88207 1.02761 6.16564c0 2.24551-.34254 4.30072-1.02761 6.16563-.68507 1.82686-1.67461 3.40633-2.96864 4.73841-1.29402 1.33208-2.89252 2.37871-4.79549 3.1399-1.86492.72313-3.99625 1.0847-6.394 1.0847zm70.08776 11.70329v-18.04019h-29.03059v-6.45108h29.03059v-17.18385h7.25033v41.67513zm-33.39719 0v-41.67513h7.25033v41.67513z"/><path d="m107.43562 58.29561c-1.93705 0-3.73392-.35683-5.39061-1.07049-1.63121-.73913-3.058505-1.733139-4.281907-2.98203-1.197913-1.27438-2.140953-2.77815-2.829116-4.51129-.662676-1.73316-.994012-3.60649-.994012-5.62001 0-2.039.331336-3.89959.994012-5.58176.688163-1.68218 1.631203-3.10949 2.829116-4.28191 1.223402-1.19791 2.650697-2.11546 4.281907-2.75266 1.65669-.66266 3.45356-.99401 5.39061-.99401h15.06313v4.85537h-15.06313c-1.24889 0-2.40857.22939-3.47904.68817-1.04499.43329-1.9498 1.04499-2.71442 1.8351-.76464.79012-1.363592 1.73315-1.796879 2.82912-.433288 1.09596-.649932 2.30662-.649932 3.63197 0 1.29987.216644 2.510511.649932 3.63197.433287 1.121451 1.032239 2.08998 1.796879 2.905591.76462.7901 1.66943 1.41455 2.71442 1.87332 1.07047.45878 2.23015.68817 3.47904.68817h15.06313v4.85538z" stroke="#b0bccf" stroke-width="2"/><path d="m77.242769 65.243561v-45.056555h7.870945v45.056555z" stroke-width="1.06769"/></g></svg>