<svg height="73.08802mm" viewBox="0 0 246.33237 73.088022" width="246.33238mm" xmlns="http://www.w3.org/2000/svg"><path d="m4.8976388 4.1989298h51.1495772v39.9107582c0 33.584574-51.8482862 32.489238-51.8482862 0z" fill="none" stroke="#f9f9f9" stroke-width="8.39786"/><g fill="#f9f9f9"><g transform="matrix(2.000607 1.1550509 -1.1550509 2.000607 -114.54424 -361.12059)"><rect height="6.677884" ry=".917437" width="1.109652" x="133.26457" y="113.53527"/><rect height="6.677884" ry=".917437" width="1.109652" x="145.20386" y="113.53527"/><rect height="14.584357" ry="1.550303" width="1.621357" x="135.81224" y="109.58203"/><rect height="14.584357" ry="1.550303" width="1.621357" x="142.14449" y="109.58203"/><rect height="20.411003" ry="2.16967" width="1.834875" x="138.87161" y="106.66871"/></g><g stroke-width=".715877" transform="matrix(1.3467588 0 0 1.3467588 -106.93441 30.218159)"><path d="m149.74457.19113632q-2.17627 0-4.03756-.801776-1.83265-.83042902-3.20713-2.23354302-1.34584-1.431739-2.11899-3.37894-.74452-1.947173-.74452-4.2093413 0-2.290823.74452-4.180744.77315-1.889893 2.11899-3.207128 1.37448-1.345835 3.20713-2.061706 1.86129-.744523 4.03756-.744523h5.0684q2.26217 0 4.12346.744523 1.88989.744496 3.23576 2.090358 1.34583 1.345834 2.09036 3.235755.74449 1.861296.74449 4.123465 0 2.2621683-.77312 4.2093413-.74452 1.947201-2.11901 3.37894-1.34584 1.403114-3.20713 2.23354302-1.86127.801776-4.09481.801776zm5.0684-3.63665702q1.43176 0 2.63441-.515434 1.20268-.515432 2.06174-1.403113.88768-.916334 1.37448-2.176263.48681-1.259957.48681-2.7203223 0-1.460394-.48681-2.691697-.4868-1.259956-1.37448-2.147638-.85906-.887681-2.06174-1.374488-1.20265-.515432-2.63441-.515432h-5.0684q-1.40314 0-2.60579.515432-1.17406.486807-2.03311 1.374488-.85906.887682-1.34584 2.118984-.4868 1.231304-.4868 2.720351 0 1.4603653.4868 2.7203223.48678 1.259929 1.34584 2.176263.85905.887681 2.03311 1.403113 1.20265.515434 2.60579.515434z"/><path d="m167.95643.19113632v-3.63665702h15.60612q1.46039 0 2.23351-.744497.80181-.744522.80181-1.975826 0-1.345861-.80181-2.004452-.77312-.687243-2.23351-.687243h-9.56411q-1.4604 0-2.66307-.429529-1.17405-.458153-2.00445-1.2313023-.80178-.801803-1.25996-1.889921-.42953-1.088145-.42953-2.376728 0-1.259929.4009-2.319421.42953-1.088145 1.23131-1.861295.83042-.773149 2.0331-1.202676 1.20265-.458154 2.74895-.458154h14.9475v3.636657h-14.9475q-1.25993 0-1.94717.687243-.68725.658618-.68725 1.861269 0 1.202675.68725 1.861294.71587.658591 1.91854.658591h9.53549q3.17847 0 4.81068 1.489047 1.66083 1.4890193 1.66083 4.5243373 0 1.317209-.40088 2.433981-.4009 1.11677-1.20267 1.947173-.80178.80180302-2.03311 1.25995502-1.20265.458154-2.83485.458154z"/><path d="m193.35572.19113632v-20.81770132h3.63666v20.81770132z"/><path d="m204.17973-15.042736v15.23387232h-3.46485v-18.89915432q0-1.002213.48678-1.574925.51544-.601338 1.37449-.601338.4009 0 .77315.171811.37225.171811.77315.572712l14.68985 14.5752533v-15.2338713h3.46487v19.0709653q0 1.03086602-.51544 1.60357902-.48678.572685-1.28859.572685-.88768 0-1.66084-.77315z"/><path d="m232.47127.19113632v-17.18104432h-7.9033v-3.636657h19.44324v3.636657h-7.90327v17.18104432z"/></g><g stroke-width=".715877" transform="matrix(1.3467588 0 0 1.3467588 -108.04477 30.218159)"><path d="m140.46084 26.68477v-20.817701h15.23379q1.51767 0 2.74897.3436219 1.25993.343622 2.14764 1.030866.88768.6585907 1.37448 1.6894568.48678 1.0022394.48678 2.3194473 0 1.002214-.22917 1.746736-.22917.744497-.62999 1.288583-.40087.515433-.94496.887682-.51542.343621-1.08811.515432 1.43173.458153 2.34808 1.660831.91629 1.202676.91629 3.035319 0 1.431766-.48676 2.60579-.45817 1.145398-1.34588 1.975828-.85904.830401-2.11897 1.288581-1.23131.429527-2.74898.429527zm6.27104-9.048703v-3.063945h8.9914q1.54627 0 2.29079-.572711.74454-.572685.74454-1.947174 0-.830428-.31501-1.317208-.31499-.515432-.91633-.7731493-.57269-.2863435-1.40311-.3722476-.80178-.086037-1.80401-.086037h-10.22267v13.5730129h10.53765q.9736 0 1.80402-.143134.8304-.143133 1.43174-.458151.60135-.343624.91633-.859057.34363-.515433.34363-1.288581 0-1.288556-.80177-1.975801-.80181-.715897-2.34809-.715897z"/><path d="m184.61602 5.867069h3.55074v11.62584q0 2.405326-.62994 4.209343-.62997 1.775389-1.97584 2.949412-1.34584 1.174052-3.49348 1.746737-2.11897.572712-5.15429.572712-3.0067 0-5.15433-.572712-2.11898-.572685-3.46485-1.746737-1.34583-1.174023-1.97582-2.949412-.62997-1.804017-.62997-4.209343v-11.62584h3.75119v11.62584q0 1.574925.37227 2.691697.40087 1.116772 1.25993 1.832641.88768.715871 2.34807 1.059492 1.4604.314996 3.60804.314996 2.14763 0 3.608-.314996 1.4604-.343621 2.31946-1.059492.88767-.715869 1.25994-1.832641.40088-1.116772.40088-2.691697z"/><path d="m191.45981 26.68477v-20.817701h12.05537q2.20488 0 4.06618.7444961 1.86126.7445236 3.20713 2.0903583 1.34584 1.3458616 2.09036 3.2357826.77315 1.861267.77315 4.123437 0 2.262169-.77315 4.209369-.74452 1.947172-2.09036 3.37894-1.34587 1.403114-3.20713 2.233516-1.8613.801802-4.06618.801802zm12.05537-3.636657q1.40312 0 2.57716-.515433 1.20267-.515433 2.06173-1.403113.88768-.916334 1.37446-2.176263.48681-1.259957.48681-2.720351 0-1.460393-.48681-2.691697-.48678-1.259929-1.37446-2.147636-.85906-.887681-2.06173-1.374461-1.17404-.5154326-2.57716-.5154326h-8.44734v13.5443866z"/><path d="m216.63004 26.68477v-20.817701h12.05537q2.20489 0 4.06618.7444961 1.86128.7445236 3.20713 2.0903583 1.34582 1.3458616 2.09036 3.2357826.77314 1.861267.77314 4.123437 0 2.262169-.77314 4.209369-.74454 1.947172-2.09036 3.37894-1.34585 1.403114-3.20713 2.233516-1.86129.801802-4.06618.801802zm12.05537-3.636657q1.4031 0 2.57712-.515433 1.2027-.515433 2.06175-1.403113.88767-.916334 1.37448-2.176263.48681-1.259957.48681-2.720351 0-1.460393-.48681-2.691697-.48681-1.259929-1.37448-2.147636-.85905-.887681-2.06175-1.374461-1.17402-.5154326-2.57712-.5154326h-8.44737v13.5443866z"/><path d="m248.41493 26.68477v-7.903279l-11.05315-12.914422h4.89661l8.10371 9.592735 8.13238-9.592735h4.63887l-11.08179 12.914422v7.903279z"/></g></g></svg>