<?xml version="1.0" encoding="UTF-8" standalone="no"?>
<svg
   height="73.08802mm"
   viewBox="0 0 246.33237 73.088022"
   width="246.33238mm"
   version="1.1"
   id="svg15"
   sodipodi:docname="logo-og.svg"
   inkscape:version="1.3.2 (091e20ef0f, 2023-11-25, custom)"
   xml:space="preserve"
   xmlns:inkscape="http://www.inkscape.org/namespaces/inkscape"
   xmlns:sodipodi="http://sodipodi.sourceforge.net/DTD/sodipodi-0.dtd"
   xmlns:xlink="http://www.w3.org/1999/xlink"
   xmlns="http://www.w3.org/2000/svg"
   xmlns:svg="http://www.w3.org/2000/svg"><defs
     id="defs15"><linearGradient
       id="linearGradient17"
       inkscape:collect="always"><stop
         style="stop-color:#b0bccf;stop-opacity:1;"
         offset="0"
         id="stop17" /><stop
         style="stop-color:#b0bccf;stop-opacity:0;"
         offset="1"
         id="stop18" /></linearGradient><inkscape:path-effect
       effect="fill_between_many"
       method="originald"
       linkedpaths="#g2,0,1|"
       id="path-effect16" /><linearGradient
       inkscape:collect="always"
       xlink:href="#linearGradient17"
       id="linearGradient18"
       x1="80.328774"
       y1="143.80586"
       x2="218.85559"
       y2="143.80586"
       gradientUnits="userSpaceOnUse" /><linearGradient
       inkscape:collect="always"
       xlink:href="#linearGradient17"
       id="linearGradient40"
       gradientUnits="userSpaceOnUse"
       x1="80.328774"
       y1="143.80586"
       x2="218.85559"
       y2="143.80586" /><linearGradient
       inkscape:collect="always"
       xlink:href="#linearGradient17"
       id="linearGradient41"
       gradientUnits="userSpaceOnUse"
       x1="80.328774"
       y1="143.80586"
       x2="218.85559"
       y2="143.80586" /><linearGradient
       inkscape:collect="always"
       xlink:href="#linearGradient17"
       id="linearGradient42"
       gradientUnits="userSpaceOnUse"
       x1="80.328774"
       y1="143.80586"
       x2="218.85559"
       y2="143.80586"
       gradientTransform="translate(17.586335,-42.282039)" /></defs><sodipodi:namedview
     id="namedview15"
     pagecolor="#ffffff"
     bordercolor="#000000"
     borderopacity="0.25"
     inkscape:showpageshadow="2"
     inkscape:pageopacity="0.0"
     inkscape:pagecheckerboard="0"
     inkscape:deskcolor="#d1d1d1"
     inkscape:document-units="mm"
     inkscape:zoom="0.125"
     inkscape:cx="376"
     inkscape:cy="1288"
     inkscape:window-width="1920"
     inkscape:window-height="1024"
     inkscape:window-x="1920"
     inkscape:window-y="0"
     inkscape:window-maximized="1"
     inkscape:current-layer="g31"
     showguides="true"><sodipodi:guide
       position="46.302081,-171.91615"
       orientation="1,0"
       id="guide42"
       inkscape:locked="false" /></sodipodi:namedview><path
     d="m4.8976388 4.1989298h51.1495772v39.9107582c0 33.584574-51.8482862 32.489238-51.8482862 0z"
     fill="none"
     stroke="#b0bccf"
     stroke-width="8.39786"
     id="path1" /><g
     fill="#b0bccf"
     id="g15"><g
       transform="matrix(2.000607 1.1550509 -1.1550509 2.000607 -114.54424 -361.12059)"
       id="g5"><rect
         height="6.677884"
         ry=".917437"
         width="1.109652"
         x="133.26457"
         y="113.53527"
         id="rect1" /><rect
         height="6.677884"
         ry=".917437"
         width="1.109652"
         x="145.20386"
         y="113.53527"
         id="rect2" /><rect
         height="14.584357"
         ry="1.550303"
         width="1.621357"
         x="135.81224"
         y="109.58203"
         id="rect3" /><rect
         height="14.584357"
         ry="1.550303"
         width="1.621357"
         x="142.14449"
         y="109.58203"
         id="rect4" /><rect
         height="20.411003"
         ry="2.16967"
         width="1.834875"
         x="138.87161"
         y="106.66871"
         id="rect5" /></g><g
       stroke-width=".715877"
       transform="matrix(1.3467588 0 0 1.3467588 -106.93441 30.218159)"
       id="g9"><path
         d="m149.74457.19113632q-2.17627 0-4.03756-.801776-1.83265-.83042902-3.20713-2.23354302-1.34584-1.431739-2.11899-3.37894-.74452-1.947173-.74452-4.2093413 0-2.290823.74452-4.180744.77315-1.889893 2.11899-3.207128 1.37448-1.345835 3.20713-2.061706 1.86129-.744523 4.03756-.744523h5.0684q2.26217 0 4.12346.744523 1.88989.744496 3.23576 2.090358 1.34583 1.345834 2.09036 3.235755.74449 1.861296.74449 4.123465 0 2.2621683-.77312 4.2093413-.74452 1.947201-2.11901 3.37894-1.34584 1.403114-3.20713 2.23354302-1.86127.801776-4.09481.801776zm5.0684-3.63665702q1.43176 0 2.63441-.515434 1.20268-.515432 2.06174-1.403113.88768-.916334 1.37448-2.176263.48681-1.259957.48681-2.7203223 0-1.460394-.48681-2.691697-.4868-1.259956-1.37448-2.147638-.85906-.887681-2.06174-1.374488-1.20265-.515432-2.63441-.515432h-5.0684q-1.40314 0-2.60579.515432-1.17406.486807-2.03311 1.374488-.85906.887682-1.34584 2.118984-.4868 1.231304-.4868 2.720351 0 1.4603653.4868 2.7203223.48678 1.259929 1.34584 2.176263.85905.887681 2.03311 1.403113 1.20265.515434 2.60579.515434z"
         id="path5" /><path
         d="m167.95643.19113632v-3.63665702h15.60612q1.46039 0 2.23351-.744497.80181-.744522.80181-1.975826 0-1.345861-.80181-2.004452-.77312-.687243-2.23351-.687243h-9.56411q-1.4604 0-2.66307-.429529-1.17405-.458153-2.00445-1.2313023-.80178-.801803-1.25996-1.889921-.42953-1.088145-.42953-2.376728 0-1.259929.4009-2.319421.42953-1.088145 1.23131-1.861295.83042-.773149 2.0331-1.202676 1.20265-.458154 2.74895-.458154h14.9475v3.636657h-14.9475q-1.25993 0-1.94717.687243-.68725.658618-.68725 1.861269 0 1.202675.68725 1.861294.71587.658591 1.91854.658591h9.53549q3.17847 0 4.81068 1.489047 1.66083 1.4890193 1.66083 4.5243373 0 1.317209-.40088 2.433981-.4009 1.11677-1.20267 1.947173-.80178.80180302-2.03311 1.25995502-1.20265.458154-2.83485.458154z"
         id="path6" /><path
         d="m193.35572.19113632v-20.81770132h3.63666v20.81770132z"
         id="path7" /><path
         d="m204.17973-15.042736v15.23387232h-3.46485v-18.89915432q0-1.002213.48678-1.574925.51544-.601338 1.37449-.601338.4009 0 .77315.171811.37225.171811.77315.572712l14.68985 14.5752533v-15.2338713h3.46487v19.0709653q0 1.03086602-.51544 1.60357902-.48678.572685-1.28859.572685-.88768 0-1.66084-.77315z"
         id="path8" /><path
         d="m232.47127.19113632v-17.18104432h-7.9033v-3.636657h19.44324v3.636657h-7.90327v17.18104432z"
         id="path9" /></g><g
       stroke-width=".715877"
       transform="matrix(1.3467588 0 0 1.3467588 -108.04477 30.218159)"
       id="g14"><path
         d="m140.46084 26.68477v-20.817701h15.23379q1.51767 0 2.74897.3436219 1.25993.343622 2.14764 1.030866.88768.6585907 1.37448 1.6894568.48678 1.0022394.48678 2.3194473 0 1.002214-.22917 1.746736-.22917.744497-.62999 1.288583-.40087.515433-.94496.887682-.51542.343621-1.08811.515432 1.43173.458153 2.34808 1.660831.91629 1.202676.91629 3.035319 0 1.431766-.48676 2.60579-.45817 1.145398-1.34588 1.975828-.85904.830401-2.11897 1.288581-1.23131.429527-2.74898.429527zm6.27104-9.048703v-3.063945h8.9914q1.54627 0 2.29079-.572711.74454-.572685.74454-1.947174 0-.830428-.31501-1.317208-.31499-.515432-.91633-.7731493-.57269-.2863435-1.40311-.3722476-.80178-.086037-1.80401-.086037h-10.22267v13.5730129h10.53765q.9736 0 1.80402-.143134.8304-.143133 1.43174-.458151.60135-.343624.91633-.859057.34363-.515433.34363-1.288581 0-1.288556-.80177-1.975801-.80181-.715897-2.34809-.715897z"
         id="path10" /><path
         d="m184.61602 5.867069h3.55074v11.62584q0 2.405326-.62994 4.209343-.62997 1.775389-1.97584 2.949412-1.34584 1.174052-3.49348 1.746737-2.11897.572712-5.15429.572712-3.0067 0-5.15433-.572712-2.11898-.572685-3.46485-1.746737-1.34583-1.174023-1.97582-2.949412-.62997-1.804017-.62997-4.209343v-11.62584h3.75119v11.62584q0 1.574925.37227 2.691697.40087 1.116772 1.25993 1.832641.88768.715871 2.34807 1.059492 1.4604.314996 3.60804.314996 2.14763 0 3.608-.314996 1.4604-.343621 2.31946-1.059492.88767-.715869 1.25994-1.832641.40088-1.116772.40088-2.691697z"
         id="path11" /><path
         d="m191.45981 26.68477v-20.817701h12.05537q2.20488 0 4.06618.7444961 1.86126.7445236 3.20713 2.0903583 1.34584 1.3458616 2.09036 3.2357826.77315 1.861267.77315 4.123437 0 2.262169-.77315 4.209369-.74452 1.947172-2.09036 3.37894-1.34587 1.403114-3.20713 2.233516-1.8613.801802-4.06618.801802zm12.05537-3.636657q1.40312 0 2.57716-.515433 1.20267-.515433 2.06173-1.403113.88768-.916334 1.37446-2.176263.48681-1.259957.48681-2.720351 0-1.460393-.48681-2.691697-.48678-1.259929-1.37446-2.147636-.85906-.887681-2.06173-1.374461-1.17404-.5154326-2.57716-.5154326h-8.44734v13.5443866z"
         id="path12" /><path
         d="m216.63004 26.68477v-20.817701h12.05537q2.20489 0 4.06618.7444961 1.86128.7445236 3.20713 2.0903583 1.34582 1.3458616 2.09036 3.2357826.77314 1.861267.77314 4.123437 0 2.262169-.77314 4.209369-.74454 1.947172-2.09036 3.37894-1.34585 1.403114-3.20713 2.233516-1.86129.801802-4.06618.801802zm12.05537-3.636657q1.4031 0 2.57712-.515433 1.2027-.515433 2.06175-1.403113.88767-.916334 1.37448-2.176263.48681-1.259957.48681-2.720351 0-1.460393-.48681-2.691697-.48681-1.259929-1.37448-2.147636-.85905-.887681-2.06175-1.374461-1.17402-.5154326-2.57712-.5154326h-8.44737v13.5443866z"
         id="path13" /><path
         d="m248.41493 26.68477v-7.903279l-11.05315-12.914422h4.89661l8.10371 9.592735 8.13238-9.592735h4.63887l-11.08179 12.914422v7.903279z"
         id="path14" /></g></g><g
     id="g1" /><path
     inkscape:original-d="M 0,0"
     inkscape:path-effect="#path-effect16"
     d="M 0,0"
     id="path16" /><path
     style="fill:#b0bccf;fill-opacity:1;stroke-width:0.213676"
     d="m 66.04556,130.42006 c 1.197323,0.32192 1.979201,1.53061 1.763908,2.72691 -0.09668,0.53749 -0.316852,0.94222 -0.735729,1.35272 l -0.361577,0.35439 0.601858,2.36734 c 0.331031,1.30207 0.60189,2.38306 0.60189,2.40228 0,0.0185 0.120768,0.0352 0.268421,0.0358 1.093074,0.005 2.314707,0.79757 2.809602,1.82649 0.353732,0.73545 0.442813,1.40894 0.285409,2.15841 -0.234753,1.11741 -1.094376,2.0875 -2.185475,2.46594 -0.747529,0.25916 -1.80496,0.19151 -2.502048,-0.16061 l -0.277995,-0.14024 -0.767852,0.80922 c -0.422368,0.44506 -1.6638,1.74812 -2.758791,2.89567 l -1.990908,2.08648 0.08772,0.16959 c 0.152898,0.29559 0.227338,0.80689 0.183786,1.26276 -0.105338,1.10229 -0.915097,1.9393 -2.05982,2.129 -0.678368,0.11247 -1.423641,-0.12265 -1.949887,-0.61482 -1.43297,-1.3404 -0.804856,-3.67401 1.109727,-4.12289 0.438491,-0.10292 0.812115,-0.0845 1.278807,0.0628 l 0.304866,0.0961 0.679947,-0.69922 c 0.730724,-0.75151 3.74385,-3.91076 4.415609,-4.62975 l 0.408282,-0.43701 -0.195832,-0.38861 c -0.118305,-0.23474 -0.233515,-0.58734 -0.291278,-0.8906 -0.161854,-0.8494 0.02471,-1.69565 0.537211,-2.45199 0.248341,-0.36555 0.646245,-0.74515 0.984412,-0.93885 0.116447,-0.0667 0.212201,-0.14671 0.21282,-0.17761 9.2e-4,-0.0311 -0.269347,-1.12825 -0.60047,-2.43816 l -0.601858,-2.38161 -0.282938,-0.0333 c -0.964179,-0.11429 -1.810116,-0.98551 -1.972806,-2.03204 -0.260698,-1.67638 1.351426,-3.10758 3.000708,-2.66415 z m -1.236182,1.1525 c -0.427959,0.2184 -0.691652,0.66813 -0.696099,1.18726 -0.0093,1.1681 1.413016,1.7423 2.25596,0.91029 0.69023,-0.68131 0.412853,-1.8382 -0.524082,-2.18585 -0.273981,-0.10154 -0.741444,-0.0617 -1.035779,0.0883 z m 2.493616,9.67176 c -0.395279,0.17483 -0.705274,0.46369 -0.917262,0.85472 -0.180697,0.33321 -0.193977,0.39342 -0.193052,0.86691 0.001,0.60302 0.128805,0.92389 0.523496,1.31892 0.36093,0.36114 0.784162,0.53611 1.310963,0.54197 0.374489,0.005 0.474538,-0.0185 0.805351,-0.181 0.456593,-0.22455 0.78478,-0.57647 0.952689,-1.0214 0.167413,-0.44376 0.134672,-1.05572 -0.08032,-1.49514 -0.426289,-0.87126 -1.520941,-1.27461 -2.401813,-0.88493 z m -8.988629,10.26085 c -0.587556,0.17452 -0.937984,0.64869 -0.938294,1.26964 -1.85e-4,0.39706 0.09391,0.64162 0.355803,0.92386 0.609302,0.65689 1.720757,0.49351 2.122121,-0.31192 0.398335,-0.79936 -0.05714,-1.74029 -0.927205,-1.91585 -0.295603,-0.0596 -0.29622,-0.0596 -0.612425,0.0342 z m -0.91658,-16.19663 c 0.543357,0.11091 1.045353,0.59268 1.195286,1.14691 0.09453,0.34981 0.03213,0.82901 -0.152279,1.16802 -0.284482,0.52263 -0.774866,0.8081 -1.379598,0.80306 -0.619063,-0.006 -1.094804,-0.28385 -1.388027,-0.81317 -0.145484,-0.26285 -0.166797,-0.35817 -0.166797,-0.75325 0,-0.39672 0.02161,-0.48994 0.169578,-0.75888 0.338596,-0.61206 1.035497,-0.93293 1.721776,-0.79269 z m 19.267337,1.91417 c 0.405069,0.18968 0.624283,0.39557 0.803528,0.75428 0.61165,1.224 -0.519759,2.60369 -1.824203,2.22448 -1.121153,-0.32594 -1.530084,-1.67829 -0.768902,-2.543 0.325437,-0.36975 0.606368,-0.50142 1.124921,-0.5273 0.336867,-0.0154 0.473457,0.003 0.664656,0.0917 z m -15.957466,0.93349 c 0.907158,0.52398 1.052211,0.71182 0.850694,1.10151 -0.09854,0.19088 -0.368559,0.31468 -0.573689,0.26317 -0.209114,-0.0526 -1.443319,-0.75804 -1.563195,-0.89364 -0.143014,-0.16184 -0.128805,-0.51107 0.0278,-0.69175 0.248651,-0.28633 0.437563,-0.25327 1.257896,0.22056 z m 12.922656,1.55461 c 0.21035,0.21035 0.227029,0.51401 0.038,0.70032 -0.226719,0.22363 -1.482176,0.887 -1.67878,0.887 -0.39015,0 -0.651435,-0.51066 -0.425981,-0.83254 0.129732,-0.18533 1.504261,-0.92004 1.721037,-0.92004 0.124169,0 0.23197,0.0516 0.345669,0.16526 z m -9.818103,0.22239 c 0.852766,0.48906 0.937709,0.56403 0.937709,0.82743 0,0.11333 -0.0278,0.25731 -0.06115,0.32001 -0.08834,0.16496 -0.398027,0.28078 -0.596515,0.22302 -0.178227,-0.0519 -1.417373,-0.75874 -1.537467,-0.87698 -0.04139,-0.0404 -0.08895,-0.17792 -0.105954,-0.30487 -0.0278,-0.20326 -0.0093,-0.25205 0.141158,-0.40353 0.265332,-0.26562 0.436515,-0.23537 1.222067,0.21528 z m 6.745703,6.69353 c 0.173284,0.1875 0.80665,1.37499 0.80665,1.5127 0,0.33734 -0.339804,0.61109 -0.668827,0.53884 -0.219307,-0.0482 -0.275523,-0.11831 -0.658507,-0.82191 -0.399787,-0.73452 -0.437255,-0.92751 -0.228265,-1.17585 0.12726,-0.15104 0.191815,-0.181 0.391819,-0.181 0.175753,0 0.27089,0.034 0.357161,0.12726 z m 1.408476,2.78008 c 0.143631,0.0636 0.249269,0.21344 0.551203,0.78257 0.415355,0.78288 0.454799,0.98288 0.236914,1.20074 -0.184094,0.1841 -0.401054,0.23135 -0.60952,0.1325 -0.230735,-0.10932 -0.912194,-1.33277 -0.916395,-1.64515 -0.0062,-0.3818 0.381347,-0.62839 0.737768,-0.47072 z m 2.182663,2.48771 c 1.153771,0.41173 1.420862,1.91182 0.483278,2.71437 -0.622492,0.53282 -1.52091,0.48566 -2.117765,-0.11114 -0.635897,-0.63589 -0.633673,-1.56802 0.0062,-2.20697 0.439601,-0.43963 1.074727,-0.59407 1.629171,-0.39621 z"
     id="path1-5" /><rect
     style="fill:none;fill-opacity:1;stroke:#b0bccf;stroke-width:2.427;stroke-opacity:1"
     id="rect16"
     width="31.220833"
     height="31.220833"
     x="-13.159626"
     y="135.21901" /><text
     xml:space="preserve"
     style="font-style:normal;font-variant:normal;font-weight:normal;font-stretch:normal;font-size:25.4px;font-family:'Good Times';-inkscape-font-specification:'Good Times';letter-spacing:-0.134937px;word-spacing:-0.690562px;fill:url(#linearGradient18);stroke:#b0bccf;stroke-width:1.3;stroke-dasharray:none;stroke-opacity:1"
     x="79.050774"
     y="153.03876"
     id="text16"><tspan
       sodipodi:role="line"
       id="tspan16"
       style="fill:url(#linearGradient18);stroke-width:1.3;stroke-dasharray:none"
       x="79.050774"
       y="153.03876"><tspan
         style="fill:#b0bccf;fill-opacity:1;stroke-width:1.3;stroke-dasharray:none"
         id="tspan18">i<tspan
   style="fill:none;stroke-width:1.3;stroke-dasharray:none"
   id="tspan19">c</tspan></tspan><tspan
         style="fill:#b0bccf;fill-opacity:1;stroke:none;stroke-width:1.3;stroke-dasharray:none"
         id="tspan17">GRAPH</tspan></tspan></text><path
     style="fill:#b0bccf;fill-opacity:1;stroke-width:0.213676"
     d="m 83.631895,88.138021 c 1.197323,0.32192 1.979201,1.53061 1.763908,2.72691 -0.09668,0.53749 -0.316852,0.94222 -0.735729,1.35272 l -0.361577,0.35439 0.601858,2.36734 c 0.331031,1.30207 0.60189,2.38306 0.60189,2.40228 0,0.0185 0.120768,0.0352 0.268421,0.0358 1.093074,0.005 2.314707,0.79757 2.809602,1.82649 0.353732,0.73545 0.442813,1.408939 0.285409,2.158409 -0.234753,1.11741 -1.094376,2.0875 -2.185475,2.46594 -0.747529,0.25916 -1.80496,0.19151 -2.502048,-0.16061 l -0.277995,-0.14024 -0.767852,0.80922 c -0.422368,0.44506 -1.6638,1.74812 -2.758791,2.89567 l -1.990908,2.08648 0.08772,0.16959 c 0.152898,0.29559 0.227338,0.80689 0.183786,1.26276 -0.105338,1.10229 -0.915097,1.9393 -2.05982,2.129 -0.678368,0.11247 -1.423641,-0.12265 -1.949887,-0.61482 -1.43297,-1.3404 -0.804856,-3.67401 1.109727,-4.12289 0.438491,-0.10292 0.812115,-0.0845 1.278807,0.0628 l 0.304866,0.0961 0.679947,-0.69922 c 0.730724,-0.75151 3.74385,-3.91076 4.415609,-4.62975 l 0.408282,-0.43701 -0.195832,-0.38861 c -0.118305,-0.23474 -0.233515,-0.58734 -0.291278,-0.8906 -0.161854,-0.8494 0.02471,-1.695649 0.537211,-2.451989 0.248341,-0.36555 0.646245,-0.74515 0.984412,-0.93885 0.116447,-0.0667 0.212201,-0.14671 0.21282,-0.17761 9.2e-4,-0.0311 -0.269347,-1.12825 -0.60047,-2.43816 l -0.601858,-2.38161 -0.282938,-0.0333 c -0.964179,-0.11429 -1.810116,-0.98551 -1.972806,-2.03204 -0.260698,-1.67638 1.351426,-3.10758 3.000708,-2.66415 z m -1.236182,1.1525 c -0.427959,0.2184 -0.691652,0.66813 -0.696099,1.18726 -0.0093,1.1681 1.413016,1.7423 2.25596,0.91029 0.69023,-0.68131 0.412853,-1.8382 -0.524082,-2.18585 -0.273981,-0.10154 -0.741444,-0.0617 -1.035779,0.0883 z m 2.493616,9.67176 c -0.395279,0.17483 -0.705274,0.46369 -0.917262,0.85472 -0.180697,0.333209 -0.193977,0.393419 -0.193052,0.866909 0.001,0.60302 0.128805,0.92389 0.523496,1.31892 0.36093,0.36114 0.784162,0.53611 1.310963,0.54197 0.374489,0.005 0.474538,-0.0185 0.805351,-0.181 0.456593,-0.22455 0.78478,-0.57647 0.952689,-1.0214 0.167413,-0.44376 0.134672,-1.05572 -0.08032,-1.495139 -0.426289,-0.87126 -1.520941,-1.27461 -2.401813,-0.88493 z M 75.9007,109.22313 c -0.587556,0.17452 -0.937984,0.64869 -0.938294,1.26964 -1.85e-4,0.39706 0.09391,0.64162 0.355803,0.92386 0.609302,0.65689 1.720757,0.49351 2.122121,-0.31192 0.398335,-0.79936 -0.05714,-1.74029 -0.927205,-1.91585 -0.295603,-0.0596 -0.29622,-0.0596 -0.612425,0.0342 z M 74.98412,93.026501 c 0.543357,0.11091 1.045353,0.59268 1.195286,1.14691 0.09453,0.34981 0.03213,0.82901 -0.152279,1.16802 -0.284482,0.52263 -0.774866,0.8081 -1.379598,0.80306 -0.619063,-0.006 -1.094804,-0.28385 -1.388027,-0.81317 -0.145484,-0.26285 -0.166797,-0.35817 -0.166797,-0.75325 0,-0.39672 0.02161,-0.48994 0.169578,-0.75888 0.338596,-0.61206 1.035497,-0.93293 1.721776,-0.79269 z m 19.267337,1.91417 c 0.405069,0.18968 0.624283,0.39557 0.803528,0.75428 0.61165,1.224 -0.519759,2.60369 -1.824203,2.22448 -1.121153,-0.32594 -1.530084,-1.67829 -0.768902,-2.543 0.325437,-0.36975 0.606368,-0.50142 1.124921,-0.5273 0.336867,-0.0154 0.473457,0.003 0.664656,0.0917 z m -15.957466,0.93349 c 0.907158,0.52398 1.052211,0.71182 0.850694,1.10151 -0.09854,0.19088 -0.368559,0.31468 -0.573689,0.26317 -0.209114,-0.0526 -1.443319,-0.75804 -1.563195,-0.89364 -0.143014,-0.16184 -0.128805,-0.51107 0.0278,-0.69175 0.248651,-0.28633 0.437563,-0.25327 1.257896,0.22056 z m 12.922656,1.55461 c 0.21035,0.21035 0.227029,0.51401 0.038,0.70032 -0.226719,0.22363 -1.482176,0.887 -1.67878,0.887 -0.39015,0 -0.651435,-0.51066 -0.425981,-0.83254 0.129732,-0.18533 1.504261,-0.92004 1.721037,-0.92004 0.124169,0 0.23197,0.0516 0.345669,0.16526 z m -9.818103,0.22239 c 0.852766,0.48906 0.937709,0.56403 0.937709,0.82743 0,0.11333 -0.0278,0.25731 -0.06115,0.32001 -0.08834,0.16496 -0.398027,0.28078 -0.596515,0.22302 -0.178227,-0.0519 -1.417373,-0.75874 -1.537467,-0.87698 -0.04139,-0.0404 -0.08895,-0.17792 -0.105954,-0.30487 -0.0278,-0.20326 -0.0093,-0.25205 0.141158,-0.40353 0.265332,-0.26562 0.436515,-0.23537 1.222067,0.21528 z m 6.745703,6.693529 c 0.173284,0.1875 0.80665,1.37499 0.80665,1.5127 0,0.33734 -0.339804,0.61109 -0.668827,0.53884 -0.219307,-0.0482 -0.275523,-0.11831 -0.658507,-0.82191 -0.399787,-0.73452 -0.437255,-0.92751 -0.228265,-1.17585 0.12726,-0.15104 0.191815,-0.181 0.391819,-0.181 0.175753,0 0.27089,0.034 0.357161,0.12726 z m 1.408476,2.78008 c 0.143631,0.0636 0.249269,0.21344 0.551203,0.78257 0.415355,0.78288 0.454799,0.98288 0.236914,1.20074 -0.184094,0.1841 -0.401054,0.23135 -0.60952,0.1325 -0.230735,-0.10932 -0.912194,-1.33277 -0.916395,-1.64515 -0.0062,-0.3818 0.381347,-0.62839 0.737768,-0.47072 z m 2.182663,2.48771 c 1.153771,0.41173 1.420862,1.91182 0.483278,2.71437 -0.622492,0.53282 -1.52091,0.48566 -2.117765,-0.11114 -0.635897,-0.63589 -0.633673,-1.56802 0.0062,-2.20697 0.439601,-0.43963 1.074727,-0.59407 1.629171,-0.39621 z"
     id="path24" /><text
     xml:space="preserve"
     style="font-style:normal;font-variant:normal;font-weight:normal;font-stretch:normal;font-size:25.4px;font-family:'Good Times';-inkscape-font-specification:'Good Times';letter-spacing:-0.134937px;word-spacing:-0.690562px;fill:url(#linearGradient42);stroke:#b0bccf;stroke-width:1.3;stroke-dasharray:none;stroke-opacity:1"
     x="96.637108"
     y="110.75672"
     id="text27"><tspan
       sodipodi:role="line"
       id="tspan27"
       style="fill:url(#linearGradient42);stroke-width:1.3;stroke-dasharray:none"
       x="96.637108"
       y="110.75672"><tspan
         style="fill:url(#linearGradient42);fill-opacity:1;stroke-width:1.3;stroke-dasharray:none"
         id="tspan25">i<tspan
   style="fill:url(#linearGradient42);stroke-width:1.3;stroke-dasharray:none"
   id="tspan24">c</tspan></tspan><tspan
         style="fill:url(#linearGradient42);fill-opacity:1;stroke:none;stroke-width:1.3;stroke-dasharray:none"
         id="tspan26">GRAPH</tspan></tspan></text><g
     id="g31"
     transform="translate(4.8643054,73.712935)"><path
       style="fill:#b0bccf;stroke-width:0.653508"
       d="m -127.54075,-342.67823 c 3.6619,0.98456 6.0532,4.68122 5.39474,8.33999 -0.29568,1.64386 -0.96906,2.88169 -2.25015,4.13716 l -1.10585,1.08387 1.84072,7.24028 c 1.01243,3.98225 1.84083,7.28835 1.84083,7.34713 0,0.0566 0.36935,0.10767 0.82094,0.10949 3.34306,0.0154 7.0793,2.43929 8.59289,5.58615 1.08186,2.2493 1.3543,4.3091 0.8729,6.60128 -0.71797,3.41749 -3.34705,6.38442 -6.68407,7.54184 -2.28624,0.79261 -5.52029,0.58571 -7.65227,-0.49121 l -0.85022,-0.42891 -2.3484,2.47492 c -1.29177,1.36117 -5.08857,5.34645 -8.43749,8.85612 l -6.089,6.3813 0.26828,0.51867 c 0.46762,0.90404 0.69529,2.4678 0.56209,3.86203 -0.32216,3.37125 -2.79873,5.93116 -6.29976,6.51134 -2.07472,0.34398 -4.35406,-0.37511 -5.96354,-1.88037 -4.38259,-4.09948 -2.46157,-11.2366 3.394,-12.60945 1.34108,-0.31477 2.48377,-0.25844 3.9111,0.19207 l 0.93241,0.29391 2.07955,-2.1385 c 2.23485,-2.29842 11.4502,-11.96068 13.50471,-14.15964 l 1.24869,-1.33655 -0.59894,-1.18852 c -0.36182,-0.71794 -0.71418,-1.79633 -0.89084,-2.72382 -0.49502,-2.59781 0.0756,-5.18598 1.64301,-7.49917 0.75952,-1.118 1.97647,-2.27897 3.01073,-2.87138 0.35614,-0.204 0.64899,-0.4487 0.65089,-0.5432 0.003,-0.0951 -0.82377,-3.45065 -1.83649,-7.45688 l -1.84072,-7.28392 -0.86534,-0.10185 c -2.94884,-0.34954 -5.53606,-3.01408 -6.03363,-6.21479 -0.79732,-5.12705 4.1332,-9.50423 9.17737,-8.14805 z m -3.78074,3.52481 c -1.30887,0.66795 -2.11535,2.04341 -2.12895,3.63112 -0.0285,3.57252 4.32157,5.32865 6.89963,2.78403 2.11101,-2.08372 1.26268,-5.62195 -1.60285,-6.68521 -0.83795,-0.31055 -2.26764,-0.18871 -3.16783,0.27006 z m 7.62648,29.58013 c -1.20892,0.5347 -2.15701,1.41816 -2.80535,2.61408 -0.55265,1.01909 -0.59326,1.20324 -0.59043,2.65136 0.003,1.84428 0.39393,2.82563 1.60106,4.03379 1.10387,1.10451 2.39828,1.63964 4.00945,1.65756 1.14534,0.0154 1.45133,-0.0566 2.46309,-0.55357 1.39644,-0.68676 2.40017,-1.76308 2.9137,-3.12385 0.51202,-1.3572 0.41188,-3.22882 -0.24565,-4.57274 -1.30376,-2.66467 -4.65165,-3.89827 -7.34571,-2.70647 z m -27.49085,31.38181 c -1.79698,0.53376 -2.86873,1.98396 -2.86968,3.88307 -5.6e-4,1.21437 0.28722,1.96234 1.08819,2.82554 1.86349,2.00903 5.26277,1.50935 6.4903,-0.95398 1.21827,-2.44476 -0.17475,-5.32251 -2.83576,-5.85944 -0.90408,-0.18228 -0.90596,-0.18228 -1.87305,0.1046 z m -2.80327,-49.53581 c 1.66181,0.33921 3.19711,1.81265 3.65567,3.50771 0.28911,1.06986 0.0983,2.53545 -0.46573,3.57228 -0.87006,1.59841 -2.36985,2.47149 -4.21937,2.45608 -1.89334,-0.0184 -3.34835,-0.86813 -4.24514,-2.487 -0.44495,-0.8039 -0.51013,-1.09543 -0.51013,-2.30375 0,-1.21332 0.0661,-1.49843 0.51863,-2.32096 1.03557,-1.87192 3.16697,-2.85327 5.26589,-2.42436 z m 58.927278,5.8543 c 1.238864,0.58012 1.909309,1.20981 2.457513,2.30689 1.87067,3.74349 -1.589633,7.96314 -5.579148,6.80336 -3.428933,-0.99686 -4.679613,-5.13289 -2.351613,-7.77752 0.995318,-1.13084 1.854518,-1.53354 3.440462,-1.61269 1.030274,-0.0471 1.448023,0.009 2.032786,0.28045 z m -48.804358,2.85499 c 2.77446,1.60254 3.21809,2.17703 2.60177,3.36886 -0.30138,0.58379 -1.12721,0.96242 -1.75458,0.80488 -0.63955,-0.16088 -4.41425,-2.31839 -4.78088,-2.73311 -0.43739,-0.49497 -0.39393,-1.56306 0.085,-2.11565 0.76047,-0.87571 1.33824,-0.7746 3.84715,0.67456 z m 39.52269,4.75462 c 0.64333,0.64334 0.69434,1.57205 0.11623,2.14186 -0.6934,0.68395 -4.53309,2.71281 -5.13439,2.71281 -1.19323,0 -1.99235,-1.56181 -1.30282,-2.54625 0.39677,-0.56681 4.60064,-2.81385 5.26363,-2.81385 0.37975,0 0.70945,0.15781 1.05719,0.50543 z m -30.02772,0.68016 c 2.60811,1.49574 2.8679,1.72503 2.8679,2.53062 0,0.3466 -0.085,0.78695 -0.18703,0.97871 -0.27018,0.50452 -1.21732,0.85874 -1.82438,0.68209 -0.54509,-0.15873 -4.3349,-2.32053 -4.70219,-2.68216 -0.12659,-0.12357 -0.27205,-0.54415 -0.32405,-0.93241 -0.085,-0.62166 -0.0284,-0.77087 0.43172,-1.23416 0.81149,-0.81237 1.33503,-0.71986 3.73757,0.65841 z m 20.63108,20.47151 c 0.52997,0.57345 2.46706,4.20527 2.46706,4.62645 0,1.03172 -1.03925,1.86895 -2.04554,1.64799 -0.67073,-0.14742 -0.84266,-0.36184 -2.01398,-2.51374 -1.22271,-2.24645 -1.3373,-2.8367 -0.69812,-3.59622 0.38921,-0.46194 0.58664,-0.55357 1.19833,-0.55357 0.53753,0 0.82849,0.10398 1.09235,0.38921 z m 4.30769,8.5026 c 0.43928,0.19451 0.76236,0.65279 1.6858,2.39342 1.27032,2.39436 1.39096,3.00604 0.72458,3.67234 -0.56304,0.56306 -1.22659,0.70757 -1.86416,0.40524 -0.70568,-0.33434 -2.78986,-4.07614 -2.8027,-5.03153 -0.0191,-1.1677 1.16631,-1.92187 2.25639,-1.43965 z m 6.67546,7.60842 c 3.528695,1.25924 4.345567,5.84712 1.47806,8.30164 -1.90383,1.62958 -4.65156,1.48534 -6.47698,-0.33991 -1.94483,-1.94481 -1.93803,-4.79564 0.0191,-6.74981 1.34448,-1.34456 3.28695,-1.8169 4.98266,-1.21176 z"
       id="path27" /><g
       id="text31"
       style="font-size:25.4px;font-family:'Good Times';-inkscape-font-specification:'Good Times';letter-spacing:-0.134937px;word-spacing:-0.690562px;fill:url(#linearGradient41);stroke:#b0bccf;stroke-width:1.3"
       aria-label="icGRAPH"
       transform="matrix(3.0584026,0,0,3.0584026,-329.53465,-741.55526)"><g
         id="path35"
         style="fill:url(#linearGradient40)"><path
           style="color:#000000;-inkscape-font-specification:'Good Times';fill:#b0bccf;stroke:none;-inkscape-stroke:none"
           d="m 80.828774,153.03876 z m 0,0 v -18.4658 h 3.2258 v 18.4658 z"
           id="path38" /><path
           style="color:#000000;-inkscape-font-specification:'Good Times';fill:#b0bccf;stroke:none;-inkscape-stroke:none"
           d="m 80.179687,133.92383 v 19.76562 h 4.525391 v -19.76562 z m 1.298829,1.29883 h 1.925781 v 17.16601 h -1.925781 z"
           id="path39" /></g><path
         style="color:#000000;-inkscape-font-specification:'Good Times';fill:#b0bccf;stroke:none;-inkscape-stroke:none"
         d="m 95.730469,133.92383 c -1.360382,0 -2.639026,0.23284 -3.820313,0.70508 -1.159962,0.45349 -2.186376,1.11279 -3.060547,1.96875 -0.862458,0.8441 -1.540136,1.87155 -2.027343,3.0625 v 0.004 l -0.002,0.004 c -0.473092,1.20093 -0.705078,2.52218 -0.705078,3.94726 0,1.40904 0.232871,2.7369 0.703125,3.9668 v 0.004 l 0.002,0.004 c 0.484774,1.22091 1.155726,2.29262 2.009766,3.20118 l 0.0059,0.006 0.0039,0.004 c 0.868999,0.88711 1.887569,1.59649 3.041015,2.11914 l 0.0059,0.002 0.0059,0.002 c 1.185203,0.51055 2.471134,0.76562 3.837891,0.76562 h 10.658205 v -4.52734 H 95.730469 c -0.749455,0 -1.426139,-0.13604 -2.052735,-0.4043 h -0.002 c -0.617871,-0.27185 -1.141141,-0.63536 -1.58789,-1.0957 -0.446857,-0.47747 -0.798523,-1.04172 -1.058594,-1.71484 -0.257439,-0.66632 -0.388672,-1.38831 -0.388672,-2.17969 0,-0.8097 0.131789,-1.52901 0.386719,-2.17383 0.259438,-0.65623 0.608463,-1.20492 1.054687,-1.66602 0.446386,-0.46126 0.968986,-0.81645 1.585938,-1.07226 h 0.0039 l 0.0039,-0.002 c 0.627077,-0.26875 1.304547,-0.4043 2.054688,-0.4043 h 10.6582 v -4.52539 z m 0,1.29883 h 9.357421 v 1.92578 h -9.357421 c -0.907195,0 -1.766772,0.16856 -2.560547,0.50781 -8.58e-4,3.6e-4 -0.0011,0.002 -0.002,0.002 -0.770521,0.31988 -1.450551,0.77729 -2.019532,1.36524 -0.569775,0.58877 -1.013783,1.29175 -1.330078,2.09179 -0.320803,0.81145 -0.478515,1.70098 -0.478515,2.65235 0,0.93582 0.158268,1.82266 0.476562,2.64648 0.3151,0.81556 0.758405,1.53696 1.326172,2.14258 l 0.002,0.002 0.0039,0.004 c 0.567185,0.58609 1.24317,1.05212 2.009766,1.38867 h 0.002 l 0.0039,0.002 c 0.795323,0.34086 1.657082,0.50977 2.566407,0.50977 h 9.357426 v 1.92578 h -9.357426 c -1.205743,0 -2.305142,-0.22147 -3.320313,-0.6582 -1.008776,-0.45839 -1.883096,-1.06933 -2.636719,-1.83789 -0.734552,-0.78305 -1.315712,-1.70279 -1.74414,-2.78125 -2.16e-4,-5.5e-4 2.16e-4,-0.001 0,-0.002 -0.408436,-1.07101 -0.615234,-2.23057 -0.615235,-3.49414 10e-7,-1.28132 0.207678,-2.43044 0.613282,-3.46289 v -0.002 c 0.427125,-1.04352 1.003526,-1.90966 1.732422,-2.62305 0.750779,-0.73513 1.62051,-1.29631 2.626953,-1.68945 h 0.002 l 0.002,-0.002 c 1.019557,-0.40783 2.127034,-0.61328 3.339844,-0.61328 z"
         id="path36" /><path
         style="fill:#b0bccf;stroke:none"
         d="m 116.65232,153.03876 q -1.9304,0 -3.5814,-0.7112 -1.6256,-0.7366 -2.8448,-1.9812 -1.1938,-1.27 -1.8796,-2.9972 -0.6604,-1.7272 -0.6604,-3.7338 0,-2.032 0.6604,-3.7084 0.6858,-1.6764 1.8796,-2.8448 1.2192,-1.1938 2.8448,-1.8288 1.651,-0.6604 3.5814,-0.6604 h 10.0076 v 3.2258 h -10.0076 q -1.2446,0 -2.3114,0.4572 -1.0414,0.4318 -1.8034,1.2192 -0.762,0.7874 -1.1938,1.8796 -0.4318,1.0922 -0.4318,2.413 0,1.2954 0.4318,2.413 0.4318,1.1176 1.1938,1.9304 0.762,0.7874 1.8034,1.2446 1.0668,0.4572 2.3114,0.4572 h 7.8994 v -4.8006 h -8.3312 v -2.7178 h 11.5824 v 10.7442 z m 31.13247,0 -4.6736,-5.1308 h -6.9088 v -2.8448 h 7.6962 q 1.7526,0 2.6416,-0.9398 0.889,-0.9652 0.889,-2.7686 0,-1.8034 -0.9398,-2.667 -0.9144,-0.889 -2.5908,-0.889 h -10.0584 v 15.24 h -3.2004 v -18.4658 h 13.2588 q 1.5748,0 2.8194,0.4826 1.2446,0.4572 2.1082,1.3462 0.8636,0.8636 1.3208,2.1082 0.4572,1.2446 0.4572,2.794 0,2.3114 -1.016,3.8862 -0.9906,1.5494 -2.794,2.2352 l 5.5626,5.6134 z m 25.36665,0 -2.7686,-4.6482 h -8.7376 l 1.524,-2.6162 h 5.6642 l -4.1148,-6.9088 -8.382,14.1732 h -3.683 l 10.6172,-17.6784 q 0.2794,-0.4826 0.6604,-0.762 0.381,-0.2794 0.9144,-0.2794 0.5334,0 0.889,0.2794 0.381,0.2794 0.6604,0.762 l 10.6426,17.6784 z m 11.29507,-5.1308 v -3.1242 h 7.4168 q 1.7018,0 2.6416,-0.9652 0.9652,-0.9652 0.9652,-2.54 0,-1.6002 -0.9652,-2.54 -0.9398,-0.9398 -2.6416,-0.9398 h -9.779 v 15.24 h -3.2004 v -18.4658 h 12.9794 q 1.6002,0 2.8448,0.4826 1.27,0.4572 2.1336,1.3208 0.8636,0.8382 1.3208,2.0574 0.4572,1.2192 0.4572,2.7432 0,1.4986 -0.4572,2.7432 -0.4572,1.2192 -1.3208,2.1082 -0.8636,0.889 -2.1336,1.397 -1.2446,0.4826 -2.8448,0.4826 z m 31.18328,5.207 v -8.0264 h -9.2964 v -2.8702 h 9.2964 v -7.6454 h 3.2258 v 18.542 z m -14.859,0 v -18.542 h 3.2258 v 18.542 z"
         id="path37" /></g></g></svg>
