<svg height="69.776581mm" viewBox="0 0 62.144792 69.776582" width="62.144794mm" xmlns="http://www.w3.org/2000/svg"><path d="m29.591908.22786659c3.361842.90387531 5.557206 4.29764211 4.952696 7.65660131-.271451 1.509171-.889649 2.6455671-2.065774 3.7981711l-1.015231.995051 1.689893 6.647017c.92947 3.655948 1.689986 6.691143 1.689986 6.745109 0 .05191.339083.09879.75367.100544 3.069134.01417 6.499228 2.239415 7.888795 5.128425.993211 2.064987 1.243333 3.956016.801379 6.060368-.659145 3.137467-3.0728 5.861284-6.136378 6.923862-2.098914.727665-5.067966.537721-7.025256-.450956l-.780543-.393762-2.155975 2.272123c-1.185921 1.249639-4.671613 4.908362-7.746124 8.130455l-5.590066 5.858412.2463.476172c.429297.829965.638321 2.265586.516031 3.545575-.295768 3.09501-2.569405 5.44516-5.783562 5.977797-1.904716.315796-3.997291-.344367-5.4748908-1.726292-4.0234831-3.763564-2.259866-10.315868 3.1159048-11.576229 1.231192-.288984 2.280245-.237267 3.590625.176327l.856002.269833 1.909158-1.963278c2.051721-2.110081 10.511966-10.980623 12.398129-12.999392l1.146371-1.22704-.549864-1.091124c-.332168-.659121-.655653-1.649145-.817846-2.500637-.454457-2.384943.06938-4.76104 1.508386-6.884683.697291-1.0264 1.814514-2.092234 2.764037-2.636108.326953-.187285.595803-.41193.597548-.498687.0023-.0873-.756272-3.167902-1.686001-6.845858l-1.689893-6.687086-.794443-.09351c-2.707209-.320913-5.082427-2.767113-5.539228-5.7055651-.731992-4.7069341 3.794526-8.7254482 8.425377-7.48040361zm-3.470949 3.23597841c-1.201612.6132164-1.942018 1.8759804-1.9545 3.3335879-.02613 3.2797841 3.967455 4.8920261 6.334271 2.555905 1.938034-1.91298 1.159224-5.1612872-1.471507-6.1374239-.769292-.2851037-2.081828-.1732435-2.908264.247931zm7.001571 27.156349c-1.109865.490881-1.980271 1.301951-2.575475 2.399875-.507369.935587-.544648 1.104648-.542058 2.434105.0023 1.693162.361653 2.594109 1.469876 3.70327 1.013415 1.014001 2.201761 1.50529 3.68091 1.521733 1.051489.01418 1.332411-.05191 2.261271-.508202 1.282007-.630491 2.203497-1.618617 2.674946-2.867892.47007-1.24598.378132-2.964245-.225524-4.198051-1.196924-2.446319-4.270487-3.578846-6.743794-2.484698zm-25.238248 28.81039c-1.649744.490015-2.6336728 1.821394-2.6345398 3.564889-.000516 1.114856.2636818 1.801541.9990238 2.594015 1.7108 1.84441 4.831532 1.385673 5.958482-.875808 1.118442-2.244443-.160423-4.88639-2.603401-5.379321-.83-.16735-.831723-.16735-1.719565.09597zm-2.573577-45.476866c1.525647.311415 2.935148 1.664123 3.356123 3.2203.265428.982195.09023 2.327685-.427561 3.279562-.798767 1.467439-2.175664 2.268971-3.8736418 2.254827-1.738199-.01688-3.0739845-.796997-3.8972918-2.283211-.408484-.738025-.4683334-1.005668-.4683334-2.114982 0-1.113907.0607-1.375654.4761389-2.130778.9507168-1.718534 2.9074673-2.619481 4.8344011-2.225718zm54.098787 5.374599c1.137345.532589 1.752859 1.110685 2.256138 2.117865 1.717397 3.436752-1.459377 7.310651-5.121991 6.245895-3.147967-.915173-4.296166-4.712301-2.158918-7.140231.913757-1.038179 1.702562-1.407884 3.158551-1.480542.945855-.04324 1.329376.0082 1.86622.25747zm-44.805333 2.621064c2.547126 1.471223 2.954402 1.998645 2.388577 3.092817-.276679.535951-1.034839.883554-1.610812.738928-.587142-.147709-4.052548-2.128424-4.389133-2.509167-.401546-.454412-.361654-1.434978.07804-1.94229.698157-.803958 1.228589-.711129 3.531924.619289zm36.284207 4.365026c.590612.590622.637442 1.443226.106641 1.966347-.636585.627913-4.161652 2.490534-4.713684 2.490534-1.09546 0-1.829091-1.43384-1.196069-2.33761.364266-.520367 4.22367-2.583292 4.832329-2.583292.348633 0 .651316.144883.97057.464021zm-27.567256.62442c2.394402 1.373182 2.632898 1.583682 2.632898 2.323266 0 .3182-.07804.722464-.171696.89851-.248048.463188-1.117575.788383-1.674893.626202-.500432-.145717-3.979701-2.130381-4.316896-2.462385-.116252-.113436-.249747-.499565-.297492-.856003-.07804-.570724-.02601-.707709.396343-1.133033.745-.745809 1.225638-.66088 3.431313.604451zm18.940566 18.794077c.486545.526472 2.264916 3.860693 2.264916 4.247367 0 .947178-.954093 1.715804-1.877924 1.512956-.615774-.135345-.773619-.332191-1.848957-2.307774-1.122521-2.062373-1.227726-2.604257-.640922-3.301536.357316-.424093.538578-.508212 1.100136-.508212.493495 0 .76061.0954 1.002845.357317zm3.954727 7.805904c.40328.178576.699892.599307 1.54767 2.197309 1.16622 2.198164 1.276978 2.759724.665203 3.371428-.516911.516922-1.126084.649582-1.71141.372026-.647858-.306936-2.56126-3.742142-2.573049-4.619239-.01758-1.072023 1.070746-1.764391 2.071505-1.321689zm6.12847 6.984987c3.239552 1.156062 3.989484 5.368012 1.356949 7.621408-1.747831 1.496047-4.270417 1.363632-5.946259-.312057-1.785474-1.785451-1.779227-4.402692.01758-6.196733 1.234322-1.234391 3.017615-1.668024 4.574379-1.112466z" fill="#2b3bff" stroke-width=".599959"/></svg>