<?xml version="1.0" encoding="UTF-8" standalone="no"?>
<svg
   height="76.004349mm"
   viewBox="0 0 499.58765 76.00435"
   width="499.58768mm"
   version="1.1"
   id="svg15"
   sodipodi:docname="logo-og-alter.svg"
   inkscape:version="1.3.2 (091e20ef0f, 2023-11-25, custom)"
   xml:space="preserve"
   xmlns:inkscape="http://www.inkscape.org/namespaces/inkscape"
   xmlns:sodipodi="http://sodipodi.sourceforge.net/DTD/sodipodi-0.dtd"
   xmlns:xlink="http://www.w3.org/1999/xlink"
   xmlns="http://www.w3.org/2000/svg"
   xmlns:svg="http://www.w3.org/2000/svg"><defs
     id="defs15"><linearGradient
       id="linearGradient17"
       inkscape:collect="always"><stop
         style="stop-color:#b0bccf;stop-opacity:1;"
         offset="0"
         id="stop17" /><stop
         style="stop-color:#b0bccf;stop-opacity:0;"
         offset="1"
         id="stop18" /></linearGradient><inkscape:path-effect
       effect="fill_between_many"
       method="originald"
       linkedpaths="#g2,0,1"
       id="path-effect16"
       is_visible="true"
       lpeversion="0"
       join="true"
       close="true"
       autoreverse="true" /><linearGradient
       inkscape:collect="always"
       xlink:href="#linearGradient17"
       id="linearGradient18"
       x1="80.328773"
       y1="143.80586"
       x2="218.85559"
       y2="143.80586"
       gradientUnits="userSpaceOnUse"
       gradientTransform="translate(154.90952,269.2135)" /><linearGradient
       inkscape:collect="always"
       xlink:href="#linearGradient17"
       id="linearGradient40"
       gradientUnits="userSpaceOnUse"
       x1="80.328773"
       y1="143.80586"
       x2="218.85559"
       y2="143.80586" /><linearGradient
       inkscape:collect="always"
       xlink:href="#linearGradient17"
       id="linearGradient41"
       gradientUnits="userSpaceOnUse"
       x1="80.328773"
       y1="143.80586"
       x2="218.85559"
       y2="143.80586" /><linearGradient
       inkscape:collect="always"
       xlink:href="#linearGradient17"
       id="linearGradient42"
       gradientUnits="userSpaceOnUse"
       x1="80.328773"
       y1="143.80586"
       x2="218.85559"
       y2="143.80586"
       gradientTransform="translate(172.49586,226.93147)" /></defs><sodipodi:namedview
     id="namedview15"
     pagecolor="#ffffff"
     bordercolor="#000000"
     borderopacity="0.25"
     inkscape:showpageshadow="2"
     inkscape:pageopacity="0.0"
     inkscape:pagecheckerboard="0"
     inkscape:deskcolor="#d1d1d1"
     inkscape:document-units="mm"
     inkscape:zoom="0.25"
     inkscape:cx="844"
     inkscape:cy="112"
     inkscape:window-width="1920"
     inkscape:window-height="1024"
     inkscape:window-x="1920"
     inkscape:window-y="0"
     inkscape:window-maximized="1"
     inkscape:current-layer="g31"
     showguides="true"><sodipodi:guide
       position="201.2116,-441.12965"
       orientation="1,0"
       id="guide42"
       inkscape:locked="false" /></sodipodi:namedview><path
     d="m 159.80716,273.41243 h 51.14958 v 39.91076 c 0,33.58458 -51.84829,32.48924 -51.84829,0 z"
     fill="none"
     stroke="#b0bccf"
     stroke-width="8.39786"
     id="path1" /><g
     fill="#b0bccf"
     id="g15"
     transform="translate(154.90952,269.2135)"><g
       transform="matrix(2.000607,1.1550509,-1.1550509,2.000607,-114.54424,-361.12059)"
       id="g5"><rect
         height="6.6778841"
         ry="0.91743702"
         width="1.109652"
         x="133.26457"
         y="113.53527"
         id="rect1" /><rect
         height="6.6778841"
         ry="0.91743702"
         width="1.109652"
         x="145.20386"
         y="113.53527"
         id="rect2" /><rect
         height="14.584357"
         ry="1.550303"
         width="1.621357"
         x="135.81224"
         y="109.58203"
         id="rect3" /><rect
         height="14.584357"
         ry="1.550303"
         width="1.621357"
         x="142.14449"
         y="109.58203"
         id="rect4" /><rect
         height="20.411003"
         ry="2.1696701"
         width="1.834875"
         x="138.87161"
         y="106.66871"
         id="rect5" /></g><g
       stroke-width="0.715877"
       transform="matrix(1.3467588,0,0,1.3467588,-106.93441,30.218159)"
       id="g9"><path
         d="m 149.74457,0.19113632 q -2.17627,0 -4.03756,-0.801776 -1.83265,-0.83042902 -3.20713,-2.23354302 -1.34584,-1.431739 -2.11899,-3.37894 -0.74452,-1.947173 -0.74452,-4.2093413 0,-2.290823 0.74452,-4.180744 0.77315,-1.889893 2.11899,-3.207128 1.37448,-1.345835 3.20713,-2.061706 1.86129,-0.744523 4.03756,-0.744523 h 5.0684 q 2.26217,0 4.12346,0.744523 1.88989,0.744496 3.23576,2.090358 1.34583,1.345834 2.09036,3.235755 0.74449,1.861296 0.74449,4.123465 0,2.2621683 -0.77312,4.2093413 -0.74452,1.947201 -2.11901,3.37894 -1.34584,1.403114 -3.20713,2.23354302 -1.86127,0.801776 -4.09481,0.801776 z m 5.0684,-3.63665702 q 1.43176,0 2.63441,-0.515434 1.20268,-0.515432 2.06174,-1.403113 0.88768,-0.916334 1.37448,-2.176263 0.48681,-1.259957 0.48681,-2.7203223 0,-1.460394 -0.48681,-2.691697 -0.4868,-1.259956 -1.37448,-2.147638 -0.85906,-0.887681 -2.06174,-1.374488 -1.20265,-0.515432 -2.63441,-0.515432 h -5.0684 q -1.40314,0 -2.60579,0.515432 -1.17406,0.486807 -2.03311,1.374488 -0.85906,0.887682 -1.34584,2.118984 -0.4868,1.231304 -0.4868,2.720351 0,1.4603653 0.4868,2.7203223 0.48678,1.259929 1.34584,2.176263 0.85905,0.887681 2.03311,1.403113 1.20265,0.515434 2.60579,0.515434 z"
         id="path5" /><path
         d="M 167.95643,0.19113632 V -3.4455207 h 15.60612 q 1.46039,0 2.23351,-0.744497 0.80181,-0.744522 0.80181,-1.975826 0,-1.345861 -0.80181,-2.004452 -0.77312,-0.687243 -2.23351,-0.687243 h -9.56411 q -1.4604,0 -2.66307,-0.429529 -1.17405,-0.458153 -2.00445,-1.2313023 -0.80178,-0.801803 -1.25996,-1.889921 -0.42953,-1.088145 -0.42953,-2.376728 0,-1.259929 0.4009,-2.319421 0.42953,-1.088145 1.23131,-1.861295 0.83042,-0.773149 2.0331,-1.202676 1.20265,-0.458154 2.74895,-0.458154 h 14.9475 v 3.636657 h -14.9475 q -1.25993,0 -1.94717,0.687243 -0.68725,0.658618 -0.68725,1.861269 0,1.202675 0.68725,1.861294 0.71587,0.658591 1.91854,0.658591 h 9.53549 q 3.17847,0 4.81068,1.489047 1.66083,1.4890193 1.66083,4.5243373 0,1.317209 -0.40088,2.433981 -0.4009,1.11677 -1.20267,1.947173 -0.80178,0.80180302 -2.03311,1.25995502 -1.20265,0.458154 -2.83485,0.458154 z"
         id="path6" /><path
         d="M 193.35572,0.19113632 V -20.626565 h 3.63666 V 0.19113632 Z"
         id="path7" /><path
         d="M 204.17973,-15.042736 V 0.19113632 h -3.46485 V -18.708018 q 0,-1.002213 0.48678,-1.574925 0.51544,-0.601338 1.37449,-0.601338 0.4009,0 0.77315,0.171811 0.37225,0.171811 0.77315,0.572712 L 218.8123,-5.5645047 V -20.798376 h 3.46487 v 19.0709653 q 0,1.03086602 -0.51544,1.60357902 -0.48678,0.572685 -1.28859,0.572685 -0.88768,0 -1.66084,-0.77315 z"
         id="path8" /><path
         d="M 232.47127,0.19113632 V -16.989908 h -7.9033 v -3.636657 h 19.44324 v 3.636657 h -7.90327 V 0.19113632 Z"
         id="path9" /></g><g
       stroke-width="0.715877"
       transform="matrix(1.3467588,0,0,1.3467588,-108.04477,30.218159)"
       id="g14"><path
         d="M 140.46084,26.68477 V 5.867069 h 15.23379 q 1.51767,0 2.74897,0.3436219 1.25993,0.343622 2.14764,1.030866 0.88768,0.6585907 1.37448,1.6894568 0.48678,1.0022394 0.48678,2.3194473 0,1.002214 -0.22917,1.746736 -0.22917,0.744497 -0.62999,1.288583 -0.40087,0.515433 -0.94496,0.887682 -0.51542,0.343621 -1.08811,0.515432 1.43173,0.458153 2.34808,1.660831 0.91629,1.202676 0.91629,3.035319 0,1.431766 -0.48676,2.60579 -0.45817,1.145398 -1.34588,1.975828 -0.85904,0.830401 -2.11897,1.288581 -1.23131,0.429527 -2.74898,0.429527 z m 6.27104,-9.048703 v -3.063945 h 8.9914 q 1.54627,0 2.29079,-0.572711 0.74454,-0.572685 0.74454,-1.947174 0,-0.830428 -0.31501,-1.317208 -0.31499,-0.515432 -0.91633,-0.7731493 -0.57269,-0.2863435 -1.40311,-0.3722476 -0.80178,-0.086037 -1.80401,-0.086037 H 144.09748 V 23.076608 h 10.53765 q 0.9736,0 1.80402,-0.143134 0.8304,-0.143133 1.43174,-0.458151 0.60135,-0.343624 0.91633,-0.859057 0.34363,-0.515433 0.34363,-1.288581 0,-1.288556 -0.80177,-1.975801 -0.80181,-0.715897 -2.34809,-0.715897 z"
         id="path10" /><path
         d="m 184.61602,5.867069 h 3.55074 v 11.62584 q 0,2.405326 -0.62994,4.209343 -0.62997,1.775389 -1.97584,2.949412 -1.34584,1.174052 -3.49348,1.746737 -2.11897,0.572712 -5.15429,0.572712 -3.0067,0 -5.15433,-0.572712 -2.11898,-0.572685 -3.46485,-1.746737 -1.34583,-1.174023 -1.97582,-2.949412 -0.62997,-1.804017 -0.62997,-4.209343 V 5.867069 h 3.75119 v 11.62584 q 0,1.574925 0.37227,2.691697 0.40087,1.116772 1.25993,1.832641 0.88768,0.715871 2.34807,1.059492 1.4604,0.314996 3.60804,0.314996 2.14763,0 3.608,-0.314996 1.4604,-0.343621 2.31946,-1.059492 0.88767,-0.715869 1.25994,-1.832641 0.40088,-1.116772 0.40088,-2.691697 z"
         id="path11" /><path
         d="M 191.45981,26.68477 V 5.867069 h 12.05537 q 2.20488,0 4.06618,0.7444961 1.86126,0.7445236 3.20713,2.0903583 1.34584,1.3458616 2.09036,3.2357826 0.77315,1.861267 0.77315,4.123437 0,2.262169 -0.77315,4.209369 -0.74452,1.947172 -2.09036,3.37894 -1.34587,1.403114 -3.20713,2.233516 -1.8613,0.801802 -4.06618,0.801802 z m 12.05537,-3.636657 q 1.40312,0 2.57716,-0.515433 1.20267,-0.515433 2.06173,-1.403113 0.88768,-0.916334 1.37446,-2.176263 0.48681,-1.259957 0.48681,-2.720351 0,-1.460393 -0.48681,-2.691697 -0.48678,-1.259929 -1.37446,-2.147636 -0.85906,-0.887681 -2.06173,-1.374461 -1.17404,-0.5154326 -2.57716,-0.5154326 h -8.44734 V 23.048113 Z"
         id="path12" /><path
         d="M 216.63004,26.68477 V 5.867069 h 12.05537 q 2.20489,0 4.06618,0.7444961 1.86128,0.7445236 3.20713,2.0903583 1.34582,1.3458616 2.09036,3.2357826 0.77314,1.861267 0.77314,4.123437 0,2.262169 -0.77314,4.209369 -0.74454,1.947172 -2.09036,3.37894 -1.34585,1.403114 -3.20713,2.233516 -1.86129,0.801802 -4.06618,0.801802 z m 12.05537,-3.636657 q 1.4031,0 2.57712,-0.515433 1.2027,-0.515433 2.06175,-1.403113 0.88767,-0.916334 1.37448,-2.176263 0.48681,-1.259957 0.48681,-2.720351 0,-1.460393 -0.48681,-2.691697 -0.48681,-1.259929 -1.37448,-2.147636 -0.85905,-0.887681 -2.06175,-1.374461 -1.17402,-0.5154326 -2.57712,-0.5154326 h -8.44737 V 23.048113 Z"
         id="path13" /><path
         d="M 248.41493,26.68477 V 18.781491 L 237.36178,5.867069 h 4.89661 l 8.10371,9.592735 8.13238,-9.592735 h 4.63887 l -11.08179,12.914422 v 7.903279 z"
         id="path14" /></g></g><g
     id="g1"
     transform="translate(154.90952,269.2135)" /><path
     inkscape:original-d="M 0,0"
     inkscape:path-effect="#path-effect16"
     d="M 0,0"
     id="path16"
     transform="translate(154.90952,269.2135)" /><path
     style="fill:#b0bccf;fill-opacity:1;stroke-width:0.213676"
     d="m 220.95508,399.63356 c 1.19733,0.32192 1.97921,1.53061 1.76391,2.72691 -0.0967,0.53749 -0.31685,0.94222 -0.73573,1.35272 l -0.36157,0.35439 0.60185,2.36734 c 0.33104,1.30207 0.60189,2.38306 0.60189,2.40228 0,0.0185 0.12077,0.0352 0.26843,0.0358 1.09307,0.005 2.3147,0.79757 2.8096,1.82649 0.35373,0.73545 0.44281,1.40894 0.28541,2.15841 -0.23476,1.11741 -1.09438,2.0875 -2.18548,2.46594 -0.74753,0.25916 -1.80496,0.19151 -2.50205,-0.16061 l -0.27799,-0.14024 -0.76785,0.80922 c -0.42237,0.44506 -1.6638,1.74812 -2.75879,2.89567 l -1.99091,2.08648 0.0877,0.16959 c 0.1529,0.29559 0.22734,0.80689 0.18378,1.26276 -0.10533,1.10229 -0.91509,1.9393 -2.05982,2.129 -0.67836,0.11247 -1.42364,-0.12265 -1.94988,-0.61482 -1.43297,-1.3404 -0.80486,-3.67401 1.10972,-4.12289 0.43849,-0.10292 0.81212,-0.0845 1.27881,0.0628 l 0.30487,0.0961 0.67994,-0.69922 c 0.73073,-0.75151 3.74385,-3.91076 4.41561,-4.62975 l 0.40828,-0.43701 -0.19583,-0.38861 c -0.1183,-0.23474 -0.23351,-0.58734 -0.29128,-0.8906 -0.16185,-0.8494 0.0247,-1.69565 0.53722,-2.45199 0.24834,-0.36555 0.64624,-0.74515 0.98441,-0.93885 0.11644,-0.0667 0.2122,-0.14671 0.21282,-0.17761 9.2e-4,-0.0311 -0.26935,-1.12825 -0.60047,-2.43816 l -0.60186,-2.38161 -0.28294,-0.0333 c -0.96418,-0.11429 -1.81011,-0.98551 -1.9728,-2.03204 -0.2607,-1.67638 1.35142,-3.10758 3.0007,-2.66415 z m -1.23618,1.1525 c -0.42796,0.2184 -0.69165,0.66813 -0.6961,1.18726 -0.009,1.1681 1.41302,1.7423 2.25596,0.91029 0.69023,-0.68131 0.41286,-1.8382 -0.52408,-2.18585 -0.27398,-0.10154 -0.74144,-0.0617 -1.03578,0.0883 z m 2.49362,9.67176 c -0.39528,0.17483 -0.70528,0.46369 -0.91726,0.85472 -0.1807,0.33321 -0.19398,0.39342 -0.19306,0.86691 10e-4,0.60302 0.12881,0.92389 0.5235,1.31892 0.36093,0.36114 0.78416,0.53611 1.31096,0.54197 0.37449,0.005 0.47454,-0.0185 0.80535,-0.181 0.4566,-0.22455 0.78478,-0.57647 0.95269,-1.0214 0.16742,-0.44376 0.13468,-1.05572 -0.0803,-1.49514 -0.42629,-0.87126 -1.52094,-1.27461 -2.40181,-0.88493 z m -8.98863,10.26085 c -0.58756,0.17452 -0.93798,0.64869 -0.93829,1.26964 -1.9e-4,0.39706 0.0939,0.64162 0.3558,0.92386 0.6093,0.65689 1.72076,0.49351 2.12212,-0.31192 0.39833,-0.79936 -0.0571,-1.74029 -0.92721,-1.91585 -0.2956,-0.0596 -0.29622,-0.0596 -0.61242,0.0342 z m -0.91658,-16.19663 c 0.54336,0.11091 1.04535,0.59268 1.19529,1.14691 0.0945,0.34981 0.0321,0.82901 -0.15228,1.16802 -0.28449,0.52263 -0.77487,0.8081 -1.3796,0.80306 -0.61906,-0.006 -1.09481,-0.28385 -1.38803,-0.81317 -0.14548,-0.26285 -0.1668,-0.35817 -0.1668,-0.75325 0,-0.39672 0.0216,-0.48994 0.16958,-0.75888 0.3386,-0.61206 1.0355,-0.93293 1.72178,-0.79269 z m 19.26734,1.91417 c 0.40507,0.18968 0.62428,0.39557 0.80352,0.75428 0.61165,1.224 -0.51975,2.60369 -1.8242,2.22448 -1.12115,-0.32594 -1.53008,-1.67829 -0.7689,-2.543 0.32544,-0.36975 0.60637,-0.50142 1.12492,-0.5273 0.33687,-0.0154 0.47346,0.003 0.66466,0.0917 z m -15.95747,0.93349 c 0.90716,0.52398 1.05221,0.71182 0.85069,1.10151 -0.0985,0.19088 -0.36855,0.31468 -0.57368,0.26317 -0.20912,-0.0526 -1.44332,-0.75804 -1.5632,-0.89364 -0.14301,-0.16184 -0.1288,-0.51107 0.0278,-0.69175 0.24865,-0.28633 0.43756,-0.25327 1.2579,0.22056 z m 12.92266,1.55461 c 0.21035,0.21035 0.22703,0.51401 0.038,0.70032 -0.22672,0.22363 -1.48218,0.887 -1.67878,0.887 -0.39015,0 -0.65144,-0.51066 -0.42598,-0.83254 0.12973,-0.18533 1.50426,-0.92004 1.72103,-0.92004 0.12417,0 0.23197,0.0516 0.34567,0.16526 z m -9.81811,0.22239 c 0.85277,0.48906 0.93771,0.56403 0.93771,0.82743 0,0.11333 -0.0278,0.25731 -0.0611,0.32001 -0.0883,0.16496 -0.39802,0.28078 -0.59651,0.22302 -0.17823,-0.0519 -1.41738,-0.75874 -1.53747,-0.87698 -0.0414,-0.0404 -0.089,-0.17792 -0.10595,-0.30487 -0.0278,-0.20326 -0.009,-0.25205 0.14115,-0.40353 0.26534,-0.26562 0.43652,-0.23537 1.22207,0.21528 z m 6.74571,6.69353 c 0.17328,0.1875 0.80665,1.37499 0.80665,1.5127 0,0.33734 -0.33981,0.61109 -0.66883,0.53884 -0.21931,-0.0482 -0.27552,-0.11831 -0.65851,-0.82191 -0.39978,-0.73452 -0.43725,-0.92751 -0.22826,-1.17585 0.12726,-0.15104 0.19181,-0.181 0.39182,-0.181 0.17575,0 0.27089,0.034 0.35716,0.12726 z m 1.40847,2.78008 c 0.14363,0.0636 0.24927,0.21344 0.55121,0.78257 0.41535,0.78288 0.45479,0.98288 0.23691,1.20074 -0.18409,0.1841 -0.40105,0.23135 -0.60952,0.1325 -0.23074,-0.10932 -0.91219,-1.33277 -0.9164,-1.64515 -0.006,-0.3818 0.38135,-0.62839 0.73777,-0.47072 z m 2.18267,2.48771 c 1.15377,0.41173 1.42086,1.91182 0.48327,2.71437 -0.62249,0.53282 -1.52091,0.48566 -2.11776,-0.11114 -0.6359,-0.63589 -0.63367,-1.56802 0.006,-2.20697 0.4396,-0.43963 1.07473,-0.59407 1.62917,-0.39621 z"
     id="path1-5" /><rect
     style="fill:none;fill-opacity:1;stroke:#b0bccf;stroke-width:2.427;stroke-opacity:1"
     id="rect16"
     width="31.220833"
     height="31.220833"
     x="141.74989"
     y="404.43253" /><text
     xml:space="preserve"
     style="font-style:normal;font-variant:normal;font-weight:normal;font-stretch:normal;font-size:25.4px;font-family:'Good Times';-inkscape-font-specification:'Good Times';letter-spacing:-0.134937px;word-spacing:-0.690562px;fill:url(#linearGradient18);stroke:#b0bccf;stroke-width:1.3;stroke-dasharray:none;stroke-opacity:1"
     x="233.9603"
     y="422.25226"
     id="text16"><tspan
       sodipodi:role="line"
       id="tspan16"
       style="fill:url(#linearGradient18);stroke-width:1.3;stroke-dasharray:none"
       x="233.9603"
       y="422.25226"><tspan
         style="fill:url(#linearGradient18);fill-opacity:1;stroke-width:1.3;stroke-dasharray:none"
         id="tspan18">i<tspan
   style="fill:url(#linearGradient18);stroke-width:1.3;stroke-dasharray:none"
   id="tspan19">c</tspan></tspan><tspan
         style="fill:url(#linearGradient18);fill-opacity:1;stroke:none;stroke-width:1.3;stroke-dasharray:none"
         id="tspan17">GRAPH</tspan></tspan></text><path
     style="fill:#b0bccf;fill-opacity:1;stroke-width:0.213676"
     d="m 238.54142,357.35153 c 1.19732,0.32192 1.9792,1.53061 1.76391,2.72691 -0.0967,0.53749 -0.31685,0.94222 -0.73573,1.35272 l -0.36158,0.35439 0.60186,2.36734 c 0.33103,1.30207 0.60189,2.38306 0.60189,2.40228 0,0.0185 0.12077,0.0352 0.26842,0.0358 1.09307,0.005 2.31471,0.79757 2.8096,1.82649 0.35373,0.73545 0.44282,1.40893 0.28541,2.1584 -0.23475,1.11741 -1.09437,2.0875 -2.18547,2.46594 -0.74753,0.25916 -1.80496,0.19151 -2.50205,-0.16061 l -0.278,-0.14024 -0.76785,0.80922 c -0.42237,0.44506 -1.6638,1.74812 -2.75879,2.89567 l -1.99091,2.08648 0.0877,0.16959 c 0.1529,0.29559 0.22734,0.80689 0.18379,1.26276 -0.10534,1.10229 -0.9151,1.9393 -2.05982,2.129 -0.67837,0.11247 -1.42364,-0.12265 -1.94989,-0.61482 -1.43297,-1.3404 -0.80485,-3.67401 1.10973,-4.12289 0.43849,-0.10292 0.81211,-0.0845 1.27881,0.0628 l 0.30486,0.0961 0.67995,-0.69922 c 0.73072,-0.75151 3.74385,-3.91076 4.41561,-4.62975 l 0.40828,-0.43701 -0.19583,-0.38861 c -0.11831,-0.23474 -0.23352,-0.58734 -0.29128,-0.8906 -0.16185,-0.8494 0.0247,-1.69564 0.53721,-2.45198 0.24834,-0.36555 0.64625,-0.74515 0.98441,-0.93885 0.11645,-0.0667 0.2122,-0.14671 0.21282,-0.17761 9.2e-4,-0.0311 -0.26934,-1.12825 -0.60047,-2.43816 l -0.60186,-2.38161 -0.28293,-0.0333 c -0.96418,-0.11429 -1.81012,-0.98551 -1.97281,-2.03204 -0.2607,-1.67638 1.35143,-3.10758 3.00071,-2.66415 z m -1.23618,1.1525 c -0.42796,0.2184 -0.69165,0.66813 -0.6961,1.18726 -0.009,1.1681 1.41301,1.7423 2.25596,0.91029 0.69023,-0.68131 0.41285,-1.8382 -0.52408,-2.18585 -0.27398,-0.10154 -0.74145,-0.0617 -1.03578,0.0883 z m 2.49361,9.67176 c -0.39528,0.17483 -0.70527,0.46369 -0.91726,0.85472 -0.1807,0.3332 -0.19398,0.39341 -0.19305,0.8669 0.001,0.60302 0.1288,0.92389 0.5235,1.31892 0.36093,0.36114 0.78416,0.53611 1.31096,0.54197 0.37449,0.005 0.47454,-0.0185 0.80535,-0.181 0.45659,-0.22455 0.78478,-0.57647 0.95269,-1.0214 0.16741,-0.44376 0.13467,-1.05572 -0.0803,-1.49513 -0.42629,-0.87126 -1.52094,-1.27461 -2.40181,-0.88493 z m -8.98863,10.26084 c -0.58755,0.17452 -0.93798,0.64869 -0.93829,1.26964 -1.8e-4,0.39706 0.0939,0.64162 0.3558,0.92386 0.60931,0.65689 1.72076,0.49351 2.12212,-0.31192 0.39834,-0.79936 -0.0571,-1.74029 -0.9272,-1.91585 -0.2956,-0.0596 -0.29622,-0.0596 -0.61243,0.0342 z m -0.91658,-16.19662 c 0.54336,0.11091 1.04536,0.59268 1.19529,1.14691 0.0945,0.34981 0.0321,0.82901 -0.15228,1.16802 -0.28448,0.52263 -0.77486,0.8081 -1.3796,0.80306 -0.61906,-0.006 -1.0948,-0.28385 -1.38802,-0.81317 -0.14549,-0.26285 -0.1668,-0.35817 -0.1668,-0.75325 0,-0.39672 0.0216,-0.48994 0.16958,-0.75888 0.33859,-0.61206 1.03549,-0.93293 1.72177,-0.79269 z m 19.26734,1.91417 c 0.40507,0.18968 0.62428,0.39557 0.80353,0.75428 0.61165,1.224 -0.51976,2.60369 -1.8242,2.22448 -1.12116,-0.32594 -1.53009,-1.67829 -0.76891,-2.543 0.32544,-0.36975 0.60637,-0.50142 1.12493,-0.5273 0.33686,-0.0154 0.47345,0.003 0.66465,0.0917 z m -15.95746,0.93349 c 0.90715,0.52398 1.05221,0.71182 0.85069,1.10151 -0.0985,0.19088 -0.36856,0.31468 -0.57369,0.26317 -0.20911,-0.0526 -1.44332,-0.75804 -1.56319,-0.89364 -0.14302,-0.16184 -0.12881,-0.51107 0.0278,-0.69175 0.24865,-0.28633 0.43756,-0.25327 1.25789,0.22056 z m 12.92265,1.55461 c 0.21035,0.21035 0.22703,0.51401 0.038,0.70032 -0.22672,0.22363 -1.48217,0.887 -1.67878,0.887 -0.39015,0 -0.65143,-0.51066 -0.42598,-0.83254 0.12973,-0.18533 1.50426,-0.92004 1.72104,-0.92004 0.12417,0 0.23197,0.0516 0.34567,0.16526 z m -9.8181,0.22239 c 0.85276,0.48906 0.93771,0.56403 0.93771,0.82743 0,0.11333 -0.0278,0.25731 -0.0611,0.32001 -0.0883,0.16496 -0.39803,0.28078 -0.59652,0.22302 -0.17822,-0.0519 -1.41737,-0.75874 -1.53746,-0.87698 -0.0414,-0.0404 -0.0889,-0.17792 -0.10596,-0.30487 -0.0278,-0.20326 -0.009,-0.25205 0.14116,-0.40353 0.26533,-0.26562 0.43651,-0.23537 1.22207,0.21528 z m 6.7457,6.69352 c 0.17329,0.1875 0.80665,1.37499 0.80665,1.5127 0,0.33734 -0.3398,0.61109 -0.66883,0.53884 -0.2193,-0.0482 -0.27552,-0.11831 -0.6585,-0.82191 -0.39979,-0.73452 -0.43726,-0.92751 -0.22827,-1.17585 0.12726,-0.15104 0.19182,-0.181 0.39182,-0.181 0.17575,0 0.27089,0.034 0.35716,0.12726 z m 1.40848,2.78008 c 0.14363,0.0636 0.24927,0.21344 0.5512,0.78257 0.41536,0.78288 0.4548,0.98288 0.23691,1.20074 -0.18409,0.1841 -0.40105,0.23135 -0.60952,0.1325 -0.23073,-0.10932 -0.91219,-1.33277 -0.91639,-1.64515 -0.006,-0.3818 0.38135,-0.62839 0.73777,-0.47072 z m 2.18266,2.48771 c 1.15377,0.41173 1.42086,1.91182 0.48328,2.71437 -0.62249,0.53282 -1.52091,0.48566 -2.11777,-0.11114 -0.63589,-0.63589 -0.63367,-1.56802 0.006,-2.20697 0.4396,-0.43963 1.07473,-0.59407 1.62917,-0.39621 z"
     id="path24" /><text
     xml:space="preserve"
     style="font-style:normal;font-variant:normal;font-weight:normal;font-stretch:normal;font-size:25.4px;font-family:'Good Times';-inkscape-font-specification:'Good Times';letter-spacing:-0.134937px;word-spacing:-0.690562px;fill:url(#linearGradient42);stroke:#b0bccf;stroke-width:1.3;stroke-dasharray:none;stroke-opacity:1"
     x="251.54663"
     y="379.97021"
     id="text27"><tspan
       sodipodi:role="line"
       id="tspan27"
       style="fill:url(#linearGradient42);stroke-width:1.3;stroke-dasharray:none"
       x="251.54663"
       y="379.97021"><tspan
         style="fill:url(#linearGradient42);fill-opacity:1;stroke-width:1.3;stroke-dasharray:none"
         id="tspan25">i<tspan
   style="fill:url(#linearGradient42);stroke-width:1.3;stroke-dasharray:none"
   id="tspan24">c</tspan></tspan><tspan
         style="fill:url(#linearGradient42);fill-opacity:1;stroke:none;stroke-width:1.3;stroke-dasharray:none"
         id="tspan26">GRAPH</tspan></tspan></text><g
     id="g31"
     transform="translate(159.77383,342.92644)"><path
       style="fill:#b0bccf;stroke-width:0.653508"
       d="m -127.54075,-342.67823 c 3.6619,0.98456 6.0532,4.68122 5.39474,8.33999 -0.29568,1.64386 -0.96906,2.88169 -2.25015,4.13716 l -1.10585,1.08387 1.84072,7.24028 c 1.01243,3.98225 1.84083,7.28835 1.84083,7.34713 0,0.0566 0.36935,0.10767 0.82094,0.10949 3.34306,0.0154 7.0793,2.43929 8.59289,5.58615 1.08186,2.2493 1.3543,4.3091 0.8729,6.60128 -0.71797,3.41749 -3.34705,6.38442 -6.68407,7.54184 -2.28624,0.79261 -5.52029,0.58571 -7.65227,-0.49121 l -0.85022,-0.42891 -2.3484,2.47492 c -1.29177,1.36117 -5.08857,5.34645 -8.43749,8.85612 l -6.089,6.3813 0.26828,0.51867 c 0.46762,0.90404 0.69529,2.4678 0.56209,3.86203 -0.32216,3.37125 -2.79873,5.93116 -6.29976,6.51134 -2.07472,0.34398 -4.35406,-0.37511 -5.96354,-1.88037 -4.38259,-4.09948 -2.46157,-11.2366 3.394,-12.60945 1.34108,-0.31477 2.48377,-0.25844 3.9111,0.19207 l 0.93241,0.29391 2.07955,-2.1385 c 2.23485,-2.29842 11.4502,-11.96068 13.50471,-14.15964 l 1.24869,-1.33655 -0.59894,-1.18852 c -0.36182,-0.71794 -0.71418,-1.79633 -0.89084,-2.72382 -0.49502,-2.59781 0.0756,-5.18598 1.64301,-7.49917 0.75952,-1.118 1.97647,-2.27897 3.01073,-2.87138 0.35614,-0.204 0.64899,-0.4487 0.65089,-0.5432 0.003,-0.0951 -0.82377,-3.45065 -1.83649,-7.45688 l -1.84072,-7.28392 -0.86534,-0.10185 c -2.94884,-0.34954 -5.53606,-3.01408 -6.03363,-6.21479 -0.79732,-5.12705 4.1332,-9.50423 9.17737,-8.14805 z m -3.78074,3.52481 c -1.30887,0.66795 -2.11535,2.04341 -2.12895,3.63112 -0.0285,3.57252 4.32157,5.32865 6.89963,2.78403 2.11101,-2.08372 1.26268,-5.62195 -1.60285,-6.68521 -0.83795,-0.31055 -2.26764,-0.18871 -3.16783,0.27006 z m 7.62648,29.58013 c -1.20892,0.5347 -2.15701,1.41816 -2.80535,2.61408 -0.55265,1.01909 -0.59326,1.20324 -0.59043,2.65136 0.003,1.84428 0.39393,2.82563 1.60106,4.03379 1.10387,1.10451 2.39828,1.63964 4.00945,1.65756 1.14534,0.0154 1.45133,-0.0566 2.46309,-0.55357 1.39644,-0.68676 2.40017,-1.76308 2.9137,-3.12385 0.51202,-1.3572 0.41188,-3.22882 -0.24565,-4.57274 -1.30376,-2.66467 -4.65165,-3.89827 -7.34571,-2.70647 z m -27.49085,31.38181 c -1.79698,0.53376 -2.86873,1.98396 -2.86968,3.88307 -5.6e-4,1.21437 0.28722,1.96234 1.08819,2.82554 1.86349,2.00903 5.26277,1.50935 6.4903,-0.95398 1.21827,-2.44476 -0.17475,-5.32251 -2.83576,-5.85944 -0.90408,-0.18228 -0.90596,-0.18228 -1.87305,0.1046 z m -2.80327,-49.53581 c 1.66181,0.33921 3.19711,1.81265 3.65567,3.50771 0.28911,1.06986 0.0983,2.53545 -0.46573,3.57228 -0.87006,1.59841 -2.36985,2.47149 -4.21937,2.45608 -1.89334,-0.0184 -3.34835,-0.86813 -4.24514,-2.487 -0.44495,-0.8039 -0.51013,-1.09543 -0.51013,-2.30375 0,-1.21332 0.0661,-1.49843 0.51863,-2.32096 1.03557,-1.87192 3.16697,-2.85327 5.26589,-2.42436 z m 58.927278,5.8543 c 1.238864,0.58012 1.909309,1.20981 2.457513,2.30689 1.87067,3.74349 -1.589633,7.96314 -5.579148,6.80336 -3.428933,-0.99686 -4.679613,-5.13289 -2.351613,-7.77752 0.995318,-1.13084 1.854518,-1.53354 3.440462,-1.61269 1.030274,-0.0471 1.448023,0.009 2.032786,0.28045 z m -48.804358,2.85499 c 2.77446,1.60254 3.21809,2.17703 2.60177,3.36886 -0.30138,0.58379 -1.12721,0.96242 -1.75458,0.80488 -0.63955,-0.16088 -4.41425,-2.31839 -4.78088,-2.73311 -0.43739,-0.49497 -0.39393,-1.56306 0.085,-2.11565 0.76047,-0.87571 1.33824,-0.7746 3.84715,0.67456 z m 39.52269,4.75462 c 0.64333,0.64334 0.69434,1.57205 0.11623,2.14186 -0.6934,0.68395 -4.53309,2.71281 -5.13439,2.71281 -1.19323,0 -1.99235,-1.56181 -1.30282,-2.54625 0.39677,-0.56681 4.60064,-2.81385 5.26363,-2.81385 0.37975,0 0.70945,0.15781 1.05719,0.50543 z m -30.02772,0.68016 c 2.60811,1.49574 2.8679,1.72503 2.8679,2.53062 0,0.3466 -0.085,0.78695 -0.18703,0.97871 -0.27018,0.50452 -1.21732,0.85874 -1.82438,0.68209 -0.54509,-0.15873 -4.3349,-2.32053 -4.70219,-2.68216 -0.12659,-0.12357 -0.27205,-0.54415 -0.32405,-0.93241 -0.085,-0.62166 -0.0284,-0.77087 0.43172,-1.23416 0.81149,-0.81237 1.33503,-0.71986 3.73757,0.65841 z m 20.63108,20.47151 c 0.52997,0.57345 2.46706,4.20527 2.46706,4.62645 0,1.03172 -1.03925,1.86895 -2.04554,1.64799 -0.67073,-0.14742 -0.84266,-0.36184 -2.01398,-2.51374 -1.22271,-2.24645 -1.3373,-2.8367 -0.69812,-3.59622 0.38921,-0.46194 0.58664,-0.55357 1.19833,-0.55357 0.53753,0 0.82849,0.10398 1.09235,0.38921 z m 4.30769,8.5026 c 0.43928,0.19451 0.76236,0.65279 1.6858,2.39342 1.27032,2.39436 1.39096,3.00604 0.72458,3.67234 -0.56304,0.56306 -1.22659,0.70757 -1.86416,0.40524 -0.70568,-0.33434 -2.78986,-4.07614 -2.8027,-5.03153 -0.0191,-1.1677 1.16631,-1.92187 2.25639,-1.43965 z m 6.67546,7.60842 c 3.528695,1.25924 4.345567,5.84712 1.47806,8.30164 -1.90383,1.62958 -4.65156,1.48534 -6.47698,-0.33991 -1.94483,-1.94481 -1.93803,-4.79564 0.0191,-6.74981 1.34448,-1.34456 3.28695,-1.8169 4.98266,-1.21176 z"
       id="path27" /><g
       id="text31"
       style="font-size:25.4px;font-family:'Good Times';-inkscape-font-specification:'Good Times';letter-spacing:-0.134937px;word-spacing:-0.690562px;fill:url(#linearGradient41);stroke:#b0bccf;stroke-width:1.3"
       aria-label="icGRAPH"
       transform="matrix(2.8691022,0,0,2.8691022,-301.57559,-716.20343)"><g
         id="path35"
         style="fill:url(#linearGradient40)"><path
           style="color:#000000;-inkscape-font-specification:'Good Times';fill:#b0bccf;stroke:none;-inkscape-stroke:none"
           d="m 80.828774,153.03876 z m 0,0 v -18.4658 h 3.2258 v 18.4658 z"
           id="path38" /><path
           style="color:#000000;-inkscape-font-specification:'Good Times';fill:#b0bccf;stroke:none;-inkscape-stroke:none"
           d="m 80.179687,133.92383 v 19.76562 h 4.525391 v -19.76562 z m 1.298829,1.29883 h 1.925781 v 17.16601 h -1.925781 z"
           id="path39" /></g><path
         style="color:#000000;-inkscape-font-specification:'Good Times';fill:#b0bccf;stroke:none;-inkscape-stroke:none"
         d="m 95.730469,133.92383 c -1.360382,0 -2.639026,0.23284 -3.820313,0.70508 -1.159962,0.45349 -2.186376,1.11279 -3.060547,1.96875 -0.862458,0.8441 -1.540136,1.87155 -2.027343,3.0625 v 0.004 l -0.002,0.004 c -0.473092,1.20093 -0.705078,2.52218 -0.705078,3.94726 0,1.40904 0.232871,2.7369 0.703125,3.9668 v 0.004 l 0.002,0.004 c 0.484774,1.22091 1.155726,2.29262 2.009766,3.20118 l 0.0059,0.006 0.0039,0.004 c 0.868999,0.88711 1.887569,1.59649 3.041015,2.11914 l 0.0059,0.002 0.0059,0.002 c 1.185203,0.51055 2.471134,0.76562 3.837891,0.76562 h 10.658205 v -4.52734 H 95.730469 c -0.749455,0 -1.426139,-0.13604 -2.052735,-0.4043 h -0.002 c -0.617871,-0.27185 -1.141141,-0.63536 -1.58789,-1.0957 -0.446857,-0.47747 -0.798523,-1.04172 -1.058594,-1.71484 -0.257439,-0.66632 -0.388672,-1.38831 -0.388672,-2.17969 0,-0.8097 0.131789,-1.52901 0.386719,-2.17383 0.259438,-0.65623 0.608463,-1.20492 1.054687,-1.66602 0.446386,-0.46126 0.968986,-0.81645 1.585938,-1.07226 h 0.0039 l 0.0039,-0.002 c 0.627077,-0.26875 1.304547,-0.4043 2.054688,-0.4043 h 10.6582 v -4.52539 z m 0,1.29883 h 9.357421 v 1.92578 h -9.357421 c -0.907195,0 -1.766772,0.16856 -2.560547,0.50781 -8.58e-4,3.6e-4 -0.0011,0.002 -0.002,0.002 -0.770521,0.31988 -1.450551,0.77729 -2.019532,1.36524 -0.569775,0.58877 -1.013783,1.29175 -1.330078,2.09179 -0.320803,0.81145 -0.478515,1.70098 -0.478515,2.65235 0,0.93582 0.158268,1.82266 0.476562,2.64648 0.3151,0.81556 0.758405,1.53696 1.326172,2.14258 l 0.002,0.002 0.0039,0.004 c 0.567185,0.58609 1.24317,1.05212 2.009766,1.38867 h 0.002 l 0.0039,0.002 c 0.795323,0.34086 1.657082,0.50977 2.566407,0.50977 h 9.357426 v 1.92578 h -9.357426 c -1.205743,0 -2.305142,-0.22147 -3.320313,-0.6582 -1.008776,-0.45839 -1.883096,-1.06933 -2.636719,-1.83789 -0.734552,-0.78305 -1.315712,-1.70279 -1.74414,-2.78125 -2.16e-4,-5.5e-4 2.16e-4,-0.001 0,-0.002 -0.408436,-1.07101 -0.615234,-2.23057 -0.615235,-3.49414 10e-7,-1.28132 0.207678,-2.43044 0.613282,-3.46289 v -0.002 c 0.427125,-1.04352 1.003526,-1.90966 1.732422,-2.62305 0.750779,-0.73513 1.62051,-1.29631 2.626953,-1.68945 h 0.002 l 0.002,-0.002 c 1.019557,-0.40783 2.127034,-0.61328 3.339844,-0.61328 z"
         id="path36" /><path
         style="fill:#b0bccf;stroke:none"
         d="m 116.65232,153.03876 q -1.9304,0 -3.5814,-0.7112 -1.6256,-0.7366 -2.8448,-1.9812 -1.1938,-1.27 -1.8796,-2.9972 -0.6604,-1.7272 -0.6604,-3.7338 0,-2.032 0.6604,-3.7084 0.6858,-1.6764 1.8796,-2.8448 1.2192,-1.1938 2.8448,-1.8288 1.651,-0.6604 3.5814,-0.6604 h 10.0076 v 3.2258 h -10.0076 q -1.2446,0 -2.3114,0.4572 -1.0414,0.4318 -1.8034,1.2192 -0.762,0.7874 -1.1938,1.8796 -0.4318,1.0922 -0.4318,2.413 0,1.2954 0.4318,2.413 0.4318,1.1176 1.1938,1.9304 0.762,0.7874 1.8034,1.2446 1.0668,0.4572 2.3114,0.4572 h 7.8994 v -4.8006 h -8.3312 v -2.7178 h 11.5824 v 10.7442 z m 31.13247,0 -4.6736,-5.1308 h -6.9088 v -2.8448 h 7.6962 q 1.7526,0 2.6416,-0.9398 0.889,-0.9652 0.889,-2.7686 0,-1.8034 -0.9398,-2.667 -0.9144,-0.889 -2.5908,-0.889 h -10.0584 v 15.24 h -3.2004 v -18.4658 h 13.2588 q 1.5748,0 2.8194,0.4826 1.2446,0.4572 2.1082,1.3462 0.8636,0.8636 1.3208,2.1082 0.4572,1.2446 0.4572,2.794 0,2.3114 -1.016,3.8862 -0.9906,1.5494 -2.794,2.2352 l 5.5626,5.6134 z m 25.36665,0 -2.7686,-4.6482 h -8.7376 l 1.524,-2.6162 h 5.6642 l -4.1148,-6.9088 -8.382,14.1732 h -3.683 l 10.6172,-17.6784 q 0.2794,-0.4826 0.6604,-0.762 0.381,-0.2794 0.9144,-0.2794 0.5334,0 0.889,0.2794 0.381,0.2794 0.6604,0.762 l 10.6426,17.6784 z m 11.29507,-5.1308 v -3.1242 h 7.4168 q 1.7018,0 2.6416,-0.9652 0.9652,-0.9652 0.9652,-2.54 0,-1.6002 -0.9652,-2.54 -0.9398,-0.9398 -2.6416,-0.9398 h -9.779 v 15.24 h -3.2004 v -18.4658 h 12.9794 q 1.6002,0 2.8448,0.4826 1.27,0.4572 2.1336,1.3208 0.8636,0.8382 1.3208,2.0574 0.4572,1.2192 0.4572,2.7432 0,1.4986 -0.4572,2.7432 -0.4572,1.2192 -1.3208,2.1082 -0.8636,0.889 -2.1336,1.397 -1.2446,0.4826 -2.8448,0.4826 z m 31.18328,5.207 v -8.0264 h -9.2964 v -2.8702 h 9.2964 v -7.6454 h 3.2258 v 18.542 z m -14.859,0 v -18.542 h 3.2258 v 18.542 z"
         id="path37" /></g></g></svg>
