<svg height="160.16962" viewBox="0 0 417.67578 160.16962" width="417.67578" xmlns="http://www.w3.org/2000/svg"><g transform="matrix(.13333333 0 0 -.13333333 68.52035521538 167.20133)"><path d="m1124.79 1031.3-66.11 28.81c-4.87 2.14-10.48 1.66-14.94-1.26s-7.13-7.89-7.13-13.2v-6.31-51.309-63.929c0-8.711 7.04-15.77 15.77-15.77 8.74 0 15.8 7.059 15.8 15.77v53.597l56.61 24.661c5.74 2.52 9.49 8.19 9.49 14.49 0 6.26-3.75 11.96-9.49 14.45" fill="#1da45c"/><path d="m1259.04 729.805c-9.31-9.012-24.24-3.543-27.93 8.347l-27.34 184.653c-.92 6.179-6.21 10.769-12.5 10.769h-50.49c-6.97 0-12.62-5.648-12.62-12.617v-37.891h-37.93v37.891c0 6.969-5.62 12.617-12.61 12.617h-50.49c-6.98 0-12.64-5.648-12.64-12.617v-37.891h-37.873v37.891c0 6.969-5.648 12.617-12.637 12.617h-50.5c-6.253 0-11.578-4.59-12.496-10.769l-27.222-183.727-.153 4.902c0-14.531-15.742-23.082-26.546-15.746-44.5 49.157-71.704 114.254-71.704 185.629 0 152.727 124.286 277.007 277.021 277.007 152.74 0 277-124.28 277-277.007 0-70.644-26.63-135.082-70.34-184.058zm-206.66 524.205c-187.567 0-340.157-152.58-340.157-340.147 0-160.75 112.109-295.711 262.23-331.054 15.492-2.422 27.417 11.062 27.417 22.277v82.266c0 27.886 22.61 50.507 50.51 50.507 27.89 0 50.49-22.621 50.49-50.507v-82.297c.02-11.219 11.97-24.688 27.44-22.246 150.12 35.363 262.23 170.308 262.23 331.054 0 187.567-152.58 340.147-340.16 340.147" fill="#31353b"/></g><text fill="#31353b" font-family="Nunito" font-size="50" font-weight="800" transform="matrix(1.3333333 0 0 1.3333333 -2.864583 145.78159720216)"><tspan x="0" y="0">osintbuddy</tspan></text></svg>