<svg height="17.956129mm" viewBox="0 0 62.829819 17.956129" width="62.829819mm" xmlns="http://www.w3.org/2000/svg"><g transform="translate(-57.966202 -183.139001)"><g transform="matrix(1.468605 0 0 1.468605 -125.10365 4.941692)"><path d="m125.46816 122.09489h8.48604v6.62145c0 5.57189-8.60196 5.39017-8.60196 0z" fill="none" stroke="#0c0a0a" stroke-width="1.39326"/><g transform="matrix(.33191332 .19163024 -.19163024 .33191332 105.65201 61.486077)"><rect height="6.677884" ry=".917437" width="1.109652" x="133.26457" y="113.53527"/><rect height="6.677884" ry=".917437" width="1.109652" x="145.20386" y="113.53527"/><rect height="14.584357" ry="1.550303" width="1.621357" x="135.81224" y="109.58203"/><rect height="14.584357" ry="1.550303" width="1.621357" x="142.14449" y="109.58203"/><rect height="20.411003" ry="2.16967" width="1.834875" x="138.87161" y="106.66871"/></g></g><g stroke-width=".264583"><path d="m78.981443 190.92831q-.80433 0-1.49225-.29633-.67733-.30692-1.18533-.8255-.49741-.52916-.78316-1.24883-.27517-.71966-.27517-1.55574 0-.84667.27517-1.54517.28575-.69849.78316-1.18533.508-.49741 1.18533-.76199.68792-.27517 1.49225-.27517h1.87324q.83608 0 1.524.27517.69849.27516 1.19591.77258.49741.49741.77258 1.19591.27516.68792.27516 1.524 0 .83608-.28574 1.55574-.27517.71967-.78317 1.24883-.49741.51858-1.18533.8255-.68791.29633-1.51341.29633zm1.87324-1.34408q.52917 0 .97366-.1905.4445-.1905.762-.51858.32808-.33867.508-.80433.17992-.46567.17992-1.00541 0-.53975-.17992-.99483-.17992-.46567-.508-.79375-.3175-.32808-.762-.508-.44449-.1905-.97366-.1905h-1.87324q-.51859 0-.96308.1905-.43392.17992-.75142.508-.3175.32808-.49741.78316-.17992.45508-.17992 1.00542 0 .53974.17992 1.00541.17991.46566.49741.80433.3175.32808.75142.51858.44449.1905.96308.1905z"/><path d="m85.712403 190.92831v-1.34408h5.7679q.53975 0 .82549-.27516.29634-.27517.29634-.73025 0-.49742-.29634-.74083-.28574-.254-.82549-.254h-3.53482q-.53975 0-.98425-.15875-.43392-.16933-.74083-.45508-.29633-.29634-.46567-.6985-.15875-.40217-.15875-.87842 0-.46566.14817-.85724.15875-.40217.45508-.68792.30692-.28575.75142-.4445.44449-.16933 1.01599-.16933h5.52448v1.34408h-5.52448q-.46566 0-.71966.254-.254.24342-.254.68791 0 .4445.254.68792.26458.24341.70908.24341h3.52424q1.17474 0 1.77799.55034.61383.55033.61383 1.67216 0 .48683-.14816.89958-.14817.41275-.4445.71966-.29633.29634-.75142.46567-.44449.16933-1.04774.16933z"/><path d="m95.099783 190.92831v-7.69406h1.34408v7.69406z"/><path d="m99.100253 185.29799v5.63032h-1.28058v-6.98498q0-.37041.17991-.58208.1905-.22225.508-.22225.14817 0 .28575.0635.13758.0635.28575.21167l5.429227 5.3869v-5.63032h1.28058v7.04848q0 .381-.1905.59267-.17991.21166-.47625.21166-.32808 0-.61383-.28575z"/><path d="m109.55654 190.92831v-6.34998h-2.92099v-1.34408h7.18606v1.34408h-2.92099v6.34998z"/><path d="m75.457203 200.9893v-7.69406h5.63031q.56092 0 1.016.127.46566.127.79375.381.32808.24341.508.62441.17991.37042.17991.85725 0 .37041-.0847.64558-.0847.27516-.23284.47625-.14816.1905-.34925.32808-.1905.127-.40216.1905.52916.16933.86783.61383.33866.4445.33866 1.12183 0 .52917-.17991.96308-.16933.42333-.49742.73025-.3175.30691-.78316.47625-.45508.15875-1.016.15875zm2.31774-3.34433v-1.13241h3.32316q.57149 0 .84666-.21167.27517-.21166.27517-.71966 0-.30692-.11642-.48683-.11642-.1905-.33867-.28575-.21166-.10583-.51858-.13758-.29633-.0318-.66675-.0318h-3.77823v5.01648h3.89465q.35983 0 .66675-.0529.30691-.0529.52916-.16933.22225-.127.33867-.3175.127-.1905.127-.47625 0-.47624-.29633-.73024-.29634-.26459-.86783-.26459z"/><path d="m91.776633 193.29524h1.31233v4.29682q0 .88899-.23283 1.55574-.23283.65617-.73025 1.09008-.49741.43392-1.29116.64558-.78316.21167-1.90499.21167-1.11125 0-1.905-.21167-.78316-.21166-1.28058-.64558-.49741-.43391-.73025-1.09008-.23283-.66675-.23283-1.55574v-4.29682h1.38641v4.29682q0 .58208.13759.99483.14816.41275.46566.67733.32808.26458.86783.39158.53975.11642 1.3335.11642.79375 0 1.33349-.11642.53975-.127.85725-.39158.32808-.26458.46567-.67733.14816-.41275.14816-.99483z"/><path d="m94.306043 200.9893v-7.69406h4.45557q.81491 0 1.502827.27516.68791.27517 1.18533.77258.49741.49742.77258 1.19592.28575.68791.28575 1.52399 0 .83608-.28575 1.55575-.27517.71966-.77258 1.24883-.49742.51858-1.18533.82549-.687917.29634-1.502827.29634zm4.45557-1.34408q.51858 0 .9525-.1905.444497-.1905.761997-.51858.32808-.33867.50799-.80433.17992-.46567.17992-1.00542 0-.53975-.17992-.99483-.17991-.46566-.50799-.79375-.3175-.32808-.761997-.50799-.43392-.1905-.9525-.1905h-3.12207v5.0059z"/><path d="m103.60876 200.9893v-7.69406h4.45557q.81491 0 1.50283.27516.68791.27517 1.18533.77258.49741.49742.77258 1.19592.28575.68791.28575 1.52399 0 .83608-.28575 1.55575-.27517.71966-.77258 1.24883-.49742.51858-1.18533.82549-.68792.29634-1.50283.29634zm4.45557-1.34408q.51858 0 .95249-.1905.4445-.1905.762-.51858.32808-.33867.508-.80433.17992-.46567.17992-1.00542 0-.53975-.17992-.99483-.17992-.46566-.508-.79375-.3175-.32808-.762-.50799-.43391-.1905-.95249-.1905h-3.12208v5.0059z"/><path d="m115.35621 200.9893v-2.92099l-4.08516-4.77307h1.80975l2.99507 3.5454 3.00566-3.5454h1.71449l-4.09574 4.77307v2.92099z"/></g></g></svg>