<svg height="85.243721mm" viewBox="0 0 579.64581 85.243721" width="579.64581mm" xmlns="http://www.w3.org/2000/svg" xmlns:xlink="http://www.w3.org/1999/xlink"><filter id="a" color-interpolation-filters="sRGB" height="1.000018" width="1.000001" x="-.000001" y="-.000009"><feGaussianBlur stdDeviation=".00003851949"/></filter><g transform="translate(-72.716989 -11.80544)"><g fill="#1d1db8"><path d="m13.65467.00023366-.014812.86293899-.145878 8.35987655v.0076c0 1.9335738.805337 3.5057878 2.00281 4.5273408 1.197473 1.021565 2.749482 1.521663 4.292439 1.537969 1.54297.01633 3.103031-.452333 4.307289-1.471202s2.005279-2.610845 2.005279-4.5941078v-9.2302383zm1.728359 1.75802104h8.960721v7.4722132c0 1.5310441-.554383 2.5490151-1.38466 3.2514791s-1.982833 1.068166-3.152568 1.05581c-1.169748-.01266-2.330355-.40353-3.167418-1.117628-.836531-.713643-1.386432-1.722574-1.387128-3.1871798 0-.0009369 0-.00127 0-.00253z" transform="matrix(5.57710116691 0 0 5.57710116691 502.66054823228 11.54599238709)"/><g stroke-width="2.60931" transform="matrix(2.34346369881 1.35299936237 -1.35299936237 2.34346369881 443.61473049524 -411.46207695426)"><rect height="6.677884" ry=".917437" width="1.109652" x="133.26457" y="113.53527"/><rect height="6.677884" ry=".917437" width="1.109652" x="145.20386" y="113.53527"/><rect height="14.584357" ry="1.550303" width="1.621357" x="135.81224" y="109.58203"/><rect height="14.584357" ry="1.550303" width="1.621357" x="142.14449" y="109.58203"/><rect height="20.411003" ry="2.16967" width="1.834875" x="138.87161" y="106.66871"/></g></g><text filter="url(#a)" opacity=".998" stroke-width=".265" x="92.770767" y="110.42779"><tspan stroke-width=".265" x="92.770767" y="110.42779"/></text><g fill="#1d1db8"><g font-family="sans-serif" font-size="25.4637" stroke-width=".636594" transform="matrix(.75219287 0 0 .75219287 22.191063 8.003826)"><text fill="#000" stroke-width=".223922" x="354.80823" y="187.48808"><tspan stroke-width=".223922" x="354.80823" y="187.48808"/></text><text fill="#1d1db8" font-family="Anta" font-size="27.1258" stroke-width=".431703" x="67.584824" y="115.17639"><tspan fill="#1d1db8" font-family="Anta" font-size="27.1258" stroke-width=".431703" x="67.584824" y="115.17639">DATA MINING - NODE GRAPHS - PLUGINS</tspan></text></g><g stroke-width=".242006" transform="matrix(5.9079790714 0 0 5.9079790714 290.25013729127 -130.9450326236)"><path d="m25.749377 33.669976v-7.037523h4.075375q.745373 0 1.374593.251681.62921.251689 1.084185.706655.454966.454975.706656 1.093872.261367.62921.261367 1.393947 0 .764737-.261367 1.422998-.25169.658251-.706656 1.142266-.454975.47433-1.084185.755051-.62922.271053-1.374593.271053zm4.075375-1.229389q.474329 0 .871214-.174244.40657-.174245.696978-.47433.300085-.309771.464652-.735696.164567-.425934.164567-.919627 0-.493693-.164567-.909941-.164567-.425925-.464652-.726019-.290408-.300085-.696978-.464643-.396885-.174245-.871214-.174245h-2.855672v4.578745z"/><path d="m36.494413 33.669976v-2.671741l-3.736572-4.365782h1.655324l2.739499 3.24287 2.749186-3.24287h1.568202l-3.74625 4.365782v2.671741z"/><path d="m-33.114395 33.669976q-.735696 0-1.364916-.271044-.619533-.28073-1.084185-.75506-.454966-.484006-.716333-1.142267-.25169-.658251-.25169-1.422988 0-.774423.25169-1.41332.261367-.638888.716333-1.084185.464652-.454966 1.084185-.696969.62922-.25169 1.364916-.25169h1.713396q.764737 0 1.393956.25169.638888.25168 1.093863.706655.454966.454966.706656 1.093863.25168.629219.25168 1.393956 0 .764737-.261358 1.422988-.251689.658261-.716342 1.142267-.454965.47433-1.084185.75506-.629211.271044-1.38427.271044zm1.713396-1.229389q.484015 0 .890577-.174245.406571-.174244.696978-.474329.300085-.309771.464653-.735696.164567-.425935.164567-.919618 0-.493693-.164567-.909941-.164568-.425934-.464653-.726019-.290407-.300085-.696978-.464652-.406562-.174245-.890577-.174245h-1.713396q-.474339 0-.8809.174245-.396894.164567-.687301.464652-.290408.300085-.454966.716333-.164567.416247-.164567.919627 0 .493683.164567.919618.164558.425925.454966.735696.290407.300085.687301.474329.406561.174245.8809.174245z"/><path d="m-26.95779 33.669976v-1.229389h5.275723q.493693 0 .755051-.251681.271053-.251689.271053-.667937 0-.454975-.271053-.677615-.261358-.232326-.755051-.232326h-3.233193q-.493692 0-.900263-.145204-.396894-.154881-.677615-.416248-.271044-.271053-.425934-.638896-.145204-.367853-.145204-.803464 0-.425926.135527-.784092.145204-.367853.416248-.629219.28073-.261367.687301-.406571.406561-.154881.929295-.154881h5.053074v1.229389h-5.053074q-.425925 0-.658251.232326-.232326.222649-.232326.629211 0 .40657.232326.629219.242003.22264.648574.22264h3.223515q1.074499 0 1.626274.503379.561451.50337.561451 1.529474 0 .445289-.135517.822819-.135527.37753-.406571.658251-.271044.271053-.687301.425934-.406562.154881-.958336.154881z"/><path d="m-18.371438 33.669976v-7.037523h1.229389v7.037523z"/><path d="m-14.71233 28.520093v5.149883h-1.171308v-6.388949q0-.338803.164559-.532411.174244-.203285.464661-.203285.135517 0 .261367.05808.12584.05808.261367.193608l4.965952 4.927234v-5.149883h1.1712978v6.447031q0 .348489-.174235.542097-.164568.193599-.4356118.193599-.300085 0-.561451-.261366z"/><path d="m-5.1482793 33.669976v-5.808134h-2.6717409v-1.229389h6.5728709v1.229389h-2.671741v5.808134z"/><path d="m-.00000024 33.669976v-7.037523h5.14987364q.5130565 0 .9293044.116163.4259251.116163.726019.348489.3000849.22264.4646522.571129.1645582.338812.1645582.784101 0 .338803-.077472.590492-.077472.251681-.2129625.435612-.1355266.174244-.3194575.300084-.1742355.116163-.3678344.174245.4840065.154881.7937777.561452.309762.40657.309762 1.026104 0 .484015-.1645582.8809-.154881.387207-.454975.667937-.2904076.280721-.7163418.435611-.4162387.145204-.9292952.145204zm2.11996644-3.058957v-1.035781h3.0395936q.5227245 0 .7744142-.193608.2516896-.193599.2516896-.658251 0-.280731-.1064858-.445289-.1064858-.174244-.309762-.261367-.193599-.0968-.4743386-.12584-.2710349-.02909-.6098468-.02909h-3.4558323v4.588422h3.5623181q.3291256 0 .6098469-.04839.2807304-.04839.4840157-.154881.2032853-.116163.309762-.290408.1161722-.174245.1161722-.435611 0-.435603-.2710532-.667929-.271044-.242012-.7937777-.242012z"/><path d="m14.926887 26.632453h1.200349v3.930171q0 .813132-.212963 1.422988-.212963.600179-.667938.997063-.454965.396894-1.180984.590493-.716333.193608-1.742437.193608-1.016427 0-1.742446-.193608-.7163323-.193599-1.1713073-.590493-.4549658-.396884-.6679375-.997063-.2129625-.609856-.2129625-1.422988v-3.930171h1.2681071v3.930171q0 .532411.1258494.909941.1355178.37753.4259248.619533.300085.242003.793778.358166.493693.106486 1.219712.106486.726019 0 1.219703-.106486.493693-.116163.7841-.358166.300085-.242003.425935-.619533.135517-.37753.135517-.909941z"/><path d="m17.240462 33.669976v-7.037523h4.075374q.745374 0 1.374593.251681.629211.251689 1.084186.706655.454965.454975.706655 1.093872.261367.62921.261367 1.393947 0 .764737-.261367 1.422998-.25169.658251-.706655 1.142266-.454975.47433-1.084186.755051-.629219.271053-1.374593.271053zm4.075374-1.229389q.47433 0 .871223-.174244.406571-.174245.696978-.47433.300085-.309771.464643-.735696.164568-.425934.164568-.919627 0-.493693-.164568-.909941-.164558-.425925-.464643-.726019-.290407-.300085-.696978-.464643-.396893-.174245-.871223-.174245h-2.855662v4.578745z"/></g></g></g></svg>