<svg height="12.082338mm" viewBox="0 0 42.157818 12.082338" width="42.157818mm" xmlns="http://www.w3.org/2000/svg"><g stroke-width=".264583" transform="translate(-81.813094 -121.379916)"><path d="m97.375169 131.26811q-.804331 0-1.492245-.29633-.677331-.30692-1.18533-.8255-.497415-.52917-.783164-1.24883-.275166-.71967-.275166-1.55575 0-.84666.275166-1.54516.285749-.6985.783164-1.18533.507999-.49741 1.18533-.762.687914-.27516 1.492245-.27516h1.873244q.836077 0 1.523997.27516.6985.27517 1.19592.77259.49741.49741.77257 1.19591.27517.68791.27517 1.52399 0 .83608-.28575 1.55575-.27516.71966-.78316 1.24883-.49741.51858-1.18533.8255-.68792.29633-1.513417.29633zm1.873244-1.34408q.529165 0 .973667-.1905.4445-.1905.762-.51858.32808-.33867.508-.80433.17991-.46567.17991-1.00542 0-.53974-.17991-.99483-.17992-.46566-.508-.79374-.3175-.32809-.762-.508-.444502-.1905-.973667-.1905h-1.873244q-.518581 0-.96308.1905-.433915.17991-.751414.508-.317499.32808-.497415.78316-.179917.45508-.179917 1.00541 0 .53975.179917 1.00542.179916.46566.497415.80433.317499.32808.751414.51858.444499.1905.96308.1905z"/><path d="m104.10613 131.26811v-1.34408h5.7679q.53975 0 .8255-.27517.29633-.27516.29633-.73024 0-.49742-.29633-.74084-.28575-.25399-.8255-.25399h-3.53482q-.53975 0-.98425-.15875-.43391-.16934-.74083-.45509-.29633-.29633-.46566-.69849-.15875-.40217-.15875-.87842 0-.46566.14816-.85724.15875-.40217.45508-.68792.30692-.28575.75142-.4445.4445-.16933 1.016-.16933h5.52448v1.34408h-5.52448q-.46567 0-.71967.254-.254.24341-.254.68791 0 .4445.254.68792.26458.24341.70908.24341h3.52424q1.17475 0 1.778.55033.61383.55034.61383 1.67217 0 .48683-.14817.89958-.14817.41274-.4445.71966-.29633.29633-.75141.46567-.4445.16933-1.04775.16933z"/><path d="m113.49351 131.26811v-7.69406h1.34408v7.69406z"/><path d="m115.7054 131.26811v-7.69406h5.63031q.56092 0 1.016.127.46567.127.79375.381.32808.24341.508.62441.17991.37042.17991.85725 0 .37041-.0847.64558-.0847.27517-.23284.47625-.14816.1905-.34925.32808-.1905.127-.40216.1905.52916.16933.86783.61383.33866.4445.33866 1.12183 0 .52917-.17991.96308-.16933.42333-.49742.73025-.3175.30692-.78316.47625-.45508.15875-1.016.15875zm2.31774-3.34432v-1.13242h3.32316q.57149 0 .84666-.21166.27517-.21167.27517-.71967 0-.30691-.11642-.48683-.11642-.1905-.33867-.28575-.21166-.10583-.51858-.13758-.29633-.0318-.66675-.0318h-3.77823v5.01648h3.89465q.35983 0 .66675-.0529.30691-.0529.52916-.16934.22225-.127.33867-.3175.127-.1905.127-.47624 0-.47625-.29633-.73025-.29634-.26458-.86783-.26458z"/></g><g transform="translate(-124.673515 -121.39826)"><path d="m125.48315 122.09239h8.45564v6.59773c0 5.55194-8.57114 5.37087-8.57114 0z" fill="none" stroke="#0c0a0a" stroke-width="1.38827"/><g transform="matrix(.33191332 .19163024 -.19163024 .33191332 105.65201 61.486077)"><rect height="6.677884" ry=".917437" width="1.109652" x="133.26457" y="113.53527"/><rect height="6.677884" ry=".917437" width="1.109652" x="145.20386" y="113.53527"/><rect height="14.584357" ry="1.550303" width="1.621357" x="135.81224" y="109.58203"/><rect height="14.584357" ry="1.550303" width="1.621357" x="142.14449" y="109.58203"/><rect height="20.411003" ry="2.16967" width="1.834875" x="138.87161" y="106.66871"/></g></g></svg>